<?xml version="1.0" standalone="no"?>
<!DOCTYPE svg PUBLIC "-//W3C//DTD SVG 1.1//EN" "http://www.w3.org/Graphics/SVG/1.1/DTD/svg11.dtd" >
<svg xmlns="http://www.w3.org/2000/svg" xmlns:xlink="http://www.w3.org/1999/xlink" version="1.1">
<metadata>
Created by FontForge 20201107 at Tue Feb 20 18:33:08 2024
 By 
Copyright (c) 2023 by atipo. All rights reserved.
</metadata>
<defs>
<font id="Borna-SemiBold" horiz-adv-x="1173" >
  <font-face 
    font-family="Borna SemiBold"
    font-weight="600"
    font-stretch="normal"
    units-per-em="2048"
    panose-1="0 0 0 0 0 0 0 0 0 0"
    ascent="1638"
    descent="-410"
    x-height="1061"
    cap-height="1434"
    bbox="-119 -512 2177 1964"
    underline-thickness="102"
    underline-position="-255"
    unicode-range="U+000D-2212"
  />
<missing-glyph horiz-adv-x="1163" 
d="M70 0v1434h1024v-1434h-1024zM172 195l348 522l-348 522v-1044zM233 102h697l-348 523zM233 1331l349 -522l348 522h-697zM643 717l348 -522v1044z" />
    <glyph glyph-name="ellipsis" unicode="&#x2e;&#x2e;&#x2e;" horiz-adv-x="1515" 
d="M98 0v307h293v-307h-293zM610 0v307h293v-307h-293zM1122 0v307h293v-307h-293z" />
    <glyph glyph-name=".notdef" horiz-adv-x="1163" 
d="M70 0v1434h1024v-1434h-1024zM172 195l348 522l-348 522v-1044zM233 102h697l-348 523zM233 1331l349 -522l348 522h-697zM643 717l348 -522v1044z" />
    <glyph glyph-name=".null" horiz-adv-x="0" 
 />
    <glyph glyph-name=".null" horiz-adv-x="0" 
 />
    <glyph glyph-name="nonmarkingreturn" horiz-adv-x="682" 
 />
    <glyph glyph-name="CR" unicode="&#xd;" horiz-adv-x="0" 
 />
    <glyph glyph-name="space" unicode=" " horiz-adv-x="438" 
 />
    <glyph glyph-name="space" unicode="&#xa0;" horiz-adv-x="438" 
 />
    <glyph glyph-name="exclam" unicode="!" horiz-adv-x="567" 
d="M178 446l-35 422v566h267v-566l-35 -422h-197zM135 0v307h293v-307h-293z" />
    <glyph glyph-name="quotedbl" unicode="&#x22;" horiz-adv-x="649" 
d="M381 885l-10 446h204l-12 -446h-182zM76 1331h205l-13 -446h-180z" />
    <glyph glyph-name="numbersign" unicode="#" horiz-adv-x="1107" 
d="M500 143l53 277h-109l-53 -277h-198l53 277h-150v188h185l41 215h-226v189h260l54 278h198l-53 -278h109l53 278h198l-53 -278h150v-189h-185l-41 -215h226v-188h-260l-54 -277h-198zM479 608h109l41 215h-109z" />
    <glyph glyph-name="dollar" unicode="$" horiz-adv-x="1220" 
d="M512 -174v154q-166 22 -274 115t-146 229l217 84q27 -89 107 -144t192 -55q122 0 192 45t70 121q0 71 -50 111.5t-144 66.5l-168 47q-73 20 -130 48.5t-107.5 72t-78.5 109.5t-28 149q0 141 97 245t265 128v155h189v-155q146 -22 245.5 -102t133.5 -203l-222 -82
q-23 70 -86 117.5t-168 47.5q-92 0 -147 -43.5t-55 -107.5q0 -57 39.5 -91.5t113.5 -56.5l170 -47q185 -53 284 -150t99 -259q0 -153 -111.5 -264t-310.5 -134v-151h-188z" />
    <glyph glyph-name="percent" unicode="%" horiz-adv-x="1763" 
d="M459 0v20l639 1311h213v-20l-639 -1311h-213zM76 866v185q0 131 85.5 219t231.5 88q145 0 231.5 -88.5t86.5 -218.5v-185q0 -132 -86.5 -219.5t-231.5 -87.5q-146 0 -231.5 87.5t-85.5 219.5zM264 868q0 -62 36 -97.5t93 -35.5t93 35.5t36 97.5v181q0 60 -36 95.5
t-93 35.5t-93 -35.5t-36 -95.5v-181zM1055 281v184q0 131 86 219t231 88t231.5 -88.5t86.5 -218.5v-184q0 -132 -86.5 -220t-231.5 -88t-231 88t-86 220zM1243 283q0 -62 36 -97.5t93 -35.5t93 35.5t36 97.5v180q0 60 -36 95.5t-93 35.5t-93 -35.5t-36 -95.5v-180z" />
    <glyph glyph-name="ampersand" unicode="&#x26;" horiz-adv-x="1349" 
d="M604 -25q-116 0 -215.5 36.5t-167.5 98.5t-106.5 145.5t-38.5 176.5q0 146 87 249t210 126v41q-92 10 -160 82.5t-68 185.5q0 146 119 245t322 99q192 0 314 -100t142 -246l-225 -84q-16 94 -74.5 151.5t-156.5 57.5q-82 0 -135.5 -46.5t-53.5 -113.5q0 -71 52.5 -119.5
t142.5 -48.5h33v-241h-33q-107 0 -180.5 -61.5t-73.5 -166.5q0 -97 73.5 -159t192.5 -62q135 0 209 76t74 192v23h-150v231h572v-231h-162v-23q0 -225 -149 -369.5t-394 -144.5z" />
    <glyph glyph-name="quotesingle" unicode="'" horiz-adv-x="354" 
d="M88 885l-12 446h205l-13 -446h-180z" />
    <glyph glyph-name="parenleft" unicode="(" horiz-adv-x="1026" 
d="M731 -375q-98 48 -186 114.5t-168 158t-138 197.5t-92 240t-34 279t34 279t92 240t138 198t168 158.5t186 114.5l123 -209q-141 -74 -247.5 -183t-173 -264.5t-66.5 -333.5q0 -135 37.5 -257t104.5 -219t153.5 -173t191.5 -131z" />
    <glyph glyph-name="parenright" unicode=")" horiz-adv-x="1026" 
d="M172 -166q105 55 191.5 131t153.5 173t104.5 219t37.5 257q0 178 -66.5 333.5t-173 264.5t-247.5 183l123 209q98 -48 186 -114.5t168 -158.5t138 -198t92 -240t34 -279t-34 -279t-92 -240t-138 -197.5t-168 -158t-186 -114.5z" />
    <glyph glyph-name="asterisk" unicode="*" horiz-adv-x="874" 
d="M281 766l-148 104l156 220l-242 88l64 170l235 -86v254h180v-254l238 86l61 -170l-243 -91l157 -217l-147 -104l-156 219z" />
    <glyph glyph-name="plus" unicode="+" horiz-adv-x="901" 
d="M350 193v350h-340v190h340v348h201v-348h340v-190h-340v-350h-201z" />
    <glyph glyph-name="comma" unicode="," horiz-adv-x="495" 
d="M162 -362h-35l-59 147q78 22 108.5 65.5t30.5 114.5v35h-105v307h293v-352q0 -111 -62 -199t-171 -118z" />
    <glyph glyph-name="hyphen" unicode="-" horiz-adv-x="849" 
d="M129 489v213h592v-213h-592z" />
    <glyph glyph-name="period" unicode="." horiz-adv-x="491" 
d="M98 0v307h293v-307h-293z" />
    <glyph glyph-name="slash" unicode="/" horiz-adv-x="995" 
d="M72 -221v35l600 1722h252v-35l-600 -1722h-252z" />
    <glyph glyph-name="zero" unicode="0" 
d="M588 -27q-89 0 -175.5 31t-157.5 88.5t-115 151t-44 207.5v430q0 92 29 171t77.5 134.5t112 94.5t133 58t140.5 19t140.5 -19t133 -58t112 -94.5t77 -134.5t28.5 -171v-430q0 -114 -43.5 -207.5t-115 -151t-157.5 -88.5t-175 -31zM356 461q0 -102 66 -169t166 -67
t165.5 66.5t65.5 169.5v409q0 102 -66 169t-165 67q-100 0 -166 -67t-66 -169v-409z" />
    <glyph glyph-name="one" unicode="1" horiz-adv-x="841" 
d="M430 0v1069h-41q-9 -134 -96 -207.5t-217 -73.5v277q143 0 238.5 60t95.5 175v31h282v-1331h-262z" />
    <glyph glyph-name="two" unicode="2" horiz-adv-x="1116" 
d="M96 0v426l522 301q66 37 100 88t34 105q0 72 -54 130t-153 58q-98 0 -157 -62t-66 -145l-226 103q23 149 144 251.5t305 102.5q113 0 205 -37t149.5 -98t88 -136t30.5 -155q0 -137 -70 -239t-217 -177l-401 -229v-41h692v-246h-926z" />
    <glyph glyph-name="three" unicode="3" horiz-adv-x="1153" 
d="M571 -25q-186 0 -315 95t-160 245l228 101q20 -79 81.5 -135t165.5 -56q106 0 164 51.5t58 133.5q0 69 -54.5 117t-150.5 48h-113v228h105q87 0 134.5 43.5t47.5 103.5q0 64 -51.5 111t-147.5 47q-94 0 -151.5 -60t-65.5 -143l-231 99q23 150 146 252t314 102
q107 0 194.5 -28.5t142.5 -76.5t84.5 -108t29.5 -125q0 -97 -66 -166t-172 -70v-41q116 -23 193.5 -117t77.5 -216q0 -89 -30 -166.5t-88 -138t-153.5 -95.5t-216.5 -35z" />
    <glyph glyph-name="four" unicode="4" horiz-adv-x="1140" 
d="M666 0v246h-590v366l422 719h288v-35l-479 -776v-41h359v252h258v-252h161v-233h-161v-246h-258z" />
    <glyph glyph-name="five" unicode="5" horiz-adv-x="1138" 
d="M561 -25q-184 0 -306 92.5t-159 235.5l228 98q18 -70 77.5 -123t157.5 -53q102 0 167 65.5t65 164.5q0 95 -66.5 161t-167.5 66q-74 0 -128.5 -39.5t-74.5 -89.5l-254 98l52 680h800v-233h-583l-29 -383l39 -13q29 89 101 144t177 55q176 0 287 -130t111 -316
q0 -128 -57 -236t-171.5 -176t-265.5 -68z" />
    <glyph glyph-name="six" unicode="6" horiz-adv-x="1175" 
d="M590 -27q-130 0 -242.5 58t-182 168t-69.5 247q0 146 92 287l385 598h271v-35l-346 -510l32 -24q26 41 74.5 71.5t114.5 30.5q152 0 256 -123t104 -295q0 -213 -137.5 -343t-351.5 -130zM344 446q0 -100 72 -167.5t174 -67.5q101 0 172.5 67.5t71.5 167.5t-71.5 169
t-172.5 69q-102 0 -174 -69t-72 -169z" />
    <glyph glyph-name="seven" unicode="7" horiz-adv-x="1136" 
d="M250 0v35l547 1022v41h-469v-170h-232v403h944v-336l-524 -995h-266z" />
    <glyph glyph-name="eight" unicode="8" horiz-adv-x="1163" 
d="M614 819q142 47 142 176q0 57 -46.5 99.5t-127.5 42.5q-72 0 -121 -39.5t-49 -102.5q0 -86 116 -139zM96 346q0 60 19 110.5t49.5 84t69.5 57.5t77.5 35t75.5 12v41l-10 4q-92 41 -153.5 119t-61.5 195q0 161 119 257.5t301 96.5q183 0 303.5 -90.5t120.5 -231.5
q0 -103 -70 -168.5t-182 -66.5v-41l18 -8q295 -128 295 -381q0 -178 -133 -288t-348 -110q-133 0 -242.5 42t-178.5 128t-69 203zM360 393q0 -82 63.5 -134t162.5 -52t158 51.5t59 126.5q0 109 -133 170l-113 51q-76 -12 -136.5 -67t-60.5 -146z" />
    <glyph glyph-name="nine" unicode="9" horiz-adv-x="1175" 
d="M586 1358q97 0 186.5 -34.5t157.5 -95.5t108.5 -150.5t40.5 -192.5q0 -146 -92 -287l-385 -598h-270v35l346 510l-33 24q-25 -41 -73.5 -70.5t-114.5 -29.5q-152 0 -256.5 122t-104.5 294q0 211 140 342t350 131zM342 885q0 -101 71 -169.5t173 -68.5t173.5 68.5
t71.5 169.5t-71 168t-174 67t-173.5 -66.5t-70.5 -168.5z" />
    <glyph glyph-name="colon" unicode=":" horiz-adv-x="491" 
d="M98 0v307h293v-307h-293zM98 754v307h293v-307h-293z" />
    <glyph glyph-name="semicolon" unicode=";" horiz-adv-x="495" 
d="M162 -362h-35l-59 147q78 22 108.5 65.5t30.5 114.5v35h-105v307h293v-352q0 -111 -62 -199t-171 -118zM98 754v307h293v-307h-293z" />
    <glyph glyph-name="less" unicode="&#x3c;" horiz-adv-x="899" 
d="M889 133l-879 354v301l879 355v-209l-701 -275v-43l701 -274v-209z" />
    <glyph glyph-name="equal" unicode="=" horiz-adv-x="901" 
d="M10 737v191h881v-191h-881zM10 328v190h881v-190h-881z" />
    <glyph glyph-name="greater" unicode="&#x3e;" horiz-adv-x="899" 
d="M10 133v209l701 274v43l-701 275v209l879 -355v-301z" />
    <glyph glyph-name="question" unicode="?" horiz-adv-x="1103" 
d="M399 510q0 89 32.5 148.5t88.5 109.5l129 113q48 43 71 79t23 93q0 75 -55 125.5t-145 50.5q-88 0 -144.5 -53t-56.5 -136q0 -43 18 -88l-30 -14l-219 59q-9 45 -9 66q0 174 125.5 285.5t315.5 111.5q108 0 196.5 -34t144.5 -91.5t86.5 -130t30.5 -151.5q0 -100 -44 -173
t-121 -139l-109 -92q-40 -36 -59 -67t-19 -80v-56h-250v64zM375 0v307h293v-307h-293z" />
    <glyph glyph-name="at" unicode="@" horiz-adv-x="1839" 
d="M946 -311q-140 0 -270 37t-239 109.5t-190 173t-126 234.5t-45 287q0 175 63.5 329t175.5 265t272 175.5t345 64.5q239 0 429.5 -101t296 -277t105.5 -394q0 -205 -100.5 -335t-273.5 -130q-109 0 -176.5 45t-88.5 121h-41q-19 -70 -81 -118t-160 -48q-150 0 -254.5 110
t-104.5 293q0 178 104 291t251 113q96 0 159.5 -49t75.5 -111h41v148h197v-525q0 -42 24 -66t66 -24q68 0 108.5 77.5t40.5 207.5q0 250 -167.5 404.5t-450.5 154.5q-186 0 -330.5 -80.5t-222.5 -221.5t-78 -319q0 -192 87 -337.5t232.5 -220t325.5 -74.5q252 0 438 92
l52 -199q-81 -41 -209.5 -71.5t-280.5 -30.5zM700 530q0 -101 63 -162t146 -61q90 0 150 60.5t61 162.5q0 99 -60.5 160.5t-150.5 61.5q-86 0 -147.5 -60.5t-61.5 -161.5z" />
    <glyph glyph-name="A" unicode="A" horiz-adv-x="1378" 
d="M25 0v35l442 1399h444l443 -1399v-35h-269l-92 295h-608l-92 -295h-268zM461 545h454l-206 657h-43z" />
    <glyph glyph-name="B" unicode="B" horiz-adv-x="1396" 
d="M127 0v242h143v950h-143v242h692q210 0 329.5 -100t119.5 -259q0 -100 -62 -178t-149 -90v-43q38 -7 79 -31.5t82 -65t67 -105.5t26 -142q0 -188 -125.5 -304t-341.5 -116h-717zM535 244h307q84 0 139 53.5t55 136.5t-55 136t-139 53h-307v-379zM535 846h282
q77 0 126.5 50.5t49.5 121.5q0 73 -49.5 122.5t-126.5 49.5h-282v-344z" />
    <glyph glyph-name="C" unicode="C" horiz-adv-x="1585" 
d="M821 -27q-161 0 -300.5 57t-236.5 156t-152.5 236.5t-55.5 294.5q0 208 94.5 377.5t266 267.5t386.5 98q235 0 404 -108.5t254 -292.5l-240 -125q-47 123 -158 196.5t-260 73.5q-201 0 -337 -136.5t-136 -350.5q0 -216 135.5 -352t337.5 -136q156 0 278.5 87.5
t164.5 238.5l243 -115q-71 -207 -254.5 -337t-433.5 -130z" />
    <glyph glyph-name="D" unicode="D" horiz-adv-x="1560" 
d="M133 0v240h143v954h-143v240h627q161 0 298 -57t230 -154t145 -228t52 -278q0 -210 -89 -372.5t-254 -253.5t-382 -91h-627zM543 244h188q219 0 349 124t130 349q0 217 -131 345t-348 128h-188v-946z" />
    <glyph glyph-name="E" unicode="E" 
d="M168 0v1434h891v-246h-627v-338h557v-240h-557v-364h649v-246h-913z" />
    <glyph glyph-name="F" unicode="F" horiz-adv-x="1138" 
d="M168 0v1434h891v-246h-627v-377h557v-244h-557v-567h-264z" />
    <glyph glyph-name="G" unicode="G" horiz-adv-x="1646" 
d="M778 -27q-195 0 -356 97t-253.5 267.5t-92.5 379.5q0 208 95.5 378t266.5 267.5t383 97.5q234 0 401 -105t253 -282l-234 -127q-52 117 -161 187.5t-259 70.5q-201 0 -336 -136.5t-135 -350.5q0 -217 133 -352.5t334 -135.5q162 0 286 90t154 236h-426v236h699v-791h-273
v223h-40q-48 -119 -161 -184.5t-278 -65.5z" />
    <glyph glyph-name="H" unicode="H" horiz-adv-x="1482" 
d="M1049 0v602h-615v-602h-266v1434h266v-578h615v578h266v-1434h-266z" />
    <glyph glyph-name="I" unicode="I" horiz-adv-x="1073" 
d="M129 0v248h274v940h-274v246h815v-246h-274v-940h274v-248h-815z" />
    <glyph glyph-name="J" unicode="J" horiz-adv-x="1214" 
d="M528 -27q-173 0 -301 91t-182 229l217 127q32 -88 103.5 -139.5t162.5 -51.5q130 0 205.5 75.5t75.5 195.5v688h-481v246h745v-934q0 -154 -61.5 -272t-186 -186.5t-297.5 -68.5z" />
    <glyph glyph-name="K" unicode="K" horiz-adv-x="1337" 
d="M168 0v1434h264v-615h41l524 615h297v-35l-460 -537l483 -827v-35h-295l-373 649l-217 -254v-395h-264z" />
    <glyph glyph-name="L" unicode="L" horiz-adv-x="1112" 
d="M168 0v1434h266v-1186h633v-248h-899z" />
    <glyph glyph-name="M" unicode="M" horiz-adv-x="1908" 
d="M715 0l-248 1202h-41v-1202h-258v1434h516l248 -1203h39l254 1203h516v-1434h-258v1202h-41l-248 -1202h-479z" />
    <glyph glyph-name="N" unicode="N" horiz-adv-x="1525" 
d="M168 0v1434h494l403 -1203h35v1203h260v-1434h-498l-399 1202h-37v-1202h-258z" />
    <glyph glyph-name="O" unicode="O" horiz-adv-x="1648" 
d="M821 -27q-213 0 -384 97t-266 267t-95 380q0 156 56 293t154 236t237.5 156.5t299.5 57.5q161 0 301.5 -58t238.5 -157.5t154 -236.5t56 -291q0 -208 -96 -378t-268.5 -268t-387.5 -98zM350 717q0 -216 136.5 -352t336.5 -136q131 0 239 60t172 172.5t64 255.5
q0 213 -137.5 350t-337.5 137t-336.5 -137t-136.5 -350z" />
    <glyph glyph-name="P" unicode="P" horiz-adv-x="1239" 
d="M168 0v1434h551q209 0 342 -130.5t133 -330.5q0 -126 -60 -232t-169.5 -168.5t-245.5 -62.5h-287v-510h-264zM432 756h270q97 0 160.5 61.5t63.5 155.5q0 95 -63.5 156t-160.5 61h-270v-434z" />
    <glyph glyph-name="Q" unicode="Q" horiz-adv-x="1648" 
d="M530 31q-214 93 -334 276t-120 410q0 156 56 293t154 236t237.5 156.5t299.5 57.5q161 0 301.5 -55.5t238.5 -151.5t154 -228.5t56 -281.5q0 -187 -82.5 -331t-219.5 -215t-298 -58l-15 -39l560 -225l-101 -229zM350 717q0 -215 139 -351.5t340 -136.5q200 0 334.5 136
t134.5 352q0 213 -137.5 350t-337.5 137t-336.5 -137t-136.5 -350z" />
    <glyph glyph-name="R" unicode="R" horiz-adv-x="1341" 
d="M168 0v1434h590q214 0 335 -110.5t121 -283.5q0 -124 -65 -209t-172 -102v-41q41 -13 78 -37t71.5 -63.5t55 -101t20.5 -136.5v-350h-268v317q0 87 -53.5 139t-155.5 52h-293v-508h-264zM432 754h289q94 0 158.5 63t64.5 156q0 92 -62.5 153.5t-164.5 61.5h-285v-434z
" />
    <glyph glyph-name="S" unicode="S" horiz-adv-x="1294" 
d="M649 -27q-226 0 -372.5 110.5t-184.5 293.5l246 74q21 -104 103 -167t208 -63q129 0 203 52.5t74 136.5q0 133 -178 178l-218 51q-77 19 -140 49.5t-119 79t-87.5 121.5t-31.5 164q0 82 34.5 155.5t97 129.5t158 89t209.5 33q202 0 340.5 -96.5t173.5 -263.5l-247 -70
q-16 81 -85.5 135t-181.5 54q-110 0 -172.5 -48.5t-62.5 -117.5q0 -66 46.5 -103.5t131.5 -60.5l217 -53q383 -96 383 -426q0 -87 -36.5 -165.5t-103.5 -139.5t-172 -96.5t-233 -35.5z" />
    <glyph glyph-name="T" unicode="T" horiz-adv-x="1294" 
d="M512 0v1186h-444v248h1159v-248h-449v-1186h-266z" />
    <glyph glyph-name="U" unicode="U" horiz-adv-x="1431" 
d="M719 -27q-255 0 -413.5 155.5t-158.5 395.5v910h269v-908q0 -140 78 -222.5t225 -82.5q139 0 223 84.5t84 222.5v906h264v-908q0 -157 -71 -283t-202 -198t-298 -72z" />
    <glyph glyph-name="V" unicode="V" horiz-adv-x="1406" 
d="M485 0l-454 1399v35h280l369 -1203h43l373 1203h280v-35l-452 -1399h-439z" />
    <glyph glyph-name="W" unicode="W" horiz-adv-x="1976" 
d="M295 0l-264 1399v35h276l201 -1203h43l201 1203h473l200 -1203h43l203 1203h275v-35l-265 -1399h-471l-200 1202h-43l-203 -1202h-469z" />
    <glyph glyph-name="X" unicode="X" horiz-adv-x="1275" 
d="M25 0v35l366 692l-350 672v35h276l304 -588h41l299 588h278v-35l-340 -672l352 -692v-35h-278l-311 614h-41l-320 -614h-276z" />
    <glyph glyph-name="Y" unicode="Y" horiz-adv-x="1357" 
d="M545 0v565h-49l-465 834v35h282l344 -639h43l336 639h291v-35l-471 -834h-45v-565h-266z" />
    <glyph glyph-name="Z" unicode="Z" horiz-adv-x="1390" 
d="M127 0v416l866 719v41h-839v258h1106v-416l-867 -719v-41h871v-258h-1137z" />
    <glyph glyph-name="bracketleft" unicode="[" horiz-adv-x="839" 
d="M147 -373v1977h500v-226h-248v-1525h248v-226h-500z" />
    <glyph glyph-name="backslash" unicode="\" horiz-adv-x="995" 
d="M72 1536h252l600 -1722v-35h-252l-600 1722v35z" />
    <glyph glyph-name="bracketright" unicode="]" horiz-adv-x="839" 
d="M692 -373h-499v226h247v1525h-247v226h499v-1977z" />
    <glyph glyph-name="asciicircum" unicode="^" horiz-adv-x="1114" 
d="M106 672v35l310 727h282l310 -727v-35h-213l-217 530h-43l-213 -530h-216z" />
    <glyph glyph-name="underscore" unicode="_" horiz-adv-x="716" 
d="M-4 -270v211h725v-211h-725z" />
    <glyph glyph-name="grave" unicode="`" horiz-adv-x="505" 
d="M430 1192h-182l-172 309v35h231l123 -311v-33z" />
    <glyph glyph-name="a" unicode="a" horiz-adv-x="1155" 
d="M453 -27q-157 0 -262 94t-105 248q0 149 106.5 240.5t286.5 91.5h299v27q0 86 -58 141t-153 55q-90 0 -142.5 -46t-64.5 -107l-227 63q40 146 154.5 226.5t279.5 80.5q110 0 200 -35t145.5 -93.5t85.5 -131.5t30 -153v-420q0 -49 53 -49h33v-205h-149q-77 0 -121.5 44
t-44.5 116v47h-41q-15 -109 -96.5 -171.5t-208.5 -62.5zM344 322q0 -61 48.5 -100.5t123.5 -39.5q129 0 195.5 70.5t66.5 177.5v27h-266q-77 0 -122.5 -34t-45.5 -101z" />
    <glyph glyph-name="b" unicode="b" horiz-adv-x="1292" 
d="M774 -27q-131 0 -220 61t-120 169h-43v-203h-254v1536h254v-678h41q34 99 125 164t217 65q203 0 333 -159t130 -398t-130 -398t-333 -159zM381 530q0 -139 85 -231t212 -92q129 0 214 89t85 234q0 143 -85.5 233.5t-213.5 90.5q-124 0 -210.5 -89t-86.5 -235z" />
    <glyph glyph-name="c" unicode="c" horiz-adv-x="1183" 
d="M618 -27q-247 0 -405 157.5t-158 399.5q0 240 159 398.5t404 158.5q180 0 311 -84t191 -237l-221 -115q-28 90 -104 146.5t-177 56.5q-131 0 -217 -91t-86 -233q0 -147 85.5 -235t217.5 -88q100 0 178 54t109 153l225 -107q-58 -158 -195 -246t-317 -88z" />
    <glyph glyph-name="d" unicode="d" horiz-adv-x="1277" 
d="M520 -27q-134 0 -241 73.5t-165.5 200.5t-58.5 283q0 238 131.5 397.5t333.5 159.5q128 0 217.5 -65t122.5 -164h41v678h254v-1536h-254v203h-43q-30 -108 -118 -169t-220 -61zM315 530q0 -145 85 -234t214 -89q127 0 212 92t85 231q0 146 -86.5 235t-210.5 89
q-128 0 -213.5 -90.5t-85.5 -233.5z" />
    <glyph glyph-name="e" unicode="e" horiz-adv-x="1159" 
d="M602 -27q-237 0 -392 156.5t-155 405.5q0 240 151.5 396t389.5 156q154 0 273 -73t179 -189.5t58 -251.5l-2 -129h-797q21 -119 99.5 -183t195.5 -64q82 0 151.5 37.5t104.5 93.5l186 -127q-69 -106 -181 -167t-261 -61zM313 651h545q-5 91 -79 158.5t-183 67.5
q-108 0 -182 -60.5t-101 -165.5z" />
    <glyph glyph-name="f" unicode="f" horiz-adv-x="845" 
d="M242 0v844h-205v217h209v133q0 165 98 253.5t248 88.5h143v-221h-123q-50 0 -82 -30t-32 -87v-137h282v-217h-282v-844h-256z" />
    <glyph glyph-name="g" unicode="g" horiz-adv-x="1210" 
d="M575 -457q-154 0 -271.5 33t-190 106.5t-72.5 180.5q0 88 65.5 151.5t176.5 63.5h41v41q-70 9 -115 53t-45 107q0 50 26.5 86.5t63.5 56.5q-56 46 -88.5 116t-32.5 154q0 174 120.5 284.5t315.5 110.5q81 0 146 -22l411 16v-207h-299v-40q81 -11 125.5 -67t44.5 -128
q0 -79 -36 -141.5t-96.5 -100.5t-136 -58t-159.5 -20q-61 0 -123 15q-30 -15 -30 -49q0 -32 25 -49t63 -17h282q164 0 260.5 -83.5t96.5 -221.5q0 -80 -32 -144t-85.5 -106t-127.5 -69.5t-154 -39.5t-169 -12zM301 -102q0 -140 274 -140q142 0 224 35.5t82 106.5
q0 48 -33.5 77t-102.5 29h-309q-60 0 -97.5 -29t-37.5 -79zM387 692q0 -91 49 -141.5t133 -50.5t133.5 50.5t49.5 141.5q0 79 -51 134t-132 55t-131.5 -55t-50.5 -134z" />
    <glyph glyph-name="h" unicode="h" horiz-adv-x="1208" 
d="M137 0v1536h256v-678h41q27 105 105.5 167t191.5 62q86 0 154.5 -30t111.5 -81.5t65.5 -117.5t22.5 -141v-717h-256v627q0 94 -60.5 154.5t-152.5 60.5q-99 0 -161 -64t-62 -162v-616h-256z" />
    <glyph glyph-name="i" unicode="i" horiz-adv-x="489" 
d="M117 0v1061h256v-1061h-256zM115 1229v278h260v-278h-260z" />
    <glyph glyph-name="j" unicode="j" horiz-adv-x="491" 
d="M-57 -430v242h65q51 0 83 27.5t32 84.5v1137h256l-2 -1149q0 -167 -93 -254.5t-241 -87.5h-100zM117 1229v278h262v-278h-262z" />
    <glyph glyph-name="k" unicode="k" horiz-adv-x="1134" 
d="M137 0v1536h254v-860h41l361 385h286v-35l-364 -379l385 -612v-35h-275l-288 463l-146 -152v-311h-254z" />
    <glyph glyph-name="l" unicode="l" horiz-adv-x="501" 
d="M123 0v1536h256v-1536h-256z" />
    <glyph glyph-name="m" unicode="m" horiz-adv-x="1845" 
d="M137 0v1061h256v-203h41q23 97 99 163t190 66q125 0 205.5 -63.5t111.5 -165.5h41q28 99 105 164t188 65q112 0 192.5 -52t118 -134.5t37.5 -183.5v-717h-256v627q0 97 -54 156t-148 59q-90 0 -146.5 -62.5t-56.5 -163.5v-616h-256v627q0 95 -57.5 155t-149.5 60
q-90 0 -147.5 -64t-57.5 -162v-616h-256z" />
    <glyph glyph-name="n" unicode="n" horiz-adv-x="1206" 
d="M137 0v1061h256v-203h41q25 97 104.5 163t192.5 66q86 0 154.5 -30t111 -82t64.5 -117.5t22 -140.5v-717h-256v627q0 94 -60.5 154.5t-152.5 60.5q-99 0 -160 -64t-61 -162v-616h-256z" />
    <glyph glyph-name="o" unicode="o" horiz-adv-x="1249" 
d="M625 -27q-163 0 -293 71t-203.5 198.5t-73.5 287.5q0 242 161.5 399.5t408.5 157.5q156 0 286 -71.5t206.5 -199.5t76.5 -286q0 -159 -76.5 -287t-206.5 -199t-286 -71zM315 530q0 -146 88 -234.5t222 -88.5q133 0 221 88.5t88 234.5q0 141 -88.5 232.5t-220.5 91.5
t-221 -91.5t-89 -232.5z" />
    <glyph glyph-name="p" unicode="p" horiz-adv-x="1292" 
d="M762 1087q141 0 250 -73.5t167 -200t58 -283.5t-58 -283.5t-167 -200t-250 -73.5q-123 0 -209.5 61t-120.5 169h-41v-633h-254v1491h254v-203h43q30 106 120 167.5t208 61.5zM381 530q0 -146 86 -234.5t211 -88.5q128 0 213.5 90t85.5 233q0 145 -85.5 234.5t-213.5 89.5
q-126 0 -211.5 -92.5t-85.5 -231.5z" />
    <glyph glyph-name="q" unicode="q" horiz-adv-x="1271" 
d="M530 1087q118 0 208 -61.5t120 -167.5h43v203h254v-1491h-254v633h-41q-34 -108 -120.5 -169t-209.5 -61q-141 0 -250 73.5t-167 200t-58 283.5t58 283.5t167 200t250 73.5zM315 530q0 -143 85.5 -233t213.5 -90q125 0 211 88.5t86 234.5q0 139 -85.5 231.5t-211.5 92.5
q-128 0 -213.5 -89.5t-85.5 -234.5z" />
    <glyph glyph-name="r" unicode="r" horiz-adv-x="825" 
d="M137 0v1061h254v-225h43q27 106 112 174.5t224 68.5v-272h-131q-117 0 -181.5 -71.5t-64.5 -178.5v-557h-256z" />
    <glyph glyph-name="s" unicode="s" horiz-adv-x="1079" 
d="M532 -27q-181 0 -301.5 86t-154.5 238l229 59q18 -81 80 -122t150 -41q99 0 149.5 33t50.5 83q0 87 -121 109l-192 39q-58 11 -107.5 33.5t-92 58.5t-67 92t-24.5 125q0 136 114.5 228.5t305.5 92.5q171 0 288 -83.5t148 -223.5l-223 -59q-12 68 -70.5 112t-142.5 44
q-81 0 -126.5 -32.5t-45.5 -78.5q0 -77 121 -102l180 -35q307 -59 307 -320q0 -153 -122.5 -244.5t-332.5 -91.5z" />
    <glyph glyph-name="t" unicode="t" horiz-adv-x="866" 
d="M569 0q-152 0 -240.5 74.5t-88.5 238.5v533h-193v215h197v237h250v-237h299v-215h-299v-508q0 -107 104 -107h178v-231h-207z" />
    <glyph glyph-name="u" unicode="u" horiz-adv-x="1177" 
d="M469 -27q-86 0 -154.5 30.5t-111 82.5t-64.5 117.5t-22 140.5v717h256v-627q0 -96 59 -155.5t152 -59.5q99 0 161 63.5t62 161.5v617h256v-1061h-256v203h-41q-27 -101 -105.5 -165.5t-191.5 -64.5z" />
    <glyph glyph-name="v" unicode="v" horiz-adv-x="1126" 
d="M356 0l-325 1026v35h264l250 -830h43l239 830h269v-35l-324 -1026h-416z" />
    <glyph glyph-name="w" unicode="w" horiz-adv-x="1669" 
d="M254 0l-223 1026v35h262l156 -830h43l135 830h413l138 -830h43l161 830h256v-35l-223 -1026h-426l-131 829h-43l-137 -829h-424z" />
    <glyph glyph-name="x" unicode="x" horiz-adv-x="1087" 
d="M25 0v35l286 510l-256 481v35h269l202 -404h41l199 404h268v-35l-256 -489l287 -502v-35h-266l-232 426h-41l-237 -426h-264z" />
    <glyph glyph-name="y" unicode="y" horiz-adv-x="1187" 
d="M379 0l-348 1026v35h262l272 -830h43l281 830h268v-35l-366 -1026l-152 -430h-279v35l144 395h-125z" />
    <glyph glyph-name="z" unicode="z" horiz-adv-x="1077" 
d="M76 0v399l659 396v41h-641v225h897v-395l-659 -398v-41h669v-227h-925z" />
    <glyph glyph-name="braceleft" unicode="{" horiz-adv-x="989" 
d="M690 -373q-172 0 -282.5 101t-110.5 295v354q0 54 -29.5 84.5t-87.5 30.5h-33v247h33q58 0 87.5 30.5t29.5 84.5v356q0 98 31 175t85 124t124.5 71t152.5 24h109v-226h-78q-74 0 -123 -44t-49 -138v-373q0 -174 -162 -184v-45q162 -10 162 -182v-375q0 -94 49 -139
t123 -45h78v-226h-109z" />
    <glyph glyph-name="bar" unicode="|" horiz-adv-x="655" 
d="M205 -430v2034h246v-2034h-246z" />
    <glyph glyph-name="braceright" unicode="}" horiz-adv-x="989" 
d="M299 1602q172 0 282.5 -101t110.5 -295v-354q0 -54 29.5 -84.5t87.5 -30.5h33v-248h-33q-59 0 -88 -30t-29 -84v-357q0 -98 -31 -174.5t-85.5 -123.5t-124.5 -71t-152 -24h-109v225h78q74 0 123 44.5t49 138.5v373q0 174 162 184v45q-162 10 -162 182v375q0 94 -49 139
t-123 45h-78v226h109z" />
    <glyph glyph-name="asciitilde" unicode="~" horiz-adv-x="1030" 
d="M55 522q13 130 90 201.5t195 71.5q54 0 106 -22t86.5 -49t77 -49t78.5 -22q58 0 89.5 41t31.5 101h41l127 -68q-15 -129 -91.5 -200.5t-193.5 -71.5q-47 0 -89.5 14.5t-73.5 35.5t-60 41.5t-62 35t-67 14.5q-55 0 -87 -41.5t-32 -99.5h-41z" />
    <glyph glyph-name="exclamdown" unicode="&#xa1;" horiz-adv-x="567" 
d="M178 598h197l35 -422v-565h-267v565zM135 737v307h293v-307h-293z" />
    <glyph glyph-name="cent" unicode="&#xa2;" horiz-adv-x="1095" 
d="M475 0v152q-188 31 -304 168.5t-116 332.5t116 333t304 169v178h201v-178q128 -22 220.5 -96t137.5 -189l-221 -104q-23 74 -89.5 120t-150.5 46q-111 0 -187.5 -76t-76.5 -203q0 -130 76.5 -204t187.5 -74q84 0 151 44.5t95 127.5l223 -98q-44 -122 -139.5 -198.5
t-226.5 -98.5v-152h-201z" />
    <glyph glyph-name="sterling" unicode="&#xa3;" horiz-adv-x="1296" 
d="M117 246q59 0 98 33t39 104v174h-119v240h119v94q0 110 39 199.5t105 147.5t152 89t181 31q143 0 261 -70t173 -190l-229 -129q-19 59 -74.5 98t-128.5 39q-96 0 -157.5 -61t-61.5 -160v-88h332v-240h-332v-90q0 -82 -41.5 -128.5t-105.5 -51.5v-41h827v-246h-1077v246z
" />
    <glyph glyph-name="yen" unicode="&#xa5;" horiz-adv-x="1280" 
d="M506 0v213h-307v217h307v102h-307v220h149l-317 544v35h270l322 -579h34l314 579h276v-35l-321 -544h155v-220h-309v-102h309v-217h-309v-213h-266z" />
    <glyph glyph-name="section" unicode="&#xa7;" horiz-adv-x="1042" 
d="M502 -326q-138 0 -243 63t-148 159l198 120q22 -51 71 -88t122 -37q70 0 120 38.5t50 107.5q0 47 -28 80t-91 71l-293 172q-168 102 -168 240q0 91 58.5 145.5t160.5 55.5v41q-164 124 -164 297q0 164 117 263t299 99q138 0 243 -62.5t148 -158.5l-198 -121
q-20 51 -70 88t-123 37q-71 0 -120.5 -38.5t-49.5 -106.5q0 -47 29 -80.5t92 -71.5l293 -174q166 -99 166 -238q0 -92 -57.5 -145.5t-161.5 -56.5v-39q164 -121 164 -297q0 -165 -117 -264t-299 -99zM328 659q0 -58 80 -110l235 -143q43 11 68.5 39.5t25.5 70.5
q0 61 -80 111l-235 143q-43 -12 -68.5 -41t-25.5 -70z" />
    <glyph glyph-name="dieresis" unicode="&#xa8;" horiz-adv-x="796" 
d="M469 1245v271h252v-271h-252zM76 1245v271h252v-271h-252z" />
    <glyph glyph-name="copyright" unicode="&#xa9;" horiz-adv-x="1619" 
d="M809 -29q-209 0 -377.5 98.5t-262 268.5t-93.5 377q0 153 55.5 290t151.5 237t232 159t290 59q158 0 296.5 -58.5t235 -158.5t152 -237t55.5 -291q0 -155 -55 -292.5t-151 -236.5t-233.5 -157t-295.5 -58zM252 715q0 -248 158 -411t399 -163q243 0 400 162.5t157 411.5
q0 162 -71 293.5t-200 206.5t-290 75q-237 0 -395 -164.5t-158 -410.5zM426 715q0 167 111.5 280t283.5 113q128 0 221.5 -69.5t122.5 -168.5l-153 -63q-13 53 -65.5 93t-125.5 40q-93 0 -154 -63t-61 -162q0 -103 63 -166.5t152 -63.5q155 0 203 140l154 -47
q-20 -106 -120 -183.5t-237 -77.5q-167 0 -281 114.5t-114 283.5z" />
    <glyph glyph-name="ordfeminine" unicode="&#xaa;" horiz-adv-x="987" 
d="M379 616q-114 0 -193.5 70.5t-79.5 187.5q0 112 81 182t216 70h222v23q0 64 -42.5 103.5t-113.5 39.5q-68 0 -105.5 -33t-48.5 -79l-176 47q31 112 117.5 172.5t212.5 60.5q163 0 255.5 -92t92.5 -219v-320q0 -36 39 -36h27v-156h-113q-60 0 -94.5 32.5t-34.5 88.5v26
h-41q-6 -73 -67 -120.5t-154 -47.5zM305 879q0 -46 35.5 -74.5t91.5 -28.5q96 0 144.5 52t48.5 133v18h-195q-57 0 -91 -25t-34 -75z" />
    <glyph glyph-name="guillemotleft" unicode="&#xab;" horiz-adv-x="1099" 
d="M961 174l-412 287v244l412 286h32v-225l-237 -164v-41l237 -162v-225h-32zM106 461v244l412 286h33v-225l-238 -164v-41l238 -162v-225h-33z" />
    <glyph glyph-name="registered" unicode="&#xae;" horiz-adv-x="1062" 
d="M530 618q-195 0 -324.5 129.5t-129.5 319.5t129 321.5t321 131.5q201 0 332 -130t131 -321q0 -121 -58 -224t-164 -165t-237 -62zM197 1067q0 -144 93.5 -241t239.5 -97q150 0 243 95.5t93 244.5q0 150 -94 243t-246 93q-144 0 -236.5 -95.5t-92.5 -242.5zM358 854v442
h209q67 0 107.5 -33.5t40.5 -82.5q0 -41 -27.5 -64.5t-64.5 -25.5v-35q38 0 64 -25.5t26 -62.5v-113h-115v78q0 59 -70 59h-59v-137h-111zM469 1087h61q31 0 48.5 16.5t17.5 41.5q0 26 -17.5 41.5t-48.5 15.5h-61v-115z" />
    <glyph glyph-name="macron" unicode="&#xaf;" horiz-adv-x="700" 
d="M88 1255v209h524v-209h-524z" />
    <glyph glyph-name="degree" unicode="&#xb0;" horiz-adv-x="849" 
d="M424 717q-143 0 -235.5 91.5t-92.5 225.5q0 135 94 229.5t234 94.5q141 0 235.5 -94t94.5 -228q0 -135 -93 -227t-237 -92zM332 977q27 -39 66.5 -48t82.5 15q43 26 52.5 70t-17.5 82q-25 39 -65.5 47.5t-83.5 -17.5q-42 -24 -52 -67.5t17 -81.5z" />
    <glyph glyph-name="uni00B2" unicode="&#xb2;" horiz-adv-x="743" 
d="M100 623v274l285 178q80 51 80 121q0 38 -29.5 66t-79.5 28q-52 0 -82 -29t-38 -73l-140 57q14 85 83.5 145t176.5 60q131 0 205 -75.5t74 -178.5q0 -149 -164 -244l-213 -127v-41h389v-161h-547z" />
    <glyph glyph-name="uni00B3" unicode="&#xb3;" horiz-adv-x="751" 
d="M360 606q-97 0 -167.5 51.5t-96.5 130.5l140 66q9 -38 43.5 -64t80.5 -26q57 0 92 27.5t35 74.5q0 42 -33 70.5t-87 28.5h-64v147h59q50 0 77.5 25.5t27.5 64.5q0 36 -29 62t-78 26q-51 0 -81 -29.5t-37 -72.5l-144 57q18 90 91.5 147.5t179.5 57.5q124 0 199 -62
t75 -143q0 -59 -35 -98.5t-90 -42.5v-39q59 -19 99 -70.5t40 -128.5q0 -110 -79 -185t-218 -75z" />
    <glyph glyph-name="acute" unicode="&#xb4;" horiz-adv-x="505" 
d="M76 1192v33l123 311h231v-35l-172 -309h-182z" />
    <glyph glyph-name="paragraph" unicode="&#xb6;" horiz-adv-x="1093" 
d="M444 715q-164 0 -266 103.5t-102 256.5q0 149 101.5 254t258.5 105h490v-1526h-197v1317h-92v-1317h-193v807z" />
    <glyph glyph-name="periodcentered" unicode="&#xb7;" horiz-adv-x="552" 
d="M129 498v307h293v-307h-293z" />
    <glyph glyph-name="cedilla" unicode="&#xb8;" horiz-adv-x="557" 
d="M272 -446q-58 0 -108 29t-74 79l113 62q19 -37 61 -37q28 0 49 18.5t21 50.5q0 29 -21 47.5t-49 18.5q-39 0 -59 -33l-125 64l61 188h156l-61 -164h32q19 49 82 49q55 0 95 -50t40 -122q0 -92 -60 -146t-153 -54z" />
    <glyph glyph-name="uni00B9" unicode="&#xb9;" horiz-adv-x="624" 
d="M309 623v626h-41q-7 -80 -61 -127t-131 -47v178q102 0 163.5 52.5t61.5 113.5v15h174v-811h-166z" />
    <glyph glyph-name="ordmasculine" unicode="&#xba;" horiz-adv-x="1075" 
d="M539 614q-188 0 -310.5 120t-122.5 302t123 303t310 121q181 0 305.5 -121.5t124.5 -300.5q0 -181 -125 -302.5t-305 -121.5zM305 1036q0 -109 66.5 -176t167.5 -67q100 0 165.5 67t65.5 178q0 106 -66 175t-165 69q-101 0 -167.5 -69t-66.5 -177z" />
    <glyph glyph-name="guillemotright" unicode="&#xbb;" horiz-adv-x="1099" 
d="M582 174h-33v225l237 162v41l-237 164v225h33l411 -286v-244zM106 174v225l238 162v41l-238 164v225h33l412 -286v-244l-412 -287h-33z" />
    <glyph glyph-name="onequarter" unicode="&#xbc;" horiz-adv-x="1638" 
d="M1323 0v145h-377v248l240 418h168v-35l-250 -432v-41h219v174h166v-174h94v-158h-94v-145h-166zM76 973v178q102 0 163.5 52.5t61.5 113.5v14h174v-811h-166v627h-41q-7 -80 -61 -127t-131 -47zM344 -84v35l774 1464h170v-35l-774 -1464h-170z" />
    <glyph glyph-name="onehalf" unicode="&#xbd;" horiz-adv-x="1708" 
d="M350 -84v35l774 1464h170v-35l-774 -1464h-170zM76 973v178q102 0 163.5 52.5t61.5 113.5v14h174v-811h-166v627h-41q-7 -80 -61 -127t-131 -47zM1061 623q14 85 83.5 144.5t176.5 59.5q131 0 204.5 -75.5t73.5 -178.5q0 -149 -163 -243l-213 -127v-41h389v-162h-547v274
l285 179q80 51 80 120q0 38 -29.5 66.5t-79.5 28.5q-52 0 -82.5 -29.5t-38.5 -73.5z" />
    <glyph glyph-name="threequarters" unicode="&#xbe;" horiz-adv-x="1720" 
d="M426 -84v35l774 1464h172v-35l-774 -1464h-172zM96 686l140 66q9 -38 43.5 -64t80.5 -26q57 0 92 27.5t35 74.5q0 42 -33 70t-87 28h-64v148h59q50 0 77.5 25.5t27.5 64.5q0 36 -29 62t-78 26q-51 0 -81 -30t-37 -73l-144 58q18 90 91.5 147.5t179.5 57.5q124 0 199 -62
t75 -143q0 -59 -35 -99t-90 -43v-38q59 -19 99 -70.5t40 -128.5q0 -110 -79 -185t-218 -75q-97 0 -167.5 51.5t-96.5 130.5zM1028 145v248l240 418h168v-35l-250 -432v-41h219v174h166v-174h94v-158h-94v-145h-166v145h-377z" />
    <glyph glyph-name="questiondown" unicode="&#xbf;" horiz-adv-x="1097" 
d="M698 535q0 -89 -32.5 -149t-87.5 -110l-129 -112q-49 -43 -72 -79t-23 -93q0 -75 55.5 -125.5t145.5 -50.5q88 0 144.5 52.5t56.5 135.5q0 41 -19 88l31 14l219 -59q8 -40 8 -65q0 -174 -125 -286t-315 -112q-108 0 -196.5 34t-145 91.5t-87 130.5t-30.5 152
q0 100 44 172t122 139l109 92q39 36 58.5 67.5t19.5 80.5v55h249v-63zM430 737v307h293v-307h-293z" />
    <glyph glyph-name="Agrave" unicode="&#xc0;" horiz-adv-x="1378" 
d="M25 0v35l442 1399h444l443 -1399v-35h-269l-92 295h-608l-92 -295h-268zM457 1827v35h231l123 -312v-32h-182zM461 545h454l-206 657h-43z" />
    <glyph glyph-name="Aacute" unicode="&#xc1;" horiz-adv-x="1378" 
d="M25 0v35l442 1399h444l443 -1399v-35h-269l-92 295h-608l-92 -295h-268zM461 545h454l-206 657h-43zM588 1518v32l123 312h231v-35l-172 -309h-182z" />
    <glyph glyph-name="Acircumflex" unicode="&#xc2;" horiz-adv-x="1378" 
d="M25 0v35l442 1399h444l443 -1399v-35h-269l-92 295h-608l-92 -295h-268zM391 1518v32l176 310h258l176 -310v-32h-157l-131 153h-33l-129 -153h-160zM461 545h454l-206 657h-43z" />
    <glyph glyph-name="Atilde" unicode="&#xc3;" horiz-adv-x="1378" 
d="M25 0v35l442 1399h444l443 -1399v-35h-269l-92 295h-608l-92 -295h-268zM348 1589q3 109 61.5 169.5t141.5 60.5q60 0 135 -43l51 -31q52 -29 72 -29q34 0 53 25.5t19 68.5h34l113 -53q0 -106 -58.5 -167.5t-140.5 -61.5q-66 0 -133 43l-49 31q-46 28 -76 28
q-34 0 -54.5 -25.5t-20.5 -68.5h-35zM461 545h454l-206 657h-43z" />
    <glyph glyph-name="Adieresis" unicode="&#xc4;" horiz-adv-x="1378" 
d="M25 0v35l442 1399h444l443 -1399v-35h-269l-92 295h-608l-92 -295h-268zM371 1571v270h252v-270h-252zM461 545h454l-206 657h-43zM764 1571v270h252v-270h-252z" />
    <glyph glyph-name="Aring" unicode="&#xc5;" horiz-adv-x="1378" 
d="M25 0v35l442 1399h444l443 -1399v-35h-269l-92 295h-608l-92 -295h-268zM461 545h454l-206 657h-43zM471 1716q0 95 64 158t161 63q101 0 165.5 -62.5t64.5 -156.5q0 -95 -65 -159t-163 -64t-162.5 63.5t-64.5 157.5zM612 1716q0 -36 24.5 -62t61.5 -26q38 0 62 26t24 64
q0 35 -24.5 60.5t-63.5 25.5q-36 0 -60 -26t-24 -62z" />
    <glyph glyph-name="AE" unicode="&#xc6;" horiz-adv-x="1865" 
d="M25 0v35l446 1399h1280v-246h-766l109 -338h587v-240h-514l119 -364h488v-246h-689l-94 295h-604l-94 -295h-268zM463 545h450l-208 657h-35z" />
    <glyph glyph-name="Ccedilla" unicode="&#xc7;" horiz-adv-x="1585" 
d="M850 -446q-58 0 -108 29t-74 79l112 62q19 -37 62 -37q28 0 48.5 18.5t20.5 50.5q0 29 -20.5 47.5t-48.5 18.5q-40 0 -60 -33l-125 64l43 129q-279 40 -451.5 243.5t-172.5 491.5q0 208 94.5 377.5t266 267.5t386.5 98q235 0 404 -108.5t254 -292.5l-240 -125
q-47 123 -158 196.5t-260 73.5q-201 0 -337 -136.5t-136 -350.5q0 -216 135.5 -352t337.5 -136q156 0 278.5 87.5t164.5 238.5l243 -115q-70 -201 -245 -330.5t-414 -136.5l-37 -96h33q19 49 82 49q55 0 95 -50t40 -122q0 -92 -60 -146t-153 -54z" />
    <glyph glyph-name="Egrave" unicode="&#xc8;" 
d="M168 0v1434h891v-246h-627v-338h557v-240h-557v-364h649v-246h-913zM401 1827v35h232l123 -312v-32h-183z" />
    <glyph glyph-name="Eacute" unicode="&#xc9;" 
d="M168 0v1434h891v-246h-627v-338h557v-240h-557v-364h649v-246h-913zM532 1518v32l123 312h232v-35l-172 -309h-183z" />
    <glyph glyph-name="Ecircumflex" unicode="&#xca;" 
d="M168 0v1434h891v-246h-627v-338h557v-240h-557v-364h649v-246h-913zM336 1518v32l176 310h258l176 -310v-32h-158l-131 153h-32l-129 -153h-160z" />
    <glyph glyph-name="Edieresis" unicode="&#xcb;" 
d="M168 0v1434h891v-246h-627v-338h557v-240h-557v-364h649v-246h-913zM313 1571v270h252v-270h-252zM707 1571v270h251v-270h-251z" />
    <glyph glyph-name="Igrave" unicode="&#xcc;" horiz-adv-x="1073" 
d="M129 0v248h274v940h-274v246h815v-246h-274v-940h274v-248h-815zM309 1827v35h232l123 -312v-32h-183z" />
    <glyph glyph-name="Iacute" unicode="&#xcd;" horiz-adv-x="1073" 
d="M129 0v248h274v940h-274v246h815v-246h-274v-940h274v-248h-815zM440 1518v32l123 312h232v-35l-172 -309h-183z" />
    <glyph glyph-name="Icircumflex" unicode="&#xce;" horiz-adv-x="1073" 
d="M129 0v248h274v940h-274v246h815v-246h-274v-940h274v-248h-815zM244 1518v32l176 310h258l176 -310v-32h-158l-131 153h-33l-129 -153h-159z" />
    <glyph glyph-name="Idieresis" unicode="&#xcf;" horiz-adv-x="1073" 
d="M129 0v248h274v940h-274v246h815v-246h-274v-940h274v-248h-815zM221 1571v270h252v-270h-252zM614 1571v270h252v-270h-252z" />
    <glyph glyph-name="Eth" unicode="&#xd0;" horiz-adv-x="1566" 
d="M129 614v220h154v360h-144v240h627q161 0 298 -57t230 -154t145 -228t52 -278q0 -210 -89 -372.5t-254 -253.5t-382 -91h-627v240h144v374h-154zM549 244h188q219 0 349.5 124t130.5 349q0 217 -131.5 345t-348.5 128h-188v-356h319v-220h-319v-370z" />
    <glyph glyph-name="Ntilde" unicode="&#xd1;" horiz-adv-x="1525" 
d="M168 0v1434h494l403 -1203h35v1203h260v-1434h-498l-399 1202h-37v-1202h-258zM461 1589q3 109 61.5 169.5t141.5 60.5q60 0 135 -43l51 -31q52 -29 72 -29q33 0 52 25.5t19 68.5h35l113 -53q0 -106 -58.5 -167.5t-140.5 -61.5q-66 0 -133 43l-49 31q-46 28 -76 28
q-34 0 -55 -25.5t-21 -68.5h-35z" />
    <glyph glyph-name="Ograve" unicode="&#xd2;" horiz-adv-x="1648" 
d="M821 -27q-213 0 -384 97t-266 267t-95 380q0 156 56 293t154 236t237.5 156.5t299.5 57.5q161 0 301.5 -58t238.5 -157.5t154 -236.5t56 -291q0 -208 -96 -378t-268.5 -268t-387.5 -98zM350 717q0 -216 136.5 -352t336.5 -136q131 0 239 60t172 172.5t64 255.5
q0 213 -137.5 350t-337.5 137t-336.5 -137t-136.5 -350zM590 1827v35h231l123 -312v-32h-182z" />
    <glyph glyph-name="Oacute" unicode="&#xd3;" horiz-adv-x="1648" 
d="M821 -27q-213 0 -384 97t-266 267t-95 380q0 156 56 293t154 236t237.5 156.5t299.5 57.5q161 0 301.5 -58t238.5 -157.5t154 -236.5t56 -291q0 -208 -96 -378t-268.5 -268t-387.5 -98zM350 717q0 -216 136.5 -352t336.5 -136q131 0 239 60t172 172.5t64 255.5
q0 213 -137.5 350t-337.5 137t-336.5 -137t-136.5 -350zM721 1518v32l123 312h231v-35l-172 -309h-182z" />
    <glyph glyph-name="Ocircumflex" unicode="&#xd4;" horiz-adv-x="1648" 
d="M821 -27q-213 0 -384 97t-266 267t-95 380q0 156 56 293t154 236t237.5 156.5t299.5 57.5q161 0 301.5 -58t238.5 -157.5t154 -236.5t56 -291q0 -208 -96 -378t-268.5 -268t-387.5 -98zM350 717q0 -216 136.5 -352t336.5 -136q131 0 239 60t172 172.5t64 255.5
q0 213 -137.5 350t-337.5 137t-336.5 -137t-136.5 -350zM524 1518v32l176 310h258l177 -310v-32h-158l-131 153h-33l-129 -153h-160z" />
    <glyph glyph-name="Otilde" unicode="&#xd5;" horiz-adv-x="1648" 
d="M821 -27q-213 0 -384 97t-266 267t-95 380q0 156 56 293t154 236t237.5 156.5t299.5 57.5q161 0 301.5 -58t238.5 -157.5t154 -236.5t56 -291q0 -208 -96 -378t-268.5 -268t-387.5 -98zM350 717q0 -216 136.5 -352t336.5 -136q131 0 239 60t172 172.5t64 255.5
q0 213 -137.5 350t-337.5 137t-336.5 -137t-136.5 -350zM481 1589q3 109 61.5 169.5t141.5 60.5q60 0 135 -43l51 -31q52 -29 72 -29q34 0 53 25.5t19 68.5h35l112 -53q0 -106 -58 -167.5t-140 -61.5q-67 0 -134 43l-49 31q-46 28 -75 28q-34 0 -55 -25.5t-21 -68.5h-35z
" />
    <glyph glyph-name="Odieresis" unicode="&#xd6;" horiz-adv-x="1648" 
d="M821 -27q-213 0 -384 97t-266 267t-95 380q0 156 56 293t154 236t237.5 156.5t299.5 57.5q161 0 301.5 -58t238.5 -157.5t154 -236.5t56 -291q0 -208 -96 -378t-268.5 -268t-387.5 -98zM350 717q0 -216 136.5 -352t336.5 -136q131 0 239 60t172 172.5t64 255.5
q0 213 -137.5 350t-337.5 137t-336.5 -137t-136.5 -350zM504 1571v270h252v-270h-252zM897 1571v270h252v-270h-252z" />
    <glyph glyph-name="multiply" unicode="&#xd7;" horiz-adv-x="800" 
d="M141 244l-131 129l262 264l-262 260l131 129l260 -260l258 260l132 -129l-263 -260l263 -264l-132 -129l-258 262z" />
    <glyph glyph-name="Oslash" unicode="&#xd8;" horiz-adv-x="1648" 
d="M430 -102h-240v34l140 213q-121 102 -187.5 250.5t-66.5 321.5q0 156 56 293t154 236t237.5 156.5t299.5 57.5q174 0 318 -63l76 116h239v-34l-129 -201q117 -102 181.5 -248t64.5 -313q0 -208 -96 -378t-268.5 -268t-387.5 -98q-165 0 -303 60zM350 717q0 -205 127 -342
l518 799q-79 30 -172 30q-200 0 -336.5 -137t-136.5 -350zM662 256q76 -27 161 -27q131 0 239 60t172 172.5t64 255.5q0 199 -120 332z" />
    <glyph glyph-name="Ugrave" unicode="&#xd9;" horiz-adv-x="1431" 
d="M719 -27q-255 0 -413.5 155.5t-158.5 395.5v910h269v-908q0 -140 78 -222.5t225 -82.5q139 0 223 84.5t84 222.5v906h264v-908q0 -157 -71 -283t-202 -198t-298 -72zM471 1827v35h231l123 -312v-32h-182z" />
    <glyph glyph-name="Uacute" unicode="&#xda;" horiz-adv-x="1431" 
d="M719 -27q-255 0 -413.5 155.5t-158.5 395.5v910h269v-908q0 -140 78 -222.5t225 -82.5q139 0 223 84.5t84 222.5v906h264v-908q0 -157 -71 -283t-202 -198t-298 -72zM602 1518v32l123 312h231v-35l-172 -309h-182z" />
    <glyph glyph-name="Ucircumflex" unicode="&#xdb;" horiz-adv-x="1431" 
d="M719 -27q-255 0 -413.5 155.5t-158.5 395.5v910h269v-908q0 -140 78 -222.5t225 -82.5q139 0 223 84.5t84 222.5v906h264v-908q0 -157 -71 -283t-202 -198t-298 -72zM406 1518v32l176 310h258l176 -310v-32h-158l-131 153h-33l-129 -153h-159z" />
    <glyph glyph-name="Udieresis" unicode="&#xdc;" horiz-adv-x="1431" 
d="M719 -27q-255 0 -413.5 155.5t-158.5 395.5v910h269v-908q0 -140 78 -222.5t225 -82.5q139 0 223 84.5t84 222.5v906h264v-908q0 -157 -71 -283t-202 -198t-298 -72zM383 1571v270h252v-270h-252zM776 1571v270h252v-270h-252z" />
    <glyph glyph-name="Yacute" unicode="&#xdd;" horiz-adv-x="1357" 
d="M545 0v565h-49l-465 834v35h282l344 -639h43l336 639h291v-35l-471 -834h-45v-565h-266zM567 1518v32l123 312h232v-35l-172 -309h-183z" />
    <glyph glyph-name="Thorn" unicode="&#xde;" horiz-adv-x="1239" 
d="M168 0v1434h264v-179h287q209 0 342 -131t133 -329q0 -195 -134.5 -330t-340.5 -135h-287v-330h-264zM432 575h270q97 0 160.5 62.5t63.5 157.5q0 94 -63.5 154.5t-160.5 60.5h-270v-435z" />
    <glyph glyph-name="germandbls" unicode="&#xdf;" horiz-adv-x="1257" 
d="M705 -27q-93 0 -179 27v246q94 -27 162 -27q110 0 181 64t71 168q0 97 -67 161t-175 64h-102v244h18q93 0 148 53t55 135q0 78 -54.5 132t-150.5 54q-98 0 -159.5 -60.5t-61.5 -164.5v-1069h-254v1069q0 142 64.5 250t171.5 162.5t239 54.5q211 0 338 -105t127 -253
q0 -114 -73 -184.5t-173 -75.5v-41q161 -18 266 -134t105 -292q0 -219 -134.5 -348.5t-362.5 -129.5z" />
    <glyph glyph-name="agrave" unicode="&#xe0;" horiz-adv-x="1155" 
d="M453 -27q-157 0 -262 94t-105 248q0 149 106.5 240.5t286.5 91.5h299v27q0 86 -58 141t-153 55q-90 0 -142.5 -46t-64.5 -107l-227 63q40 146 154.5 226.5t279.5 80.5q110 0 200 -35t145.5 -93.5t85.5 -131.5t30 -153v-420q0 -49 53 -49h33v-205h-149q-77 0 -121.5 44
t-44.5 116v47h-41q-15 -109 -96.5 -171.5t-208.5 -62.5zM338 1495v35h231l123 -311v-33h-182zM344 322q0 -61 48.5 -100.5t123.5 -39.5q129 0 195.5 70.5t66.5 177.5v27h-266q-77 0 -122.5 -34t-45.5 -101z" />
    <glyph glyph-name="aacute" unicode="&#xe1;" horiz-adv-x="1155" 
d="M453 -27q-157 0 -262 94t-105 248q0 149 106.5 240.5t286.5 91.5h299v27q0 86 -58 141t-153 55q-90 0 -142.5 -46t-64.5 -107l-227 63q40 146 154.5 226.5t279.5 80.5q110 0 200 -35t145.5 -93.5t85.5 -131.5t30 -153v-420q0 -49 53 -49h33v-205h-149q-77 0 -121.5 44
t-44.5 116v47h-41q-15 -109 -96.5 -171.5t-208.5 -62.5zM344 322q0 -61 48.5 -100.5t123.5 -39.5q129 0 195.5 70.5t66.5 177.5v27h-266q-77 0 -122.5 -34t-45.5 -101zM469 1186v33l123 311h231v-35l-172 -309h-182z" />
    <glyph glyph-name="acircumflex" unicode="&#xe2;" horiz-adv-x="1155" 
d="M453 -27q-157 0 -262 94t-105 248q0 149 106.5 240.5t286.5 91.5h299v27q0 86 -58 141t-153 55q-90 0 -142.5 -46t-64.5 -107l-227 63q40 146 154.5 226.5t279.5 80.5q110 0 200 -35t145.5 -93.5t85.5 -131.5t30 -153v-420q0 -49 53 -49h33v-205h-149q-77 0 -121.5 44
t-44.5 116v47h-41q-15 -109 -96.5 -171.5t-208.5 -62.5zM272 1186v33l177 309h258l176 -309v-33h-158l-131 153h-33l-129 -153h-160zM344 322q0 -61 48.5 -100.5t123.5 -39.5q129 0 195.5 70.5t66.5 177.5v27h-266q-77 0 -122.5 -34t-45.5 -101z" />
    <glyph glyph-name="atilde" unicode="&#xe3;" horiz-adv-x="1155" 
d="M453 -27q-157 0 -262 94t-105 248q0 149 106.5 240.5t286.5 91.5h299v27q0 86 -58 141t-153 55q-90 0 -142.5 -46t-64.5 -107l-227 63q40 146 154.5 226.5t279.5 80.5q110 0 200 -35t145.5 -93.5t85.5 -131.5t30 -153v-420q0 -49 53 -49h33v-205h-149q-77 0 -121.5 44
t-44.5 116v47h-41q-15 -109 -96.5 -171.5t-208.5 -62.5zM229 1257q3 109 61.5 169.5t141.5 60.5q60 0 135 -43l51 -31q52 -29 72 -29q33 0 52.5 26t19.5 69h35l112 -54q0 -106 -58 -167.5t-140 -61.5q-66 0 -133 43l-50 31q-46 28 -75 28q-34 0 -55 -25.5t-21 -68.5h-35z
M344 322q0 -61 48.5 -100.5t123.5 -39.5q129 0 195.5 70.5t66.5 177.5v27h-266q-77 0 -122.5 -34t-45.5 -101z" />
    <glyph glyph-name="adieresis" unicode="&#xe4;" horiz-adv-x="1155" 
d="M453 -27q-157 0 -262 94t-105 248q0 149 106.5 240.5t286.5 91.5h299v27q0 86 -58 141t-153 55q-90 0 -142.5 -46t-64.5 -107l-227 63q40 146 154.5 226.5t279.5 80.5q110 0 200 -35t145.5 -93.5t85.5 -131.5t30 -153v-420q0 -49 53 -49h33v-205h-149q-77 0 -121.5 44
t-44.5 116v47h-41q-15 -109 -96.5 -171.5t-208.5 -62.5zM250 1239v270h252v-270h-252zM344 322q0 -61 48.5 -100.5t123.5 -39.5q129 0 195.5 70.5t66.5 177.5v27h-266q-77 0 -122.5 -34t-45.5 -101zM643 1239v270h252v-270h-252z" />
    <glyph glyph-name="aring" unicode="&#xe5;" horiz-adv-x="1155" 
d="M453 -27q-157 0 -262 94t-105 248q0 149 106.5 240.5t286.5 91.5h299v27q0 86 -58 141t-153 55q-90 0 -142.5 -46t-64.5 -107l-227 63q40 146 154.5 226.5t279.5 80.5q110 0 200 -35t145.5 -93.5t85.5 -131.5t30 -153v-420q0 -49 53 -49h33v-205h-149q-77 0 -121.5 44
t-44.5 116v47h-41q-15 -109 -96.5 -171.5t-208.5 -62.5zM344 322q0 -61 48.5 -100.5t123.5 -39.5q129 0 195.5 70.5t66.5 177.5v27h-266q-77 0 -122.5 -34t-45.5 -101zM352 1384q0 95 64.5 158.5t161.5 63.5q100 0 164.5 -62.5t64.5 -157.5q0 -96 -64.5 -159.5t-162.5 -63.5
t-163 63.5t-65 157.5zM494 1384q0 -36 24.5 -62t61.5 -26q38 0 62 26t24 64q0 35 -25 61t-63 26q-36 0 -60 -26.5t-24 -62.5z" />
    <glyph glyph-name="ae" unicode="&#xe6;" horiz-adv-x="1880" 
d="M1321 -27q-149 0 -259.5 79.5t-139.5 215.5h-41q-31 -141 -136 -218t-272 -77q-164 0 -275.5 94.5t-111.5 247.5q0 149 106.5 240.5t286.5 91.5h299v27q0 86 -58 141t-153 55q-91 0 -143 -45.5t-64 -107.5l-227 63q27 139 135 223t271 84q84 0 160 -29.5t133.5 -94
t70.5 -154.5h41q41 129 149 203.5t250 74.5q113 0 206.5 -42.5t153.5 -114t92 -164t30 -193.5v-129h-795q22 -118 98.5 -182.5t192.5 -64.5q83 0 152.5 37.5t103.5 93.5l188 -127q-69 -106 -181 -167t-263 -61zM344 322q0 -61 48.5 -100.5t123.5 -39.5q129 0 195.5 70.5
t66.5 177.5v27h-266q-77 0 -122.5 -34t-45.5 -101zM1036 651h541q-3 92 -76.5 159t-183.5 67q-106 0 -181 -60t-100 -166z" />
    <glyph glyph-name="ccedilla" unicode="&#xe7;" horiz-adv-x="1183" 
d="M645 -446q-58 0 -108 29t-74 79l112 62q19 -37 62 -37q28 0 49 18.5t21 50.5q0 29 -21 47.5t-49 18.5q-39 0 -59 -33l-125 64l43 133q-199 37 -320 185.5t-121 358.5q0 240 159 398.5t404 158.5q180 0 311 -84t191 -237l-221 -115q-28 90 -104 146.5t-177 56.5
q-131 0 -217 -91t-86 -233q0 -147 85.5 -235t217.5 -88q100 0 178 54t109 153l225 -107q-56 -152 -185.5 -240t-299.5 -94l-37 -96h33q19 49 82 49q55 0 95 -50t40 -122q0 -92 -60 -146t-153 -54z" />
    <glyph glyph-name="egrave" unicode="&#xe8;" horiz-adv-x="1159" 
d="M602 -27q-237 0 -392 156.5t-155 405.5q0 240 151.5 396t389.5 156q154 0 273 -73t179 -189.5t58 -251.5l-2 -129h-797q21 -119 99.5 -183t195.5 -64q82 0 151.5 37.5t104.5 93.5l186 -127q-69 -106 -181 -167t-261 -61zM313 651h545q-5 91 -79 158.5t-183 67.5
q-108 0 -182 -60.5t-101 -165.5zM344 1479v34h231l123 -311v-33h-182z" />
    <glyph glyph-name="eacute" unicode="&#xe9;" horiz-adv-x="1159" 
d="M602 -27q-237 0 -392 156.5t-155 405.5q0 240 151.5 396t389.5 156q154 0 273 -73t179 -189.5t58 -251.5l-2 -129h-797q21 -119 99.5 -183t195.5 -64q82 0 151.5 37.5t104.5 93.5l186 -127q-69 -106 -181 -167t-261 -61zM313 651h545q-5 91 -79 158.5t-183 67.5
q-108 0 -182 -60.5t-101 -165.5zM475 1169v33l123 311h231v-34l-172 -310h-182z" />
    <glyph glyph-name="ecircumflex" unicode="&#xea;" horiz-adv-x="1159" 
d="M602 -27q-237 0 -392 156.5t-155 405.5q0 240 151.5 396t389.5 156q154 0 273 -73t179 -189.5t58 -251.5l-2 -129h-797q21 -119 99.5 -183t195.5 -64q82 0 151.5 37.5t104.5 93.5l186 -127q-69 -106 -181 -167t-261 -61zM279 1169v33l176 309h258l176 -309v-33h-158
l-131 154h-33l-129 -154h-159zM313 651h545q-5 91 -79 158.5t-183 67.5q-108 0 -182 -60.5t-101 -165.5z" />
    <glyph glyph-name="edieresis" unicode="&#xeb;" horiz-adv-x="1159" 
d="M602 -27q-237 0 -392 156.5t-155 405.5q0 240 151.5 396t389.5 156q154 0 273 -73t179 -189.5t58 -251.5l-2 -129h-797q21 -119 99.5 -183t195.5 -64q82 0 151.5 37.5t104.5 93.5l186 -127q-69 -106 -181 -167t-261 -61zM256 1223v270h252v-270h-252zM313 651h545
q-5 91 -79 158.5t-183 67.5q-108 0 -182 -60.5t-101 -165.5zM649 1223v270h252v-270h-252z" />
    <glyph glyph-name="igrave" unicode="&#xec;" horiz-adv-x="516" 
d="M137 0v1061h256v-1061h-256zM20 1495v35h232l123 -311v-33h-182z" />
    <glyph glyph-name="iacute" unicode="&#xed;" horiz-adv-x="516" 
d="M137 0v1061h256v-1061h-256zM152 1186v33l122 311h232v-35l-172 -309h-182z" />
    <glyph glyph-name="icircumflex" unicode="&#xee;" horiz-adv-x="516" 
d="M137 0v1061h256v-1061h-256zM-45 1186v33l176 309h258l176 -309v-33h-157l-132 153h-32l-129 -153h-160z" />
    <glyph glyph-name="idieresis" unicode="&#xef;" horiz-adv-x="516" 
d="M137 0v1061h256v-1061h-256zM-68 1239v270h252v-270h-252zM326 1239v270h252v-270h-252z" />
    <glyph glyph-name="eth" unicode="&#xf0;" horiz-adv-x="1218" 
d="M598 -27q-237 0 -390 153.5t-153 387.5q0 123 40.5 224t107.5 163t147.5 95.5t165.5 33.5q83 0 149.5 -33t106.5 -94h41q-31 117 -199 293l-352 -111v166l215 68q-117 97 -266 182v35h268q113 -61 223 -145l302 94v-168l-160 -49q321 -321 321 -742q0 -243 -153.5 -398
t-413.5 -155zM313 514q0 -136 85.5 -222.5t209.5 -86.5q131 0 214 86.5t83 222.5q0 134 -84 217.5t-209 83.5q-128 0 -213.5 -84.5t-85.5 -216.5z" />
    <glyph glyph-name="ntilde" unicode="&#xf1;" horiz-adv-x="1206" 
d="M137 0v1061h256v-203h41q25 97 104.5 163t192.5 66q86 0 154.5 -30t111 -82t64.5 -117.5t22 -140.5v-717h-256v627q0 94 -60.5 154.5t-152.5 60.5q-99 0 -160 -64t-61 -162v-616h-256zM291 1257q3 109 61.5 169.5t141.5 60.5q60 0 135 -43l51 -31q52 -29 72 -29
q33 0 52 26t19 69h35l113 -54q0 -106 -58.5 -167.5t-140.5 -61.5q-66 0 -133 43l-49 31q-46 28 -76 28q-34 0 -55 -25.5t-21 -68.5h-35z" />
    <glyph glyph-name="ograve" unicode="&#xf2;" horiz-adv-x="1249" 
d="M625 -27q-163 0 -293 71t-203.5 198.5t-73.5 287.5q0 242 161.5 399.5t408.5 157.5q156 0 286 -71.5t206.5 -199.5t76.5 -286q0 -159 -76.5 -287t-206.5 -199t-286 -71zM315 530q0 -146 88 -234.5t222 -88.5q133 0 221 88.5t88 234.5q0 141 -88.5 232.5t-220.5 91.5
t-221 -91.5t-89 -232.5zM383 1495v35h231l123 -311v-33h-182z" />
    <glyph glyph-name="oacute" unicode="&#xf3;" horiz-adv-x="1249" 
d="M625 -27q-163 0 -293 71t-203.5 198.5t-73.5 287.5q0 242 161.5 399.5t408.5 157.5q156 0 286 -71.5t206.5 -199.5t76.5 -286q0 -159 -76.5 -287t-206.5 -199t-286 -71zM315 530q0 -146 88 -234.5t222 -88.5q133 0 221 88.5t88 234.5q0 141 -88.5 232.5t-220.5 91.5
t-221 -91.5t-89 -232.5zM514 1186v33l123 311h231v-35l-172 -309h-182z" />
    <glyph glyph-name="ocircumflex" unicode="&#xf4;" horiz-adv-x="1249" 
d="M625 -27q-163 0 -293 71t-203.5 198.5t-73.5 287.5q0 242 161.5 399.5t408.5 157.5q156 0 286 -71.5t206.5 -199.5t76.5 -286q0 -159 -76.5 -287t-206.5 -199t-286 -71zM315 530q0 -146 88 -234.5t222 -88.5q133 0 221 88.5t88 234.5q0 141 -88.5 232.5t-220.5 91.5
t-221 -91.5t-89 -232.5zM317 1186v33l177 309h258l176 -309v-33h-158l-131 153h-33l-129 -153h-160z" />
    <glyph glyph-name="otilde" unicode="&#xf5;" horiz-adv-x="1249" 
d="M625 -27q-163 0 -293 71t-203.5 198.5t-73.5 287.5q0 242 161.5 399.5t408.5 157.5q156 0 286 -71.5t206.5 -199.5t76.5 -286q0 -159 -76.5 -287t-206.5 -199t-286 -71zM274 1257q3 109 61.5 169.5t141.5 60.5q60 0 135 -43l52 -31q52 -29 71 -29q33 0 52.5 26t19.5 69
h35l112 -54q0 -106 -58 -167.5t-140 -61.5q-66 0 -133 43l-50 31q-46 28 -75 28q-34 0 -55 -25.5t-21 -68.5h-35zM315 530q0 -146 88 -234.5t222 -88.5q133 0 221 88.5t88 234.5q0 141 -88.5 232.5t-220.5 91.5t-221 -91.5t-89 -232.5z" />
    <glyph glyph-name="odieresis" unicode="&#xf6;" horiz-adv-x="1249" 
d="M625 -27q-163 0 -293 71t-203.5 198.5t-73.5 287.5q0 242 161.5 399.5t408.5 157.5q156 0 286 -71.5t206.5 -199.5t76.5 -286q0 -159 -76.5 -287t-206.5 -199t-286 -71zM295 1239v270h252v-270h-252zM315 530q0 -146 88 -234.5t222 -88.5q133 0 221 88.5t88 234.5
q0 141 -88.5 232.5t-220.5 91.5t-221 -91.5t-89 -232.5zM688 1239v270h252v-270h-252z" />
    <glyph glyph-name="divide" unicode="&#xf7;" horiz-adv-x="901" 
d="M10 543v190h881v-190h-881zM322 322q0 54 37.5 91.5t91.5 37.5t90.5 -37.5t36.5 -91.5q0 -53 -36.5 -90t-90.5 -37t-91.5 37t-37.5 90zM322 952q0 54 37.5 91.5t91.5 37.5t90.5 -37.5t36.5 -91.5t-36.5 -90.5t-90.5 -36.5t-91.5 36.5t-37.5 90.5z" />
    <glyph glyph-name="oslash" unicode="&#xf8;" horiz-adv-x="1249" 
d="M356 -123h-209v35l109 184q-95 75 -148 187t-53 247q0 242 161.5 399.5t408.5 157.5q98 0 196 -32l72 123h209v-35l-109 -185q94 -75 147.5 -186t53.5 -242q0 -159 -76.5 -287t-206.5 -199t-286 -71q-100 0 -195 29zM315 530q0 -125 70 -215l313 531q-33 8 -73 8
q-132 0 -221 -91.5t-89 -232.5zM555 213q34 -6 70 -6q133 0 221 88.5t88 234.5q0 121 -70 211z" />
    <glyph glyph-name="ugrave" unicode="&#xf9;" horiz-adv-x="1177" 
d="M469 -27q-86 0 -154.5 30.5t-111 82.5t-64.5 117.5t-22 140.5v717h256v-627q0 -96 59 -155.5t152 -59.5q99 0 161 63.5t62 161.5v617h256v-1061h-256v203h-41q-27 -101 -105.5 -165.5t-191.5 -64.5zM350 1495v35h232l123 -311v-33h-183z" />
    <glyph glyph-name="uacute" unicode="&#xfa;" horiz-adv-x="1177" 
d="M469 -27q-86 0 -154.5 30.5t-111 82.5t-64.5 117.5t-22 140.5v717h256v-627q0 -96 59 -155.5t152 -59.5q99 0 161 63.5t62 161.5v617h256v-1061h-256v203h-41q-27 -101 -105.5 -165.5t-191.5 -64.5zM481 1186v33l123 311h232v-35l-172 -309h-183z" />
    <glyph glyph-name="ucircumflex" unicode="&#xfb;" horiz-adv-x="1177" 
d="M469 -27q-86 0 -154.5 30.5t-111 82.5t-64.5 117.5t-22 140.5v717h256v-627q0 -96 59 -155.5t152 -59.5q99 0 161 63.5t62 161.5v617h256v-1061h-256v203h-41q-27 -101 -105.5 -165.5t-191.5 -64.5zM285 1186v33l176 309h258l176 -309v-33h-158l-131 153h-33l-129 -153
h-159z" />
    <glyph glyph-name="udieresis" unicode="&#xfc;" horiz-adv-x="1177" 
d="M469 -27q-86 0 -154.5 30.5t-111 82.5t-64.5 117.5t-22 140.5v717h256v-627q0 -96 59 -155.5t152 -59.5q99 0 161 63.5t62 161.5v617h256v-1061h-256v203h-41q-27 -101 -105.5 -165.5t-191.5 -64.5zM262 1239v270h252v-270h-252zM655 1239v270h252v-270h-252z" />
    <glyph glyph-name="yacute" unicode="&#xfd;" horiz-adv-x="1187" 
d="M379 0l-348 1026v35h262l272 -830h43l281 830h268v-35l-366 -1026l-152 -430h-279v35l144 395h-125zM487 1169v33l123 311h232v-34l-172 -310h-183z" />
    <glyph glyph-name="thorn" unicode="&#xfe;" horiz-adv-x="1292" 
d="M137 -430v1966h254v-678h43q30 106 120 167.5t208 61.5q141 0 250 -73.5t167 -200t58 -283.5t-58 -283.5t-167 -200t-250 -73.5q-123 0 -209.5 61t-120.5 169h-41v-633h-254zM381 530q0 -146 86 -234.5t211 -88.5q128 0 213.5 90t85.5 233q0 145 -85.5 234.5t-213.5 89.5
q-126 0 -211.5 -92.5t-85.5 -231.5z" />
    <glyph glyph-name="ydieresis" unicode="&#xff;" horiz-adv-x="1187" 
d="M379 0l-348 1026v35h262l272 -830h43l281 830h268v-35l-366 -1026l-152 -430h-279v35l144 395h-125zM270 1223v270h252v-270h-252zM664 1223v270h251v-270h-251z" />
    <glyph glyph-name="Amacron" unicode="&#x100;" horiz-adv-x="1378" 
d="M25 0v35l442 1399h444l443 -1399v-35h-269l-92 295h-608l-92 -295h-268zM436 1581v209h525v-209h-525zM461 545h454l-206 657h-43z" />
    <glyph glyph-name="amacron" unicode="&#x101;" horiz-adv-x="1155" 
d="M453 -27q-157 0 -262 94t-105 248q0 149 106.5 240.5t286.5 91.5h299v27q0 86 -58 141t-153 55q-90 0 -142.5 -46t-64.5 -107l-227 63q40 146 154.5 226.5t279.5 80.5q110 0 200 -35t145.5 -93.5t85.5 -131.5t30 -153v-420q0 -49 53 -49h33v-205h-149q-77 0 -121.5 44
t-44.5 116v47h-41q-15 -109 -96.5 -171.5t-208.5 -62.5zM317 1249v209h525v-209h-525zM344 322q0 -61 48.5 -100.5t123.5 -39.5q129 0 195.5 70.5t66.5 177.5v27h-266q-77 0 -122.5 -34t-45.5 -101z" />
    <glyph glyph-name="Abreve" unicode="&#x102;" horiz-adv-x="1378" 
d="M25 0v35l442 1399h444l443 -1399v-35h-269l-92 295h-608l-92 -295h-268zM401 1798v43h174v-33q0 -53 30 -84.5t93 -31.5q62 0 92.5 32t30.5 84v33h174v-43q0 -129 -81 -202.5t-216 -73.5q-136 0 -216.5 73.5t-80.5 202.5zM461 545h454l-206 657h-43z" />
    <glyph glyph-name="abreve" unicode="&#x103;" horiz-adv-x="1155" 
d="M453 -27q-157 0 -262 94t-105 248q0 149 106.5 240.5t286.5 91.5h299v27q0 86 -58 141t-153 55q-90 0 -142.5 -46t-64.5 -107l-227 63q40 146 154.5 226.5t279.5 80.5q110 0 200 -35t145.5 -93.5t85.5 -131.5t30 -153v-420q0 -49 53 -49h33v-205h-149q-77 0 -121.5 44
t-44.5 116v47h-41q-15 -109 -96.5 -171.5t-208.5 -62.5zM283 1466v43h174v-32q0 -53 30 -85t93 -32q62 0 92 32t30 85v32h175v-43q0 -129 -81 -202.5t-216 -73.5q-136 0 -216.5 73.5t-80.5 202.5zM344 322q0 -61 48.5 -100.5t123.5 -39.5q129 0 195.5 70.5t66.5 177.5v27
h-266q-77 0 -122.5 -34t-45.5 -101z" />
    <glyph glyph-name="Aogonek" unicode="&#x104;" horiz-adv-x="1378" 
d="M25 0v35l442 1399h444l443 -1399v-35l-129 -176q-23 -33 -23 -51q0 -25 16.5 -40.5t38.5 -15.5q27 0 52 17l45 -144q-66 -36 -164 -36q-78 0 -138.5 44.5t-60.5 127.5q0 65 53 139l99 135h-58l-92 295h-608l-92 -295h-268zM461 545h454l-206 657h-43z" />
    <glyph glyph-name="aogonek" unicode="&#x105;" horiz-adv-x="1148" 
d="M950 -446q-78 0 -138 44.5t-60 127.5q0 65 53 139l104 141q-52 15 -81 56t-29 98v47h-41q-15 -109 -96.5 -171.5t-208.5 -62.5q-157 0 -262 94t-105 248q0 149 106.5 240.5t286.5 91.5h299v27q0 86 -58 141t-153 55q-90 0 -142.5 -46t-64.5 -107l-227 63
q40 146 154.5 226.5t279.5 80.5q110 0 200 -35t145.5 -93.5t85.5 -131.5t30 -153v-420q0 -49 53 -49h33v-205l-129 -176q-20 -29 -20 -51q0 -25 16 -40.5t37 -15.5q26 0 51 17l45 -144q-66 -36 -164 -36zM344 322q0 -61 48.5 -100.5t123.5 -39.5q129 0 195.5 70.5
t66.5 177.5v27h-266q-77 0 -122.5 -34t-45.5 -101z" />
    <glyph glyph-name="Cacute" unicode="&#x106;" horiz-adv-x="1585" 
d="M821 -27q-161 0 -300.5 57t-236.5 156t-152.5 236.5t-55.5 294.5q0 208 94.5 377.5t266 267.5t386.5 98q235 0 404 -108.5t254 -292.5l-240 -125q-47 123 -158 196.5t-260 73.5q-201 0 -337 -136.5t-136 -350.5q0 -216 135.5 -352t337.5 -136q156 0 278.5 87.5
t164.5 238.5l243 -115q-71 -207 -254.5 -337t-433.5 -130zM711 1518v32l123 312h231v-35l-172 -309h-182z" />
    <glyph glyph-name="cacute" unicode="&#x107;" horiz-adv-x="1183" 
d="M618 -27q-247 0 -405 157.5t-158 399.5q0 240 159 398.5t404 158.5q180 0 311 -84t191 -237l-221 -115q-28 90 -104 146.5t-177 56.5q-131 0 -217 -91t-86 -233q0 -147 85.5 -235t217.5 -88q100 0 178 54t109 153l225 -107q-58 -158 -195 -246t-317 -88zM512 1184v33
l123 311h231v-35l-172 -309h-182z" />
    <glyph glyph-name="Ccircumflex" unicode="&#x108;" horiz-adv-x="1585" 
d="M821 -27q-161 0 -300.5 57t-236.5 156t-152.5 236.5t-55.5 294.5q0 208 94.5 377.5t266 267.5t386.5 98q235 0 404 -108.5t254 -292.5l-240 -125q-47 123 -158 196.5t-260 73.5q-201 0 -337 -136.5t-136 -350.5q0 -216 135.5 -352t337.5 -136q156 0 278.5 87.5
t164.5 238.5l243 -115q-71 -207 -254.5 -337t-433.5 -130zM514 1518v32l176 310h258l176 -310v-32h-157l-131 153h-33l-129 -153h-160z" />
    <glyph glyph-name="ccircumflex" unicode="&#x109;" horiz-adv-x="1183" 
d="M618 -27q-247 0 -405 157.5t-158 399.5q0 240 159 398.5t404 158.5q180 0 311 -84t191 -237l-221 -115q-28 90 -104 146.5t-177 56.5q-131 0 -217 -91t-86 -233q0 -147 85.5 -235t217.5 -88q100 0 178 54t109 153l225 -107q-58 -158 -195 -246t-317 -88zM315 1184v33
l177 309h258l176 -309v-33h-158l-131 153h-33l-129 -153h-160z" />
    <glyph glyph-name="Cdotaccent" unicode="&#x10a;" horiz-adv-x="1585" 
d="M821 -27q-161 0 -300.5 57t-236.5 156t-152.5 236.5t-55.5 294.5q0 208 94.5 377.5t266 267.5t386.5 98q235 0 404 -108.5t254 -292.5l-240 -125q-47 123 -158 196.5t-260 73.5q-201 0 -337 -136.5t-136 -350.5q0 -216 135.5 -352t337.5 -136q156 0 278.5 87.5
t164.5 238.5l243 -115q-71 -207 -254.5 -337t-433.5 -130zM700 1565v278h261v-278h-261z" />
    <glyph glyph-name="cdotaccent" unicode="&#x10b;" horiz-adv-x="1183" 
d="M618 -27q-247 0 -405 157.5t-158 399.5q0 240 159 398.5t404 158.5q180 0 311 -84t191 -237l-221 -115q-28 90 -104 146.5t-177 56.5q-131 0 -217 -91t-86 -233q0 -147 85.5 -235t217.5 -88q100 0 178 54t109 153l225 -107q-58 -158 -195 -246t-317 -88zM502 1231v278
h260v-278h-260z" />
    <glyph glyph-name="Ccaron" unicode="&#x10c;" horiz-adv-x="1585" 
d="M821 -27q-161 0 -300.5 57t-236.5 156t-152.5 236.5t-55.5 294.5q0 208 94.5 377.5t266 267.5t386.5 98q235 0 404 -108.5t254 -292.5l-240 -125q-47 123 -158 196.5t-260 73.5q-201 0 -337 -136.5t-136 -350.5q0 -216 135.5 -352t337.5 -136q156 0 278.5 87.5
t164.5 238.5l243 -115q-71 -207 -254.5 -337t-433.5 -130zM516 1825v33h158l131 -154h33l129 154h159v-33l-176 -309h-258z" />
    <glyph glyph-name="ccaron" unicode="&#x10d;" horiz-adv-x="1183" 
d="M618 -27q-247 0 -405 157.5t-158 399.5q0 240 159 398.5t404 158.5q180 0 311 -84t191 -237l-221 -115q-28 90 -104 146.5t-177 56.5q-131 0 -217 -91t-86 -233q0 -147 85.5 -235t217.5 -88q100 0 178 54t109 153l225 -107q-58 -158 -195 -246t-317 -88zM317 1491v33h158
l131 -154h33l129 154h160v-33l-176 -309h-258z" />
    <glyph glyph-name="Dcaron" unicode="&#x10e;" horiz-adv-x="1560" 
d="M133 0v240h143v954h-143v240h627q161 0 298 -57t230 -154t145 -228t52 -278q0 -210 -89 -372.5t-254 -253.5t-382 -91h-627zM446 1827v33h158l131 -154h33l129 154h160v-33l-176 -309h-258zM543 244h188q219 0 349 124t130 349q0 217 -131 345t-348 128h-188v-946z" />
    <glyph glyph-name="dcaron" unicode="&#x10f;" horiz-adv-x="1306" 
d="M520 -27q-134 0 -241 73.5t-165.5 200.5t-58.5 283q0 238 131.5 397.5t333.5 159.5q128 0 217.5 -65t122.5 -164h41v678h254v-1536h-254v203h-43q-30 -108 -118 -169t-220 -61zM315 530q0 -145 85 -234t214 -89q127 0 212 92t85 231q0 146 -86.5 235t-210.5 89
q-128 0 -213.5 -90.5t-85.5 -233.5zM1243 1124l33 412h219l-49 -412h-203z" />
    <glyph glyph-name="Dcroat" unicode="&#x110;" horiz-adv-x="1566" 
d="M129 614v220h154v360h-144v240h627q161 0 298 -57t230 -154t145 -228t52 -278q0 -210 -89 -372.5t-254 -253.5t-382 -91h-627v240h144v374h-154zM549 244h188q219 0 349.5 124t130.5 349q0 217 -131.5 345t-348.5 128h-188v-356h319v-220h-319v-370z" />
    <glyph glyph-name="dcroat" unicode="&#x111;" horiz-adv-x="1308" 
d="M645 1178v198h256v160h254v-160h113v-198h-113v-1178h-254v203h-43q-30 -108 -118 -169t-220 -61q-134 0 -241 73.5t-165.5 200.5t-58.5 283q0 238 131.5 397.5t333.5 159.5q128 0 217.5 -65t122.5 -164h41v320h-256zM315 530q0 -145 85 -234t214 -89q127 0 212 92
t85 231q0 146 -86.5 235t-210.5 89q-128 0 -213.5 -90.5t-85.5 -233.5z" />
    <glyph glyph-name="Emacron" unicode="&#x112;" 
d="M168 0v1434h891v-246h-627v-338h557v-240h-557v-364h649v-246h-913zM381 1581v209h524v-209h-524z" />
    <glyph glyph-name="emacron" unicode="&#x113;" horiz-adv-x="1159" 
d="M602 -27q-237 0 -392 156.5t-155 405.5q0 240 151.5 396t389.5 156q154 0 273 -73t179 -189.5t58 -251.5l-2 -129h-797q21 -119 99.5 -183t195.5 -64q82 0 151.5 37.5t104.5 93.5l186 -127q-69 -106 -181 -167t-261 -61zM313 651h545q-5 91 -79 158.5t-183 67.5
q-108 0 -182 -60.5t-101 -165.5zM324 1233v209h524v-209h-524z" />
    <glyph glyph-name="Ebreve" unicode="&#x114;" 
d="M168 0v1434h891v-246h-627v-338h557v-240h-557v-364h649v-246h-913zM346 1798v43h174v-33q0 -53 30 -84.5t93 -31.5q62 0 92.5 32t30.5 84v33h174v-43q0 -129 -81 -202.5t-216 -73.5q-136 0 -216.5 73.5t-80.5 202.5z" />
    <glyph glyph-name="ebreve" unicode="&#x115;" horiz-adv-x="1159" 
d="M602 -27q-237 0 -392 156.5t-155 405.5q0 240 151.5 396t389.5 156q154 0 273 -73t179 -189.5t58 -251.5l-2 -129h-797q21 -119 99.5 -183t195.5 -64q82 0 151.5 37.5t104.5 93.5l186 -127q-69 -106 -181 -167t-261 -61zM289 1450v43h174v-33q0 -53 30 -85t93 -32
q62 0 92.5 32t30.5 85v33h174v-43q0 -129 -81 -202.5t-216 -73.5q-136 0 -216.5 73.5t-80.5 202.5zM313 651h545q-5 91 -79 158.5t-183 67.5q-108 0 -182 -60.5t-101 -165.5z" />
    <glyph glyph-name="Edotaccent" unicode="&#x116;" 
d="M168 0v1434h891v-246h-627v-338h557v-240h-557v-364h649v-246h-913zM522 1565v278h260v-278h-260z" />
    <glyph glyph-name="edotaccent" unicode="&#x117;" horiz-adv-x="1159" 
d="M602 -27q-237 0 -392 156.5t-155 405.5q0 240 151.5 396t389.5 156q154 0 273 -73t179 -189.5t58 -251.5l-2 -129h-797q21 -119 99.5 -183t195.5 -64q82 0 151.5 37.5t104.5 93.5l186 -127q-69 -106 -181 -167t-261 -61zM313 651h545q-5 91 -79 158.5t-183 67.5
q-108 0 -182 -60.5t-101 -165.5zM465 1217v278h260v-278h-260z" />
    <glyph glyph-name="Eogonek" unicode="&#x118;" 
d="M168 0v1434h891v-246h-627v-338h557v-240h-557v-364h649v-246h2l-129 -176q-22 -31 -22 -51q0 -25 16.5 -40.5t38.5 -15.5q25 0 51 17l45 -144q-66 -36 -163 -36q-78 0 -138.5 44.5t-60.5 127.5q0 65 53 139l98 135h-704z" />
    <glyph glyph-name="eogonek" unicode="&#x119;" horiz-adv-x="1159" 
d="M563 -446q-78 0 -138 44.5t-60 127.5q0 65 53 139l84 117q-200 33 -323.5 182.5t-123.5 370.5q0 240 151.5 396t389.5 156q154 0 273 -73t179 -189.5t58 -251.5l-2 -129h-797q21 -119 99.5 -183t195.5 -64q82 0 151.5 37.5t104.5 93.5l186 -127q-118 -179 -329 -217
l-117 -160q-23 -33 -23 -51q0 -25 17 -40.5t39 -15.5q25 0 51 17l45 -144q-66 -36 -164 -36zM313 651h545q-5 91 -79 158.5t-183 67.5q-108 0 -182 -60.5t-101 -165.5z" />
    <glyph glyph-name="Ecaron" unicode="&#x11a;" 
d="M168 0v1434h891v-246h-627v-338h557v-240h-557v-364h649v-246h-913zM338 1825v33h158l131 -154h32l129 154h160v-33l-176 -309h-258z" />
    <glyph glyph-name="ecaron" unicode="&#x11b;" horiz-adv-x="1159" 
d="M602 -27q-237 0 -392 156.5t-155 405.5q0 240 151.5 396t389.5 156q154 0 273 -73t179 -189.5t58 -251.5l-2 -129h-797q21 -119 99.5 -183t195.5 -64q82 0 151.5 37.5t104.5 93.5l186 -127q-69 -106 -181 -167t-261 -61zM281 1477v32h157l131 -153h33l129 153h160v-32
l-176 -310h-258zM313 651h545q-5 91 -79 158.5t-183 67.5q-108 0 -182 -60.5t-101 -165.5z" />
    <glyph glyph-name="Gcircumflex" unicode="&#x11c;" horiz-adv-x="1646" 
d="M778 -27q-195 0 -356 97t-253.5 267.5t-92.5 379.5q0 208 95.5 378t266.5 267.5t383 97.5q234 0 401 -105t253 -282l-234 -127q-52 117 -161 187.5t-259 70.5q-201 0 -336 -136.5t-135 -350.5q0 -217 133 -352.5t334 -135.5q162 0 286 90t154 236h-426v236h699v-791h-273
v223h-40q-48 -119 -161 -184.5t-278 -65.5zM535 1518v32l176 310h258l176 -310v-32h-158l-131 153h-33l-129 -153h-159z" />
    <glyph glyph-name="gcircumflex" unicode="&#x11d;" horiz-adv-x="1210" 
d="M575 -457q-154 0 -271.5 33t-190 106.5t-72.5 180.5q0 88 65.5 151.5t176.5 63.5h41v41q-70 9 -115 53t-45 107q0 50 26.5 86.5t63.5 56.5q-56 46 -88.5 116t-32.5 154q0 174 120.5 284.5t315.5 110.5q81 0 146 -22l411 16v-207h-299v-40q81 -11 125.5 -67t44.5 -128
q0 -79 -36 -141.5t-96.5 -100.5t-136 -58t-159.5 -20q-61 0 -123 15q-30 -15 -30 -49q0 -32 25 -49t63 -17h282q164 0 260.5 -83.5t96.5 -221.5q0 -80 -32 -144t-85.5 -106t-127.5 -69.5t-154 -39.5t-169 -12zM297 1186v33l176 309h258l176 -309v-33h-157l-132 153h-32
l-129 -153h-160zM301 -102q0 -140 274 -140q142 0 224 35.5t82 106.5q0 48 -33.5 77t-102.5 29h-309q-60 0 -97.5 -29t-37.5 -79zM387 692q0 -91 49 -141.5t133 -50.5t133.5 50.5t49.5 141.5q0 79 -51 134t-132 55t-131.5 -55t-50.5 -134z" />
    <glyph glyph-name="Gbreve" unicode="&#x11e;" horiz-adv-x="1646" 
d="M778 -27q-195 0 -356 97t-253.5 267.5t-92.5 379.5q0 208 95.5 378t266.5 267.5t383 97.5q234 0 401 -105t253 -282l-234 -127q-52 117 -161 187.5t-259 70.5q-201 0 -336 -136.5t-135 -350.5q0 -217 133 -352.5t334 -135.5q162 0 286 90t154 236h-426v236h699v-791h-273
v223h-40q-48 -119 -161 -184.5t-278 -65.5zM545 1798v43h174v-33q0 -53 30 -84.5t93 -31.5q62 0 92.5 32t30.5 84v33h174v-43q0 -129 -81 -202.5t-216 -73.5q-136 0 -216.5 73.5t-80.5 202.5z" />
    <glyph glyph-name="gbreve" unicode="&#x11f;" horiz-adv-x="1210" 
d="M575 -457q-154 0 -271.5 33t-190 106.5t-72.5 180.5q0 88 65.5 151.5t176.5 63.5h41v41q-70 9 -115 53t-45 107q0 50 26.5 86.5t63.5 56.5q-56 46 -88.5 116t-32.5 154q0 174 120.5 284.5t315.5 110.5q81 0 146 -22l411 16v-207h-299v-40q81 -11 125.5 -67t44.5 -128
q0 -79 -36 -141.5t-96.5 -100.5t-136 -58t-159.5 -20q-61 0 -123 15q-30 -15 -30 -49q0 -32 25 -49t63 -17h282q164 0 260.5 -83.5t96.5 -221.5q0 -80 -32 -144t-85.5 -106t-127.5 -69.5t-154 -39.5t-169 -12zM301 -102q0 -140 274 -140q142 0 224 35.5t82 106.5
q0 48 -33.5 77t-102.5 29h-309q-60 0 -97.5 -29t-37.5 -79zM307 1466v43h174v-32q0 -53 30 -85t93 -32q62 0 92.5 32t30.5 85v32h174v-43q0 -129 -81 -202.5t-216 -73.5q-136 0 -216.5 73.5t-80.5 202.5zM387 692q0 -91 49 -141.5t133 -50.5t133.5 50.5t49.5 141.5
q0 79 -51 134t-132 55t-131.5 -55t-50.5 -134z" />
    <glyph glyph-name="Gdotaccent" unicode="&#x120;" horiz-adv-x="1646" 
d="M778 -27q-195 0 -356 97t-253.5 267.5t-92.5 379.5q0 208 95.5 378t266.5 267.5t383 97.5q234 0 401 -105t253 -282l-234 -127q-52 117 -161 187.5t-259 70.5q-201 0 -336 -136.5t-135 -350.5q0 -217 133 -352.5t334 -135.5q162 0 286 90t154 236h-426v236h699v-791h-273
v223h-40q-48 -119 -161 -184.5t-278 -65.5zM721 1565v278h260v-278h-260z" />
    <glyph glyph-name="gdotaccent" unicode="&#x121;" horiz-adv-x="1210" 
d="M575 -457q-154 0 -271.5 33t-190 106.5t-72.5 180.5q0 88 65.5 151.5t176.5 63.5h41v41q-70 9 -115 53t-45 107q0 50 26.5 86.5t63.5 56.5q-56 46 -88.5 116t-32.5 154q0 174 120.5 284.5t315.5 110.5q81 0 146 -22l411 16v-207h-299v-40q81 -11 125.5 -67t44.5 -128
q0 -79 -36 -141.5t-96.5 -100.5t-136 -58t-159.5 -20q-61 0 -123 15q-30 -15 -30 -49q0 -32 25 -49t63 -17h282q164 0 260.5 -83.5t96.5 -221.5q0 -80 -32 -144t-85.5 -106t-127.5 -69.5t-154 -39.5t-169 -12zM301 -102q0 -140 274 -140q142 0 224 35.5t82 106.5
q0 48 -33.5 77t-102.5 29h-309q-60 0 -97.5 -29t-37.5 -79zM387 692q0 -91 49 -141.5t133 -50.5t133.5 50.5t49.5 141.5q0 79 -51 134t-132 55t-131.5 -55t-50.5 -134zM483 1233v278h260v-278h-260z" />
    <glyph glyph-name="uni0122" unicode="&#x122;" horiz-adv-x="1646" 
d="M778 -27q-195 0 -356 97t-253.5 267.5t-92.5 379.5q0 208 95.5 378t266.5 267.5t383 97.5q234 0 401 -105t253 -282l-234 -127q-52 117 -161 187.5t-259 70.5q-201 0 -336 -136.5t-135 -350.5q0 -217 133 -352.5t334 -135.5q162 0 286 90t154 236h-426v236h699v-791h-273
v223h-40q-48 -119 -161 -184.5t-278 -65.5zM707 -379q44 3 67 21t23 61v6h-76v213h240v-233q0 -86 -46 -135.5t-127 -65.5h-28z" />
    <glyph glyph-name="uni0123" unicode="&#x123;" horiz-adv-x="1210" 
d="M575 -457q-154 0 -271.5 33t-190 106.5t-72.5 180.5q0 88 65.5 151.5t176.5 63.5h41v41q-70 9 -115 53t-45 107q0 50 26.5 86.5t63.5 56.5q-56 46 -88.5 116t-32.5 154q0 174 120.5 284.5t315.5 110.5q81 0 146 -22l411 16v-207h-299v-40q81 -11 125.5 -67t44.5 -128
q0 -79 -36 -141.5t-96.5 -100.5t-136 -58t-159.5 -20q-61 0 -123 15q-30 -15 -30 -49q0 -32 25 -49t63 -17h282q164 0 260.5 -83.5t96.5 -221.5q0 -80 -32 -144t-85.5 -106t-127.5 -69.5t-154 -39.5t-169 -12zM301 -102q0 -140 274 -140q142 0 224 35.5t82 106.5
q0 48 -33.5 77t-102.5 29h-309q-60 0 -97.5 -29t-37.5 -79zM387 692q0 -91 49 -141.5t133 -50.5t133.5 50.5t49.5 141.5q0 79 -51 134t-132 55t-131.5 -55t-50.5 -134zM498 1165v234q0 166 172 200h28l54 -133q-44 -3 -67 -21t-23 -61v-6h75v-213h-239z" />
    <glyph glyph-name="Hcircumflex" unicode="&#x124;" horiz-adv-x="1482" 
d="M1049 0v602h-615v-602h-266v1434h266v-578h615v578h266v-1434h-266zM442 1518v32l176 310h259l176 -310v-32h-158l-131 153h-33l-129 -153h-160z" />
    <glyph glyph-name="hcircumflex" unicode="&#x125;" horiz-adv-x="1208" 
d="M137 0v1536h256v-678h41q27 105 105.5 167t191.5 62q86 0 154.5 -30t111.5 -81.5t65.5 -117.5t22.5 -141v-717h-256v627q0 94 -60.5 154.5t-152.5 60.5q-99 0 -161 -64t-62 -162v-616h-256zM-45 1620v33l176 309h258l176 -309v-33h-157l-132 154h-32l-129 -154h-160z" />
    <glyph glyph-name="Hbar" unicode="&#x126;" horiz-adv-x="1529" 
d="M82 1040v215h108v179h267v-179h614v179h266v-179h111v-215h-111v-1040h-266v602h-614v-602h-267v1040h-108zM457 856h614v184h-614v-184z" />
    <glyph glyph-name="hbar" unicode="&#x127;" horiz-adv-x="1208" 
d="M31 1178v198h106v160h256v-160h260v-198h-260v-320h41q27 105 105.5 167t191.5 62q86 0 154.5 -30t111.5 -81.5t65.5 -117.5t22.5 -141v-717h-256v627q0 94 -60.5 154.5t-152.5 60.5q-99 0 -161 -64t-62 -162v-616h-256v1178h-106z" />
    <glyph glyph-name="Itilde" unicode="&#x128;" horiz-adv-x="1073" 
d="M129 0v248h274v940h-274v246h815v-246h-274v-940h274v-248h-815zM201 1589q3 109 61 169.5t141 60.5q61 0 136 -43l51 -31q52 -29 72 -29q33 0 52 25.5t19 68.5h35l113 -53q0 -106 -58.5 -167.5t-140.5 -61.5q-66 0 -133 43l-49 31q-46 28 -76 28q-34 0 -55 -25.5
t-21 -68.5h-35z" />
    <glyph glyph-name="itilde" unicode="&#x129;" horiz-adv-x="516" 
d="M137 0v1061h256v-1061h-256zM-88 1257q3 109 61.5 169.5t141.5 60.5q60 0 135 -43l51 -31q52 -29 72 -29q33 0 52 26t19 69h35l113 -54q0 -106 -58.5 -167.5t-140.5 -61.5q-66 0 -133 43l-49 31q-46 28 -76 28q-34 0 -55 -25.5t-21 -68.5h-34z" />
    <glyph glyph-name="Imacron" unicode="&#x12a;" horiz-adv-x="1073" 
d="M129 0v248h274v940h-274v246h815v-246h-274v-940h274v-248h-815zM289 1581v209h524v-209h-524z" />
    <glyph glyph-name="imacron" unicode="&#x12b;" horiz-adv-x="516" 
d="M137 0v1061h256v-1061h-256zM0 1249v209h524v-209h-524z" />
    <glyph glyph-name="Ibreve" unicode="&#x12c;" horiz-adv-x="1073" 
d="M129 0v248h274v940h-274v246h815v-246h-274v-940h274v-248h-815zM254 1798v43h174v-33q0 -53 30 -84.5t93 -31.5q62 0 92.5 32t30.5 84v33h174v-43q0 -129 -81 -202.5t-216 -73.5q-136 0 -216.5 73.5t-80.5 202.5z" />
    <glyph glyph-name="ibreve" unicode="&#x12d;" horiz-adv-x="516" 
d="M137 0v1061h256v-1061h-256zM-35 1466v43h174v-32q0 -53 30 -85t93 -32q62 0 92.5 32t30.5 85v32h174v-43q0 -129 -81 -202.5t-216 -73.5q-136 0 -216.5 73.5t-80.5 202.5z" />
    <glyph glyph-name="Iogonek" unicode="&#x12e;" horiz-adv-x="1073" 
d="M129 0v248h274v940h-274v246h815v-246h-274v-940h274v-248l-129 -176q-22 -31 -22 -51q0 -25 16.5 -40.5t38.5 -15.5q25 0 51 17l45 -144q-66 -36 -164 -36q-78 0 -138 44.5t-60 127.5q0 65 53 139l98 135h-604z" />
    <glyph glyph-name="iogonek" unicode="&#x12f;" horiz-adv-x="514" 
d="M135 0v1061h256v-1061l-129 -176q-22 -31 -22 -51q0 -25 16.5 -40.5t38.5 -15.5q25 0 51 17l45 -144q-66 -36 -164 -36q-78 0 -138 44.5t-60 127.5q0 65 53 139l98 135h-45zM139 1233v278h260v-278h-260z" />
    <glyph glyph-name="Idotaccent" unicode="&#x130;" horiz-adv-x="1073" 
d="M129 0v248h274v940h-274v246h815v-246h-274v-940h274v-248h-815zM430 1565v278h260v-278h-260z" />
    <glyph glyph-name="dotlessi" unicode="&#x131;" horiz-adv-x="516" 
d="M137 0v1061h256v-1061h-256z" />
    <glyph glyph-name="IJ" unicode="&#x132;" horiz-adv-x="2287" 
d="M129 0v248h274v940h-274v246h815v-246h-274v-940h274v-248h-815zM1118 293l217 127q32 -88 104 -139.5t163 -51.5q129 0 204.5 75.5t75.5 195.5v688h-481v246h745v-934q0 -115 -35.5 -211t-103 -166.5t-171.5 -110t-234 -39.5q-173 0 -301.5 91t-182.5 229z" />
    <glyph glyph-name="ij" unicode="&#x133;" horiz-adv-x="980" 
d="M117 0v1061h256v-1061h-256zM115 1229v278h260v-278h-260zM432 -430v242h66q51 0 82.5 27.5t31.5 84.5v1137h256l-2 -1149q0 -167 -93 -254.5t-241 -87.5h-100zM606 1229v278h262v-278h-262z" />
    <glyph glyph-name="Jcircumflex" unicode="&#x134;" horiz-adv-x="1214" 
d="M528 -27q-173 0 -301 91t-182 229l217 127q32 -88 103.5 -139.5t162.5 -51.5q130 0 205.5 75.5t75.5 195.5v688h-481v246h745v-934q0 -154 -61.5 -272t-186 -186.5t-297.5 -68.5zM403 1518v32l177 310h258l176 -310v-32h-158l-131 153h-33l-129 -153h-160z" />
    <glyph glyph-name="jcircumflex" unicode="&#x135;" horiz-adv-x="501" 
d="M-57 -430v242h65q51 0 83 27.5t32 84.5v1135h256l-2 -1147q0 -167 -93 -254.5t-241 -87.5h-100zM-61 1182v32l176 310h258l176 -310v-32h-158l-131 153h-33l-129 -153h-159z" />
    <glyph glyph-name="uni0136" unicode="&#x136;" horiz-adv-x="1337" 
d="M168 0v1434h264v-615h41l524 615h297v-35l-460 -537l483 -827v-35h-295l-373 649l-217 -254v-395h-264zM586 -379q44 3 67 21t23 61v6h-76v213h240v-233q0 -167 -172 -201h-29z" />
    <glyph glyph-name="uni0137" unicode="&#x137;" horiz-adv-x="1134" 
d="M137 0v1536h254v-860h41l361 385h286v-35l-364 -379l385 -612v-35h-275l-288 463l-146 -152v-311h-254zM461 -379q44 3 67 21t23 61v6h-76v213h240v-233q0 -167 -172 -201h-29z" />
    <glyph glyph-name="kgreenlandic" unicode="&#x138;" horiz-adv-x="1120" 
d="M137 0v1061h256v-383h33l348 383h293v-35l-352 -383l372 -608v-35h-276l-270 453l-148 -160v-293h-256z" />
    <glyph glyph-name="Lacute" unicode="&#x139;" horiz-adv-x="1112" 
d="M168 0v1434h266v-1186h633v-248h-899zM188 1518v32l123 312h232v-35l-172 -309h-183z" />
    <glyph glyph-name="lacute" unicode="&#x13a;" horiz-adv-x="501" 
d="M123 0v1536h256v-1536h-256zM143 1620v33l123 311h232v-35l-172 -309h-183z" />
    <glyph glyph-name="uni013B" unicode="&#x13b;" horiz-adv-x="1112" 
d="M168 0v1434h266v-1186h633v-248h-899zM516 -379q44 3 67 21t23 61v6h-76v213h240v-233q0 -167 -172 -201h-29z" />
    <glyph glyph-name="uni013C" unicode="&#x13c;" horiz-adv-x="501" 
d="M123 0v1536h256v-1536h-256zM117 -379q44 3 67 21t23 61v6h-76v213h240v-233q0 -167 -172 -201h-29z" />
    <glyph glyph-name="Lcaron" unicode="&#x13d;" horiz-adv-x="1189" 
d="M168 0v1434h266v-1186h633v-248h-899zM745 1022l33 412h219l-49 -412h-203z" />
    <glyph glyph-name="lcaron" unicode="&#x13e;" horiz-adv-x="673" 
d="M123 0v1536h256v-1536h-256zM473 1124l33 412h219l-49 -412h-203z" />
    <glyph glyph-name="Ldot" unicode="&#x13f;" horiz-adv-x="1112" 
d="M168 0v1434h266v-1186h633v-248h-899zM670 649v307h293v-307h-293z" />
    <glyph glyph-name="ldot" unicode="&#x140;" horiz-adv-x="856" 
d="M123 0v1536h256v-1536h-256zM512 688v307h293v-307h-293z" />
    <glyph glyph-name="Lslash" unicode="&#x141;" horiz-adv-x="1167" 
d="M117 446v230l147 72v686h266v-557l363 174h35v-230l-398 -190v-383h633v-248h-899v502l-114 -56h-33z" />
    <glyph glyph-name="lslash" unicode="&#x142;" horiz-adv-x="684" 
d="M31 580v223l162 88v645h256v-506l163 88h35v-223l-198 -109v-786h-256v649l-127 -69h-35z" />
    <glyph glyph-name="Nacute" unicode="&#x143;" horiz-adv-x="1525" 
d="M168 0v1434h494l403 -1203h35v1203h260v-1434h-498l-399 1202h-37v-1202h-258zM700 1518v32l123 312h232v-35l-172 -309h-183z" />
    <glyph glyph-name="nacute" unicode="&#x144;" horiz-adv-x="1206" 
d="M137 0v1061h256v-203h41q25 97 104.5 163t192.5 66q86 0 154.5 -30t111 -82t64.5 -117.5t22 -140.5v-717h-256v627q0 94 -60.5 154.5t-152.5 60.5q-99 0 -160 -64t-61 -162v-616h-256zM530 1186v33l123 311h232v-35l-172 -309h-183z" />
    <glyph glyph-name="uni0145" unicode="&#x145;" horiz-adv-x="1525" 
d="M168 0v1434h494l403 -1203h35v1203h260v-1434h-498l-399 1202h-37v-1202h-258zM608 -379q44 3 67 21t23 61v6h-75v213h239v-233q0 -167 -172 -201h-28z" />
    <glyph glyph-name="uni0146" unicode="&#x146;" horiz-adv-x="1206" 
d="M137 0v1061h256v-203h41q25 97 104.5 163t192.5 66q86 0 154.5 -30t111 -82t64.5 -117.5t22 -140.5v-717h-256v627q0 94 -60.5 154.5t-152.5 60.5q-99 0 -160 -64t-61 -162v-616h-256zM483 -379q44 3 67 21t23 61v6h-75v213h239v-233q0 -167 -172 -201h-28z" />
    <glyph glyph-name="Ncaron" unicode="&#x147;" horiz-adv-x="1525" 
d="M168 0v1434h494l403 -1203h35v1203h260v-1434h-498l-399 1202h-37v-1202h-258zM506 1825v33h158l131 -154h32l129 154h160v-33l-176 -309h-258z" />
    <glyph glyph-name="ncaron" unicode="&#x148;" horiz-adv-x="1206" 
d="M137 0v1061h256v-203h41q25 97 104.5 163t192.5 66q86 0 154.5 -30t111 -82t64.5 -117.5t22 -140.5v-717h-256v627q0 94 -60.5 154.5t-152.5 60.5q-99 0 -160 -64t-61 -162v-616h-256zM336 1493v33h158l131 -154h32l129 154h160v-33l-176 -309h-258z" />
    <glyph glyph-name="napostrophe" unicode="&#x149;" horiz-adv-x="1206" 
d="M137 0v1061h256v-203h41q25 97 104.5 163t192.5 66q86 0 154.5 -30t111 -82t64.5 -117.5t22 -140.5v-717h-256v627q0 94 -60.5 154.5t-152.5 60.5q-99 0 -160 -64t-61 -162v-616h-256zM-119 1167q44 3 67 21t23 61v6h-75v213h239v-233q0 -167 -172 -201h-29z" />
    <glyph glyph-name="Eng" unicode="&#x14a;" horiz-adv-x="1533" 
d="M963 -471h-35v225h35q77 0 119 42t42 118v86h-262l-399 1202h-37v-1202h-258v1434h494l403 -1203h35v1203h260v-1434h8v-88q0 -172 -109 -277.5t-296 -105.5z" />
    <glyph glyph-name="eng" unicode="&#x14b;" horiz-adv-x="1204" 
d="M641 -471v229h57q62 0 95.5 35t33.5 96v738q0 94 -60.5 154.5t-152.5 60.5q-99 0 -160 -64t-61 -162v-616h-256v1061h256v-203h41q25 97 104.5 163t192.5 66q86 0 154.5 -30t111 -82t64.5 -117.5t22 -140.5v-830q0 -182 -101 -270t-286 -88h-55z" />
    <glyph glyph-name="Omacron" unicode="&#x14c;" horiz-adv-x="1648" 
d="M821 -27q-213 0 -384 97t-266 267t-95 380q0 156 56 293t154 236t237.5 156.5t299.5 57.5q161 0 301.5 -58t238.5 -157.5t154 -236.5t56 -291q0 -208 -96 -378t-268.5 -268t-387.5 -98zM350 717q0 -216 136.5 -352t336.5 -136q131 0 239 60t172 172.5t64 255.5
q0 213 -137.5 350t-337.5 137t-336.5 -137t-136.5 -350zM569 1581v209h525v-209h-525z" />
    <glyph glyph-name="omacron" unicode="&#x14d;" horiz-adv-x="1249" 
d="M625 -27q-163 0 -293 71t-203.5 198.5t-73.5 287.5q0 242 161.5 399.5t408.5 157.5q156 0 286 -71.5t206.5 -199.5t76.5 -286q0 -159 -76.5 -287t-206.5 -199t-286 -71zM315 530q0 -146 88 -234.5t222 -88.5q133 0 221 88.5t88 234.5q0 141 -88.5 232.5t-220.5 91.5
t-221 -91.5t-89 -232.5zM362 1249v209h525v-209h-525z" />
    <glyph glyph-name="Obreve" unicode="&#x14e;" horiz-adv-x="1648" 
d="M821 -27q-213 0 -384 97t-266 267t-95 380q0 156 56 293t154 236t237.5 156.5t299.5 57.5q161 0 301.5 -58t238.5 -157.5t154 -236.5t56 -291q0 -208 -96 -378t-268.5 -268t-387.5 -98zM350 717q0 -216 136.5 -352t336.5 -136q131 0 239 60t172 172.5t64 255.5
q0 213 -137.5 350t-337.5 137t-336.5 -137t-136.5 -350zM535 1798v43h174v-33q0 -53 29.5 -84.5t92.5 -31.5q62 0 92.5 32t30.5 84v33h174v-43q0 -129 -81 -202.5t-216 -73.5q-136 0 -216 73.5t-80 202.5z" />
    <glyph glyph-name="obreve" unicode="&#x14f;" horiz-adv-x="1249" 
d="M625 -27q-163 0 -293 71t-203.5 198.5t-73.5 287.5q0 242 161.5 399.5t408.5 157.5q156 0 286 -71.5t206.5 -199.5t76.5 -286q0 -159 -76.5 -287t-206.5 -199t-286 -71zM315 530q0 -146 88 -234.5t222 -88.5q133 0 221 88.5t88 234.5q0 141 -88.5 232.5t-220.5 91.5
t-221 -91.5t-89 -232.5zM328 1466v43h174v-32q0 -53 30 -85t93 -32q62 0 92.5 32t30.5 85v32h174v-43q0 -129 -81 -202.5t-216 -73.5q-136 0 -216.5 73.5t-80.5 202.5z" />
    <glyph glyph-name="Ohungarumlaut" unicode="&#x150;" horiz-adv-x="1648" 
d="M821 -27q-213 0 -384 97t-266 267t-95 380q0 156 56 293t154 236t237.5 156.5t299.5 57.5q161 0 301.5 -58t238.5 -157.5t154 -236.5t56 -291q0 -208 -96 -378t-268.5 -268t-387.5 -98zM350 717q0 -216 136.5 -352t336.5 -136q131 0 239 60t172 172.5t64 255.5
q0 213 -137.5 350t-337.5 137t-336.5 -137t-136.5 -350zM580 1518v32l110 312h221v-35l-159 -309h-172zM897 1518v32l111 312h221v-35l-160 -309h-172z" />
    <glyph glyph-name="ohungarumlaut" unicode="&#x151;" horiz-adv-x="1249" 
d="M625 -27q-163 0 -293 71t-203.5 198.5t-73.5 287.5q0 242 161.5 399.5t408.5 157.5q156 0 286 -71.5t206.5 -199.5t76.5 -286q0 -159 -76.5 -287t-206.5 -199t-286 -71zM315 530q0 -146 88 -234.5t222 -88.5q133 0 221 88.5t88 234.5q0 141 -88.5 232.5t-220.5 91.5
t-221 -91.5t-89 -232.5zM373 1186v33l110 311h222v-35l-160 -309h-172zM690 1186v33l111 311h221v-35l-160 -309h-172z" />
    <glyph glyph-name="OE" unicode="&#x152;" horiz-adv-x="2250" 
d="M821 -27q-213 0 -384 97t-266 267t-95 380q0 156 56 293t154 236t237.5 156.5t299.5 57.5q102 0 209 -26h1104v-246h-723q115 -145 150 -338h503v-240h-499q-27 -206 -154 -364h746v-246h-1127q-111 -27 -211 -27zM350 717q0 -216 136.5 -352t336.5 -136q131 0 239 60
t172 172.5t64 255.5q0 213 -137.5 350t-337.5 137t-336.5 -137t-136.5 -350z" />
    <glyph glyph-name="oe" unicode="&#x153;" horiz-adv-x="2052" 
d="M610 -27q-236 0 -395.5 158t-159.5 399q0 158 73.5 286t200.5 199.5t281 71.5q159 0 276 -79t158 -201h41q53 131 164.5 205.5t253.5 74.5q116 0 212 -44t157.5 -117t94 -164.5t30.5 -188.5l-2 -129h-795q23 -118 100 -182.5t193 -64.5q82 0 151.5 37.5t104.5 93.5
l188 -127q-149 -228 -442 -228q-147 0 -263.5 79.5t-148.5 185.5h-41q-51 -124 -166.5 -194.5t-265.5 -70.5zM315 530q0 -146 88 -234.5t222 -88.5q133 0 221 88.5t88 234.5q0 141 -88.5 232.5t-220.5 91.5t-221 -91.5t-89 -232.5zM1206 651h543q-5 92 -78 159t-182 67
q-107 0 -182 -60t-101 -166z" />
    <glyph glyph-name="Racute" unicode="&#x154;" horiz-adv-x="1341" 
d="M168 0v1434h590q214 0 335 -110.5t121 -283.5q0 -124 -65 -209t-172 -102v-41q41 -13 78 -37t71.5 -63.5t55 -101t20.5 -136.5v-350h-268v317q0 87 -53.5 139t-155.5 52h-293v-508h-264zM432 754h289q94 0 158.5 63t64.5 156q0 92 -62.5 153.5t-164.5 61.5h-285v-434z
M510 1518v32l123 312h231v-35l-172 -309h-182z" />
    <glyph glyph-name="racute" unicode="&#x155;" horiz-adv-x="825" 
d="M137 0v1061h254v-225h43q27 106 112 174.5t224 68.5v-272h-131q-117 0 -181.5 -71.5t-64.5 -178.5v-557h-256zM356 1169v33l123 311h232v-34l-172 -310h-183z" />
    <glyph glyph-name="uni0156" unicode="&#x156;" horiz-adv-x="1341" 
d="M168 0v1434h590q214 0 335 -110.5t121 -283.5q0 -124 -65 -209t-172 -102v-41q41 -13 78 -37t71.5 -63.5t55 -101t20.5 -136.5v-350h-268v317q0 87 -53.5 139t-155.5 52h-293v-508h-264zM432 754h289q94 0 158.5 63t64.5 156q0 92 -62.5 153.5t-164.5 61.5h-285v-434z
M551 -379q44 3 67 21t23 61v6h-76v213h240v-233q0 -167 -172 -201h-29z" />
    <glyph glyph-name="uni0157" unicode="&#x157;" horiz-adv-x="825" 
d="M137 0v1061h254v-225h43q27 106 112 174.5t224 68.5v-272h-131q-117 0 -181.5 -71.5t-64.5 -178.5v-557h-256zM195 -379q44 3 67 21t23 61v6h-76v213h240v-233q0 -86 -46 -135.5t-127 -65.5h-28z" />
    <glyph glyph-name="Rcaron" unicode="&#x158;" horiz-adv-x="1341" 
d="M168 0v1434h590q214 0 335 -110.5t121 -283.5q0 -124 -65 -209t-172 -102v-41q41 -13 78 -37t71.5 -63.5t55 -101t20.5 -136.5v-350h-268v317q0 87 -53.5 139t-155.5 52h-293v-508h-264zM315 1825v33h158l131 -154h33l129 154h160v-33l-176 -309h-258zM432 754h289
q94 0 158.5 63t64.5 156q0 92 -62.5 153.5t-164.5 61.5h-285v-434z" />
    <glyph glyph-name="rcaron" unicode="&#x159;" horiz-adv-x="825" 
d="M137 0v1061h254v-225h43q27 106 112 174.5t224 68.5v-272h-131q-117 0 -181.5 -71.5t-64.5 -178.5v-557h-256zM162 1477v32h157l132 -153h32l129 153h160v-32l-176 -310h-258z" />
    <glyph glyph-name="Sacute" unicode="&#x15a;" horiz-adv-x="1294" 
d="M649 -27q-226 0 -372.5 110.5t-184.5 293.5l246 74q21 -104 103 -167t208 -63q129 0 203 52.5t74 136.5q0 133 -178 178l-218 51q-77 19 -140 49.5t-119 79t-87.5 121.5t-31.5 164q0 82 34.5 155.5t97 129.5t158 89t209.5 33q202 0 340.5 -96.5t173.5 -263.5l-247 -70
q-16 81 -85.5 135t-181.5 54q-110 0 -172.5 -48.5t-62.5 -117.5q0 -66 46.5 -103.5t131.5 -60.5l217 -53q383 -96 383 -426q0 -87 -36.5 -165.5t-103.5 -139.5t-172 -96.5t-233 -35.5zM563 1518v32l123 312h232v-35l-173 -309h-182z" />
    <glyph glyph-name="sacute" unicode="&#x15b;" horiz-adv-x="1079" 
d="M532 -27q-181 0 -301.5 86t-154.5 238l229 59q18 -81 80 -122t150 -41q99 0 149.5 33t50.5 83q0 87 -121 109l-192 39q-58 11 -107.5 33.5t-92 58.5t-67 92t-24.5 125q0 136 114.5 228.5t305.5 92.5q171 0 288 -83.5t148 -223.5l-223 -59q-12 68 -70.5 112t-142.5 44
q-81 0 -126.5 -32.5t-45.5 -78.5q0 -77 121 -102l180 -35q307 -59 307 -320q0 -153 -122.5 -244.5t-332.5 -91.5zM451 1186v33l122 311h232v-35l-172 -309h-182z" />
    <glyph glyph-name="Scircumflex" unicode="&#x15c;" horiz-adv-x="1294" 
d="M649 -27q-226 0 -372.5 110.5t-184.5 293.5l246 74q21 -104 103 -167t208 -63q129 0 203 52.5t74 136.5q0 133 -178 178l-218 51q-77 19 -140 49.5t-119 79t-87.5 121.5t-31.5 164q0 82 34.5 155.5t97 129.5t158 89t209.5 33q202 0 340.5 -96.5t173.5 -263.5l-247 -70
q-16 81 -85.5 135t-181.5 54q-110 0 -172.5 -48.5t-62.5 -117.5q0 -66 46.5 -103.5t131.5 -60.5l217 -53q383 -96 383 -426q0 -87 -36.5 -165.5t-103.5 -139.5t-172 -96.5t-233 -35.5zM367 1518v32l176 310h258l176 -310v-32h-158l-131 153h-33l-129 -153h-159z" />
    <glyph glyph-name="scircumflex" unicode="&#x15d;" horiz-adv-x="1079" 
d="M532 -27q-181 0 -301.5 86t-154.5 238l229 59q18 -81 80 -122t150 -41q99 0 149.5 33t50.5 83q0 87 -121 109l-192 39q-58 11 -107.5 33.5t-92 58.5t-67 92t-24.5 125q0 136 114.5 228.5t305.5 92.5q171 0 288 -83.5t148 -223.5l-223 -59q-12 68 -70.5 112t-142.5 44
q-81 0 -126.5 -32.5t-45.5 -78.5q0 -77 121 -102l180 -35q307 -59 307 -320q0 -153 -122.5 -244.5t-332.5 -91.5zM254 1186v33l176 309h258l176 -309v-33h-157l-132 153h-32l-129 -153h-160z" />
    <glyph glyph-name="Scedilla" unicode="&#x15e;" horiz-adv-x="1294" 
d="M694 -446q-58 0 -108 29t-74 79l113 62q19 -37 61 -37q28 0 49 18.5t21 50.5q0 29 -21 47.5t-49 18.5q-39 0 -59 -33l-125 64l41 127q-183 26 -300.5 131.5t-150.5 265.5l246 74q21 -104 103 -167t208 -63q129 0 203 52.5t74 136.5q0 133 -178 178l-218 51
q-77 19 -140 49.5t-119 79t-87.5 121.5t-31.5 164q0 82 34.5 155.5t97 129.5t158 89t209.5 33q202 0 340.5 -96.5t173.5 -263.5l-247 -70q-16 81 -85.5 135t-181.5 54q-110 0 -172.5 -48.5t-62.5 -117.5q0 -66 46.5 -103.5t131.5 -60.5l217 -53q383 -96 383 -426
q0 -174 -133 -298.5t-367 -136.5l-37 -98h33q19 49 82 49q55 0 95 -50t40 -122q0 -92 -60 -146t-153 -54z" />
    <glyph glyph-name="scedilla" unicode="&#x15f;" horiz-adv-x="1079" 
d="M584 -446q-58 0 -108.5 29t-74.5 79l113 62q19 -37 61 -37q28 0 49 18.5t21 50.5q0 29 -21 47.5t-49 18.5q-39 0 -59 -33l-125 64l41 129q-142 22 -234.5 103.5t-121.5 211.5l229 59q18 -81 80 -122t150 -41q99 0 149.5 33t50.5 83q0 87 -121 109l-192 39
q-58 11 -107.5 33.5t-92 58.5t-67 92t-24.5 125q0 136 114.5 228.5t305.5 92.5q171 0 288 -83.5t148 -223.5l-223 -59q-12 68 -70.5 112t-142.5 44q-81 0 -126.5 -32.5t-45.5 -78.5q0 -77 121 -102l180 -35q307 -59 307 -320q0 -143 -108 -233.5t-295 -100.5l-37 -98h33
q19 49 82 49q55 0 95 -50t40 -122q0 -92 -60 -146t-153 -54z" />
    <glyph glyph-name="Scaron" unicode="&#x160;" horiz-adv-x="1294" 
d="M649 -27q-226 0 -372.5 110.5t-184.5 293.5l246 74q21 -104 103 -167t208 -63q129 0 203 52.5t74 136.5q0 133 -178 178l-218 51q-77 19 -140 49.5t-119 79t-87.5 121.5t-31.5 164q0 82 34.5 155.5t97 129.5t158 89t209.5 33q202 0 340.5 -96.5t173.5 -263.5l-247 -70
q-16 81 -85.5 135t-181.5 54q-110 0 -172.5 -48.5t-62.5 -117.5q0 -66 46.5 -103.5t131.5 -60.5l217 -53q383 -96 383 -426q0 -87 -36.5 -165.5t-103.5 -139.5t-172 -96.5t-233 -35.5zM369 1825v33h157l131 -154h33l129 154h160v-33l-176 -309h-258z" />
    <glyph glyph-name="scaron" unicode="&#x161;" horiz-adv-x="1079" 
d="M532 -27q-181 0 -301.5 86t-154.5 238l229 59q18 -81 80 -122t150 -41q99 0 149.5 33t50.5 83q0 87 -121 109l-192 39q-58 11 -107.5 33.5t-92 58.5t-67 92t-24.5 125q0 136 114.5 228.5t305.5 92.5q171 0 288 -83.5t148 -223.5l-223 -59q-12 68 -70.5 112t-142.5 44
q-81 0 -126.5 -32.5t-45.5 -78.5q0 -77 121 -102l180 -35q307 -59 307 -320q0 -153 -122.5 -244.5t-332.5 -91.5zM256 1493v33h158l131 -154h33l129 154h159v-33l-176 -309h-258z" />
    <glyph glyph-name="uni0162" unicode="&#x162;" horiz-adv-x="1294" 
d="M512 0v1186h-444v248h1159v-248h-449v-1186h-59l-47 -123h33q19 49 81 49q55 0 95.5 -50t40.5 -122q0 -92 -60 -146t-153 -54q-58 0 -108.5 29t-74.5 79l113 62q19 -37 61 -37q28 0 49 18.5t21 50.5q0 29 -21 47.5t-49 18.5q-39 0 -59 -33l-125 64l47 147h-51z" />
    <glyph glyph-name="uni0163" unicode="&#x163;" horiz-adv-x="866" 
d="M594 -446q-58 0 -108 29t-74 79l112 62q19 -37 62 -37q28 0 48.5 18.5t20.5 50.5q0 29 -20.5 47.5t-48.5 18.5q-40 0 -60 -33l-125 64l52 159q-213 52 -213 301v533h-193v215h197v237h250v-237h299v-215h-299v-508q0 -107 104 -107h178v-231h-172l-47 -123h33
q19 49 82 49q55 0 95 -50t40 -122q0 -92 -60 -146t-153 -54z" />
    <glyph glyph-name="Tcaron" unicode="&#x164;" horiz-adv-x="1294" 
d="M512 0v1186h-444v248h1159v-248h-449v-1186h-266zM354 1866v32h158l131 -153h33l129 153h160v-32l-177 -310h-258z" />
    <glyph glyph-name="tcaron" unicode="&#x165;" horiz-adv-x="870" 
d="M569 0q-152 0 -240.5 74.5t-88.5 238.5v533h-193v215h197v237h250v-237h299v-215h-299v-508q0 -107 104 -107h178v-231h-207zM592 1169l33 412h219l-49 -412h-203z" />
    <glyph glyph-name="Tbar" unicode="&#x166;" horiz-adv-x="1294" 
d="M217 666v225h295v295h-444v248h1159v-248h-449v-295h297v-225h-297v-666h-266v666h-295z" />
    <glyph glyph-name="tbar" unicode="&#x167;" horiz-adv-x="866" 
d="M55 518v205h185v123h-193v215h197v237h250v-237h299v-215h-299v-123h282v-205h-282v-180q0 -107 104 -107h178v-231h-207q-152 0 -240.5 74.5t-88.5 238.5v205h-185z" />
    <glyph glyph-name="Utilde" unicode="&#x168;" horiz-adv-x="1431" 
d="M719 -27q-255 0 -413.5 155.5t-158.5 395.5v910h269v-908q0 -140 78 -222.5t225 -82.5q139 0 223 84.5t84 222.5v906h264v-908q0 -157 -71 -283t-202 -198t-298 -72zM362 1589q3 109 61.5 169.5t141.5 60.5q60 0 135 -43l52 -31q52 -29 71 -29q34 0 53 25.5t19 68.5h35
l112 -53q0 -106 -58 -167.5t-140 -61.5q-66 0 -133 43l-49 31q-46 28 -76 28q-34 0 -55 -25.5t-21 -68.5h-35z" />
    <glyph glyph-name="utilde" unicode="&#x169;" horiz-adv-x="1177" 
d="M469 -27q-86 0 -154.5 30.5t-111 82.5t-64.5 117.5t-22 140.5v717h256v-627q0 -96 59 -155.5t152 -59.5q99 0 161 63.5t62 161.5v617h256v-1061h-256v203h-41q-27 -101 -105.5 -165.5t-191.5 -64.5zM242 1257q3 109 61 169.5t141 60.5q61 0 136 -43l51 -31q52 -29 71 -29
q33 0 52.5 26t19.5 69h35l113 -54q0 -106 -58.5 -167.5t-140.5 -61.5q-66 0 -133 43l-49 31q-46 28 -76 28q-34 0 -55 -25.5t-21 -68.5h-35z" />
    <glyph glyph-name="Umacron" unicode="&#x16a;" horiz-adv-x="1431" 
d="M719 -27q-255 0 -413.5 155.5t-158.5 395.5v910h269v-908q0 -140 78 -222.5t225 -82.5q139 0 223 84.5t84 222.5v906h264v-908q0 -157 -71 -283t-202 -198t-298 -72zM451 1581v209h524v-209h-524z" />
    <glyph glyph-name="umacron" unicode="&#x16b;" horiz-adv-x="1177" 
d="M469 -27q-86 0 -154.5 30.5t-111 82.5t-64.5 117.5t-22 140.5v717h256v-627q0 -96 59 -155.5t152 -59.5q99 0 161 63.5t62 161.5v617h256v-1061h-256v203h-41q-27 -101 -105.5 -165.5t-191.5 -64.5zM330 1249v209h524v-209h-524z" />
    <glyph glyph-name="Ubreve" unicode="&#x16c;" horiz-adv-x="1431" 
d="M719 -27q-255 0 -413.5 155.5t-158.5 395.5v910h269v-908q0 -140 78 -222.5t225 -82.5q139 0 223 84.5t84 222.5v906h264v-908q0 -157 -71 -283t-202 -198t-298 -72zM416 1798v43h174v-33q0 -53 30 -84.5t93 -31.5q62 0 92.5 32t30.5 84v33h174v-43q0 -129 -81 -202.5
t-216 -73.5q-136 0 -216.5 73.5t-80.5 202.5z" />
    <glyph glyph-name="ubreve" unicode="&#x16d;" horiz-adv-x="1177" 
d="M469 -27q-86 0 -154.5 30.5t-111 82.5t-64.5 117.5t-22 140.5v717h256v-627q0 -96 59 -155.5t152 -59.5q99 0 161 63.5t62 161.5v617h256v-1061h-256v203h-41q-27 -101 -105.5 -165.5t-191.5 -64.5zM295 1466v43h174v-32q0 -53 30 -85t93 -32q62 0 92.5 32t30.5 85v32
h174v-43q0 -129 -81 -202.5t-216 -73.5q-136 0 -216.5 73.5t-80.5 202.5z" />
    <glyph glyph-name="Uring" unicode="&#x16e;" horiz-adv-x="1431" 
d="M719 -27q-255 0 -413.5 155.5t-158.5 395.5v910h269v-908q0 -140 78 -222.5t225 -82.5q139 0 223 84.5t84 222.5v906h264v-908q0 -157 -71 -283t-202 -198t-298 -72zM485 1716q0 95 64.5 158t161.5 63q100 0 164.5 -62.5t64.5 -156.5q0 -96 -64.5 -159.5t-162.5 -63.5
t-163 63.5t-65 157.5zM627 1716q0 -36 24.5 -62t61.5 -26q38 0 62 26t24 64q0 35 -24.5 60.5t-63.5 25.5q-36 0 -60 -26t-24 -62z" />
    <glyph glyph-name="uring" unicode="&#x16f;" horiz-adv-x="1177" 
d="M469 -27q-86 0 -154.5 30.5t-111 82.5t-64.5 117.5t-22 140.5v717h256v-627q0 -96 59 -155.5t152 -59.5q99 0 161 63.5t62 161.5v617h256v-1061h-256v203h-41q-27 -101 -105.5 -165.5t-191.5 -64.5zM365 1384q0 95 64 158.5t161 63.5q100 0 164.5 -62.5t64.5 -157.5
q0 -96 -64.5 -159.5t-162.5 -63.5t-162.5 63.5t-64.5 157.5zM506 1384q0 -36 24.5 -62t61.5 -26q38 0 62 26t24 64q0 35 -25 61t-63 26q-36 0 -60 -26.5t-24 -62.5z" />
    <glyph glyph-name="Uhungarumlaut" unicode="&#x170;" horiz-adv-x="1431" 
d="M719 -27q-255 0 -413.5 155.5t-158.5 395.5v910h269v-908q0 -140 78 -222.5t225 -82.5q139 0 223 84.5t84 222.5v906h264v-908q0 -157 -71 -283t-202 -198t-298 -72zM461 1518v32l110 312h222v-35l-160 -309h-172zM778 1518v32l111 312h221v-35l-160 -309h-172z" />
    <glyph glyph-name="uhungarumlaut" unicode="&#x171;" horiz-adv-x="1177" 
d="M469 -27q-86 0 -154.5 30.5t-111 82.5t-64.5 117.5t-22 140.5v717h256v-627q0 -96 59 -155.5t152 -59.5q99 0 161 63.5t62 161.5v617h256v-1061h-256v203h-41q-27 -101 -105.5 -165.5t-191.5 -64.5zM340 1186v33l111 311h221v-35l-160 -309h-172zM657 1186v33l111 311
h221v-35l-160 -309h-172z" />
    <glyph glyph-name="Uogonek" unicode="&#x172;" horiz-adv-x="1431" 
d="M731 -446q-78 0 -138.5 44.5t-60.5 127.5q0 63 54 139l80 110q-233 17 -376 169.5t-143 379.5v910h269v-908q0 -140 78 -222.5t225 -82.5q139 0 223 84.5t84 222.5v906h264v-908q0 -195 -108 -337.5t-291 -192.5l-125 -172q-23 -33 -23 -51q0 -25 17 -40.5t39 -15.5
q25 0 51 17l45 -144q-66 -36 -164 -36z" />
    <glyph glyph-name="uogonek" unicode="&#x173;" horiz-adv-x="1177" 
d="M469 -27q-86 0 -154.5 30.5t-111 82.5t-64.5 117.5t-22 140.5v717h256v-627q0 -96 59 -155.5t152 -59.5q99 0 161 63.5t62 161.5v617h256v-1061l-129 -176q-23 -33 -23 -51q0 -25 17 -40.5t39 -15.5q25 0 51 17l45 -144q-66 -36 -164 -36q-78 0 -138.5 44.5t-60.5 127.5
q0 63 54 139l98 135h-45v203h-41q-27 -101 -105.5 -165.5t-191.5 -64.5z" />
    <glyph glyph-name="Wcircumflex" unicode="&#x174;" horiz-adv-x="1976" 
d="M295 0l-264 1399v35h276l201 -1203h43l201 1203h473l200 -1203h43l203 1203h275v-35l-265 -1399h-471l-200 1202h-43l-203 -1202h-469zM684 1518v32l176 310h258l176 -310v-32h-157l-131 153h-33l-129 -153h-160z" />
    <glyph glyph-name="wcircumflex" unicode="&#x175;" horiz-adv-x="1669" 
d="M254 0l-223 1026v35h262l156 -830h43l135 830h413l138 -830h43l161 830h256v-35l-223 -1026h-426l-131 829h-43l-137 -829h-424zM535 1186v33l176 309h258l176 -309v-33h-158l-131 153h-33l-129 -153h-159z" />
    <glyph glyph-name="Ycircumflex" unicode="&#x176;" horiz-adv-x="1357" 
d="M545 0v565h-49l-465 834v35h282l344 -639h43l336 639h291v-35l-471 -834h-45v-565h-266zM371 1518v32l176 310h258l176 -310v-32h-158l-131 153h-33l-129 -153h-159z" />
    <glyph glyph-name="ycircumflex" unicode="&#x177;" horiz-adv-x="1187" 
d="M379 0l-348 1026v35h262l272 -830h43l281 830h268v-35l-366 -1026l-152 -430h-279v35l144 395h-125zM291 1169v33l176 309h258l176 -309v-33h-158l-131 154h-32l-129 -154h-160z" />
    <glyph glyph-name="Ydieresis" unicode="&#x178;" horiz-adv-x="1357" 
d="M545 0v565h-49l-465 834v35h282l344 -639h43l336 639h291v-35l-471 -834h-45v-565h-266zM350 1571v270h252v-270h-252zM743 1571v270h252v-270h-252z" />
    <glyph glyph-name="Zacute" unicode="&#x179;" horiz-adv-x="1390" 
d="M127 0v416l866 719v41h-839v258h1106v-416l-867 -719v-41h871v-258h-1137zM592 1518v32l123 312h231v-35l-172 -309h-182z" />
    <glyph glyph-name="zacute" unicode="&#x17a;" horiz-adv-x="1077" 
d="M76 0v399l659 396v41h-641v225h897v-395l-659 -398v-41h669v-227h-925zM426 1186v33l123 311h231v-35l-172 -309h-182z" />
    <glyph glyph-name="Zdotaccent" unicode="&#x17b;" horiz-adv-x="1390" 
d="M127 0v416l866 719v41h-839v258h1106v-416l-867 -719v-41h871v-258h-1137zM582 1565v278h260v-278h-260z" />
    <glyph glyph-name="zdotaccent" unicode="&#x17c;" horiz-adv-x="1077" 
d="M76 0v399l659 396v41h-641v225h897v-395l-659 -398v-41h669v-227h-925zM416 1233v278h260v-278h-260z" />
    <glyph glyph-name="Zcaron" unicode="&#x17d;" horiz-adv-x="1390" 
d="M127 0v416l866 719v41h-839v258h1106v-416l-867 -719v-41h871v-258h-1137zM397 1825v33h158l131 -154h33l129 154h160v-33l-177 -309h-258z" />
    <glyph glyph-name="zcaron" unicode="&#x17e;" horiz-adv-x="1077" 
d="M76 0v399l659 396v41h-641v225h897v-395l-659 -398v-41h669v-227h-925zM231 1493v33h158l131 -154h33l129 154h160v-33l-176 -309h-258z" />
    <glyph glyph-name="uni01CD" unicode="&#x1cd;" horiz-adv-x="1378" 
d="M25 0v35l442 1399h444l443 -1399v-35h-269l-92 295h-608l-92 -295h-268zM393 1825v33h158l131 -154h33l129 154h160v-33l-177 -309h-258zM461 545h454l-206 657h-43z" />
    <glyph glyph-name="uni01CE" unicode="&#x1ce;" horiz-adv-x="1155" 
d="M453 -27q-157 0 -262 94t-105 248q0 149 106.5 240.5t286.5 91.5h299v27q0 86 -58 141t-153 55q-90 0 -142.5 -46t-64.5 -107l-227 63q40 146 154.5 226.5t279.5 80.5q110 0 200 -35t145.5 -93.5t85.5 -131.5t30 -153v-420q0 -49 53 -49h33v-205h-149q-77 0 -121.5 44
t-44.5 116v47h-41q-15 -109 -96.5 -171.5t-208.5 -62.5zM274 1493v33h158l131 -154h33l129 154h160v-33l-176 -309h-258zM344 322q0 -61 48.5 -100.5t123.5 -39.5q129 0 195.5 70.5t66.5 177.5v27h-266q-77 0 -122.5 -34t-45.5 -101z" />
    <glyph glyph-name="uni01CF" unicode="&#x1cf;" horiz-adv-x="1073" 
d="M129 0v248h274v940h-274v246h815v-246h-274v-940h274v-248h-815zM246 1825v33h157l132 -154h32l129 154h160v-33l-176 -309h-258z" />
    <glyph glyph-name="uni01D0" unicode="&#x1d0;" horiz-adv-x="516" 
d="M137 0v1061h256v-1061h-256zM-43 1493v33h158l131 -154h33l129 154h159v-33l-176 -309h-258z" />
    <glyph glyph-name="uni01D1" unicode="&#x1d1;" horiz-adv-x="1648" 
d="M821 -27q-213 0 -384 97t-266 267t-95 380q0 156 56 293t154 236t237.5 156.5t299.5 57.5q161 0 301.5 -58t238.5 -157.5t154 -236.5t56 -291q0 -208 -96 -378t-268.5 -268t-387.5 -98zM350 717q0 -216 136.5 -352t336.5 -136q131 0 239 60t172 172.5t64 255.5
q0 213 -137.5 350t-337.5 137t-336.5 -137t-136.5 -350zM526 1825v33h158l131 -154h33l129 154h160v-33l-176 -309h-259z" />
    <glyph glyph-name="uni01D2" unicode="&#x1d2;" horiz-adv-x="1249" 
d="M625 -27q-163 0 -293 71t-203.5 198.5t-73.5 287.5q0 242 161.5 399.5t408.5 157.5q156 0 286 -71.5t206.5 -199.5t76.5 -286q0 -159 -76.5 -287t-206.5 -199t-286 -71zM315 530q0 -146 88 -234.5t222 -88.5q133 0 221 88.5t88 234.5q0 141 -88.5 232.5t-220.5 91.5
t-221 -91.5t-89 -232.5zM319 1493v33h158l131 -154h33l129 154h160v-33l-176 -309h-258z" />
    <glyph glyph-name="Gcaron" unicode="&#x1e6;" horiz-adv-x="1646" 
d="M778 -27q-195 0 -356 97t-253.5 267.5t-92.5 379.5q0 208 95.5 378t266.5 267.5t383 97.5q234 0 401 -105t253 -282l-234 -127q-52 117 -161 187.5t-259 70.5q-201 0 -336 -136.5t-135 -350.5q0 -217 133 -352.5t334 -135.5q162 0 286 90t154 236h-426v236h699v-791h-273
v223h-40q-48 -119 -161 -184.5t-278 -65.5zM537 1825v33h157l131 -154h33l129 154h160v-33l-176 -309h-258z" />
    <glyph glyph-name="gcaron" unicode="&#x1e7;" horiz-adv-x="1210" 
d="M575 -457q-154 0 -271.5 33t-190 106.5t-72.5 180.5q0 88 65.5 151.5t176.5 63.5h41v41q-70 9 -115 53t-45 107q0 50 26.5 86.5t63.5 56.5q-56 46 -88.5 116t-32.5 154q0 174 120.5 284.5t315.5 110.5q81 0 146 -22l411 16v-207h-299v-40q81 -11 125.5 -67t44.5 -128
q0 -79 -36 -141.5t-96.5 -100.5t-136 -58t-159.5 -20q-61 0 -123 15q-30 -15 -30 -49q0 -32 25 -49t63 -17h282q164 0 260.5 -83.5t96.5 -221.5q0 -80 -32 -144t-85.5 -106t-127.5 -69.5t-154 -39.5t-169 -12zM299 1493v33h158l131 -154h33l129 154h159v-33l-176 -309h-258z
M301 -102q0 -140 274 -140q142 0 224 35.5t82 106.5q0 48 -33.5 77t-102.5 29h-309q-60 0 -97.5 -29t-37.5 -79zM387 692q0 -91 49 -141.5t133 -50.5t133.5 50.5t49.5 141.5q0 79 -51 134t-132 55t-131.5 -55t-50.5 -134z" />
    <glyph glyph-name="uni0218" unicode="&#x218;" horiz-adv-x="1294" 
d="M649 -27q-226 0 -372.5 110.5t-184.5 293.5l246 74q21 -104 103 -167t208 -63q129 0 203 52.5t74 136.5q0 133 -178 178l-218 51q-77 19 -140 49.5t-119 79t-87.5 121.5t-31.5 164q0 82 34.5 155.5t97 129.5t158 89t209.5 33q202 0 340.5 -96.5t173.5 -263.5l-247 -70
q-16 81 -85.5 135t-181.5 54q-110 0 -172.5 -48.5t-62.5 -117.5q0 -66 46.5 -103.5t131.5 -60.5l217 -53q383 -96 383 -426q0 -87 -36.5 -165.5t-103.5 -139.5t-172 -96.5t-233 -35.5zM496 -379q44 3 67 21t23 61v6h-76v213h240v-233q0 -167 -172 -201h-29z" />
    <glyph glyph-name="uni0219" unicode="&#x219;" horiz-adv-x="1079" 
d="M532 -27q-181 0 -301.5 86t-154.5 238l229 59q18 -81 80 -122t150 -41q99 0 149.5 33t50.5 83q0 87 -121 109l-192 39q-58 11 -107.5 33.5t-92 58.5t-67 92t-24.5 125q0 136 114.5 228.5t305.5 92.5q171 0 288 -83.5t148 -223.5l-223 -59q-12 68 -70.5 112t-142.5 44
q-81 0 -126.5 -32.5t-45.5 -78.5q0 -77 121 -102l180 -35q307 -59 307 -320q0 -153 -122.5 -244.5t-332.5 -91.5zM385 -379q44 3 67 21t23 61v6h-76v213h240v-233q0 -167 -172 -201h-29z" />
    <glyph glyph-name="uni021A" unicode="&#x21a;" horiz-adv-x="1294" 
d="M512 0v1186h-444v248h1159v-248h-449v-1186h-266zM510 -379q44 3 67 21t23 61v6h-76v213h240v-233q0 -167 -172 -201h-29z" />
    <glyph glyph-name="uni021B" unicode="&#x21b;" horiz-adv-x="866" 
d="M569 0q-152 0 -240.5 74.5t-88.5 238.5v533h-193v215h197v237h250v-237h299v-215h-299v-508q0 -107 104 -107h178v-231h-207zM395 -379q44 3 67 21t23 61v6h-75v213h239v-233q0 -167 -172 -201h-28z" />
    <glyph glyph-name="uni0237" unicode="&#x237;" horiz-adv-x="501" 
d="M-57 -430v242h65q51 0 83 27.5t32 84.5v1135h256l-2 -1147q0 -167 -93 -254.5t-241 -87.5h-100z" />
    <glyph glyph-name="circumflex" unicode="&#x2c6;" horiz-adv-x="761" 
d="M252 1534h258l176 -309v-33h-158l-131 154h-32l-129 -154h-160v33z" />
    <glyph glyph-name="caron" unicode="&#x2c7;" horiz-adv-x="761" 
d="M510 1190h-258l-176 309v33h157l132 -154h32l129 154h160v-33z" />
    <glyph glyph-name="breve" unicode="&#x2d8;" horiz-adv-x="724" 
d="M362 1196q-136 0 -216 73.5t-80 203.5v43h174v-33q0 -53 29.5 -85t92.5 -32q62 0 92.5 32t30.5 85v33h174v-43q0 -129 -81 -203t-216 -74z" />
    <glyph glyph-name="dotaccent" unicode="&#x2d9;" horiz-adv-x="436" 
d="M88 1239v279h260v-279h-260z" />
    <glyph glyph-name="ring" unicode="&#x2da;" horiz-adv-x="573" 
d="M287 1169q-98 0 -163 64t-65 158q0 95 64.5 158t161.5 63q100 0 164.5 -62.5t64.5 -156.5q0 -96 -64.5 -160t-162.5 -64zM201 1391q0 -36 24.5 -62t61.5 -26q38 0 62 26t24 64q0 35 -24.5 60.5t-63.5 25.5q-36 0 -60 -26t-24 -62z" />
    <glyph glyph-name="ogonek" unicode="&#x2db;" horiz-adv-x="512" 
d="M274 -446q-78 0 -138 44.5t-60 127.5q0 65 53 139l98 135h211l-129 -176q-22 -31 -22 -51q0 -25 16.5 -40.5t38.5 -15.5q26 0 51 17l45 -144q-66 -36 -164 -36z" />
    <glyph glyph-name="tilde" unicode="&#x2dc;" horiz-adv-x="831" 
d="M557 1202q-66 0 -133 43l-49 31q-48 29 -76 29q-34 0 -55 -26t-21 -69h-35l-112 54q3 109 61.5 169t141.5 60q60 0 135 -43l51 -31q50 -28 72 -28q33 0 52 25.5t19 68.5h35l113 -53q0 -106 -58.5 -168t-140.5 -62z" />
    <glyph glyph-name="hungarumlaut" unicode="&#x2dd;" horiz-adv-x="804" 
d="M406 1192v33l110 311h221v-35l-159 -309h-172zM88 1192v33l111 311h221v-35l-160 -309h-172z" />
    <glyph glyph-name="uni0326" unicode="&#x326;" horiz-adv-x="0" 
d="M150 -512h-29l-53 133q44 3 67 21t23 61v6h-76v213h240v-233q0 -167 -172 -201z" />
    <glyph glyph-name="Wgrave" unicode="&#x1e80;" horiz-adv-x="1976" 
d="M295 0l-264 1399v35h276l201 -1203h43l201 1203h473l200 -1203h43l203 1203h275v-35l-265 -1399h-471l-200 1202h-43l-203 -1202h-469zM750 1827v35h231l123 -312v-32h-182z" />
    <glyph glyph-name="wgrave" unicode="&#x1e81;" horiz-adv-x="1669" 
d="M254 0l-223 1026v35h262l156 -830h43l135 830h413l138 -830h43l161 830h256v-35l-223 -1026h-426l-131 829h-43l-137 -829h-424zM600 1495v35h231l123 -311v-33h-182z" />
    <glyph glyph-name="Wacute" unicode="&#x1e82;" horiz-adv-x="1976" 
d="M295 0l-264 1399v35h276l201 -1203h43l201 1203h473l200 -1203h43l203 1203h275v-35l-265 -1399h-471l-200 1202h-43l-203 -1202h-469zM881 1518v32l123 312h231v-35l-172 -309h-182z" />
    <glyph glyph-name="wacute" unicode="&#x1e83;" horiz-adv-x="1669" 
d="M254 0l-223 1026v35h262l156 -830h43l135 830h413l138 -830h43l161 830h256v-35l-223 -1026h-426l-131 829h-43l-137 -829h-424zM731 1186v33l123 311h231v-35l-172 -309h-182z" />
    <glyph glyph-name="Wdieresis" unicode="&#x1e84;" horiz-adv-x="1976" 
d="M295 0l-264 1399v35h276l201 -1203h43l201 1203h473l200 -1203h43l203 1203h275v-35l-265 -1399h-471l-200 1202h-43l-203 -1202h-469zM664 1571v270h251v-270h-251zM1057 1571v270h252v-270h-252z" />
    <glyph glyph-name="wdieresis" unicode="&#x1e85;" horiz-adv-x="1669" 
d="M254 0l-223 1026v35h262l156 -830h43l135 830h413l138 -830h43l161 830h256v-35l-223 -1026h-426l-131 829h-43l-137 -829h-424zM512 1239v270h252v-270h-252zM905 1239v270h252v-270h-252z" />
    <glyph glyph-name="uni1E9E" unicode="&#x1e9e;" horiz-adv-x="1499" 
d="M926 -25q-250 0 -391 187l178 170q77 -111 213 -111q100 0 154.5 53.5t54.5 133.5q0 73 -56 121.5t-151 48.5h-258v356l319 213v41h-346q-105 0 -161 -57.5t-56 -149.5v-981h-258v977q0 91 29.5 172t86.5 145.5t149.5 102t209.5 37.5h631v-387l-326 -209v-41h49
q122 0 215.5 -56t140 -143.5t46.5 -189.5q0 -190 -127 -311.5t-346 -121.5z" />
    <glyph glyph-name="uni1EBC" unicode="&#x1ebc;" 
d="M168 0v1434h891v-246h-627v-338h557v-240h-557v-364h649v-246h-913zM293 1589q3 109 61.5 169.5t141.5 60.5q60 0 135 -43l51 -31q52 -29 72 -29q33 0 52 25.5t19 68.5h35l113 -53q0 -106 -58.5 -167.5t-140.5 -61.5q-66 0 -133 43l-49 31q-46 28 -76 28q-34 0 -55 -25.5
t-21 -68.5h-34z" />
    <glyph glyph-name="uni1EBD" unicode="&#x1ebd;" horiz-adv-x="1159" 
d="M602 -27q-237 0 -392 156.5t-155 405.5q0 240 151.5 396t389.5 156q154 0 273 -73t179 -189.5t58 -251.5l-2 -129h-797q21 -119 99.5 -183t195.5 -64q82 0 151.5 37.5t104.5 93.5l186 -127q-69 -106 -181 -167t-261 -61zM236 1241q3 109 61 169t141 60q60 0 135 -43
l52 -30q52 -29 71 -29q34 0 53 25.5t19 68.5h35l112 -53q0 -106 -58 -167.5t-140 -61.5q-66 0 -133 43l-49 30q-48 29 -76 29q-34 0 -55 -25.5t-21 -68.5h-35zM313 651h545q-5 91 -79 158.5t-183 67.5q-108 0 -182 -60.5t-101 -165.5z" />
    <glyph glyph-name="Ygrave" unicode="&#x1ef2;" horiz-adv-x="1357" 
d="M545 0v565h-49l-465 834v35h282l344 -639h43l336 639h291v-35l-471 -834h-45v-565h-266zM436 1827v35h232l123 -312v-32h-183z" />
    <glyph glyph-name="ygrave" unicode="&#x1ef3;" horiz-adv-x="1187" 
d="M379 0l-348 1026v35h262l272 -830h43l281 830h268v-35l-366 -1026l-152 -430h-279v35l144 395h-125zM356 1479v34h232l123 -311v-33h-183z" />
    <glyph glyph-name="endash" unicode="&#x2013;" horiz-adv-x="1347" 
d="M129 492v213h1090v-213h-1090z" />
    <glyph glyph-name="emdash" unicode="&#x2014;" horiz-adv-x="1890" 
d="M129 492v213h1632v-213h-1632z" />
    <glyph glyph-name="quoteleft" unicode="&#x2018;" horiz-adv-x="491" 
d="M326 1434h34l60 -148q-78 -22 -108.5 -65.5t-30.5 -114.5v-35h104v-307h-293v352q0 111 62.5 199.5t171.5 118.5z" />
    <glyph glyph-name="quoteright" unicode="&#x2019;" horiz-adv-x="491" 
d="M166 764h-35l-59 147q78 22 108.5 66t30.5 115v34h-105v308h293v-353q0 -111 -62 -199t-171 -118z" />
    <glyph glyph-name="quotesinglbase" unicode="&#x201a;" horiz-adv-x="489" 
d="M162 -362h-35l-59 147q78 22 108.5 65.5t30.5 114.5v35h-105v307h293v-352q0 -111 -62 -199t-171 -118z" />
    <glyph glyph-name="quotedblleft" unicode="&#x201c;" horiz-adv-x="886" 
d="M326 1434h34l60 -148q-78 -22 -108.5 -65.5t-30.5 -114.5v-35h104v-307h-293v352q0 111 62.5 199.5t171.5 118.5zM487 764v352q0 111 62.5 199.5t171.5 118.5h35l59 -148q-78 -22 -108.5 -65.5t-30.5 -114.5v-35h104v-307h-293z" />
    <glyph glyph-name="quotedblright" unicode="&#x201d;" horiz-adv-x="886" 
d="M567 764h-35l-59 147q78 22 108.5 66t30.5 115v34h-104v308h293v-353q0 -111 -62.5 -199t-171.5 -118zM76 911q78 22 108.5 66t30.5 115v34h-104v308h292v-353q0 -111 -62 -199t-171 -118h-35z" />
    <glyph glyph-name="quotedblbase" unicode="&#x201e;" horiz-adv-x="890" 
d="M563 -362h-35l-59 147q78 22 108.5 65.5t30.5 114.5v35h-104v307h293v-352q0 -111 -62.5 -199t-171.5 -118zM74 -215q78 22 108.5 65.5t30.5 114.5v35h-104v307h292v-352q0 -111 -62 -199t-171 -118h-35z" />
    <glyph glyph-name="dagger" unicode="&#x2020;" horiz-adv-x="841" 
d="M317 580v442h-215v178h215v234h203v-234h219v-178h-219v-442h-203z" />
    <glyph glyph-name="daggerdbl" unicode="&#x2021;" horiz-adv-x="841" 
d="M317 346v234h-215v178h215v264h-215v178h215v234h203v-234h219v-178h-219v-264h219v-178h-219v-234h-203z" />
    <glyph glyph-name="bullet" unicode="&#x2022;" horiz-adv-x="950" 
d="M475 283q-151 0 -251.5 102t-100.5 250t100.5 250t251.5 102t251.5 -102t100.5 -250t-100.5 -250t-251.5 -102z" />
    <glyph glyph-name="perthousand" unicode="&#x2030;" horiz-adv-x="2252" 
d="M459 0v20l639 1311h213v-20l-639 -1311h-213zM76 866v185q0 131 85.5 219t231.5 88q145 0 231.5 -88.5t86.5 -218.5v-185q0 -132 -86.5 -219.5t-231.5 -87.5q-146 0 -231.5 87.5t-85.5 219.5zM264 868q0 -62 36 -97.5t93 -35.5t93 35.5t36 97.5v181q0 60 -36 95.5
t-93 35.5t-93 -35.5t-36 -95.5v-181zM1059 285v176q0 132 80.5 221.5t214.5 89.5q86 0 149 -42.5t80 -111.5h70q17 69 80 111.5t149 42.5q136 0 215.5 -89t79.5 -222v-176q0 -133 -79.5 -222.5t-215.5 -89.5q-86 0 -149 42.5t-80 111.5h-70q-17 -69 -80 -111.5t-149 -42.5
q-134 0 -214.5 90t-80.5 222zM1247 287q0 -62 36 -98.5t95 -36.5q58 0 95.5 36.5t37.5 98.5v172q0 62 -37.5 98.5t-95.5 36.5q-59 0 -95 -36.5t-36 -98.5v-172zM1726 287q0 -62 37 -98.5t95 -36.5q59 0 95 36.5t36 98.5v172q0 62 -36 98.5t-95 36.5q-58 0 -95 -36.5
t-37 -98.5v-172z" />
    <glyph glyph-name="guilsinglleft" unicode="&#x2039;" horiz-adv-x="657" 
d="M518 174l-412 287v244l412 286h33v-225l-238 -164v-41l238 -162v-225h-33z" />
    <glyph glyph-name="guilsinglright" unicode="&#x203a;" horiz-adv-x="657" 
d="M139 174h-33v225l238 162v41l-238 164v225h33l412 -286v-244z" />
    <glyph glyph-name="fraction" unicode="&#x2044;" horiz-adv-x="972" 
d="M-6 -104v34l735 1485h250v-35l-735 -1484h-250z" />
    <glyph glyph-name="Euro" unicode="&#x20ac;" horiz-adv-x="1310" 
d="M694 -27q-70 0 -138.5 18.5t-131 56.5t-111 92t-78.5 130.5t-32 165.5h-107v193h107v67h-107v193h107q1 111 45.5 202.5t115.5 148.5t156 87.5t174 30.5q140 0 263 -68.5t182 -193.5l-232 -129q-25 64 -82 101.5t-131 37.5q-96 0 -160.5 -60.5t-70.5 -156.5h307v-193
h-307v-67h307v-193h-307q9 -95 73 -153t158 -58q75 0 132.5 40t80.5 106l236 -123q-59 -130 -183.5 -202.5t-265.5 -72.5z" />
    <glyph glyph-name="trademark" unicode="&#x2122;" horiz-adv-x="1789" 
d="M319 696v582h-202v156h571v-156h-205v-582h-164zM807 696v738h332l82 -578h41l81 578h330v-738h-160v580h-40l-87 -580h-292l-86 580h-41v-580h-160z" />
    <glyph glyph-name="arrowleft" unicode="&#x2190;" horiz-adv-x="1769" 
d="M1688 754v-258h-1223v-41q60 -5 113.5 -20.5t109.5 -52.5t95.5 -92.5t65 -145.5t25.5 -205h-270q0 133 -36.5 235t-91 160t-128 94.5t-137 48.5t-129.5 12v271q66 0 129.5 12t137 48.5t128 95t91 160.5t36.5 235h270q0 -115 -25.5 -205t-65 -145.5t-95.5 -92.5
t-109.5 -52.5t-113.5 -20.5v-41h1223z" />
    <glyph glyph-name="arrowup" unicode="&#x2191;" horiz-adv-x="1536" 
d="M639 0v1223h-41q-5 -60 -20.5 -113.5t-52.5 -109.5t-92.5 -96t-145.5 -65.5t-205 -25.5v270q96 0 176.5 19t136.5 50.5t99 76t68.5 90.5t42 99t22.5 98t6 90h270q0 -45 6 -90t22.5 -98t42 -99t68.5 -90.5t99 -76t136.5 -50.5t176.5 -19v-270q-115 0 -205 25.5
t-145.5 65.5t-92.5 96t-52.5 109.5t-20.5 113.5h-41v-1223h-258z" />
    <glyph glyph-name="arrowright" unicode="&#x2192;" horiz-adv-x="1769" 
d="M82 754h1223v41q-60 5 -113.5 20.5t-109.5 52.5t-96 92.5t-65.5 145.5t-25.5 205h270q0 -96 19 -176.5t50.5 -136.5t76 -99t90.5 -68.5t99 -42t98 -22.5t90 -6v-271q-45 0 -90 -6t-98 -22t-99 -41.5t-90.5 -69t-76 -99t-50.5 -136t-19 -176.5h-270q0 115 25.5 205
t65.5 145.5t96 92.5t109.5 52.5t113.5 20.5v41h-1223v258z" />
    <glyph glyph-name="arrowdown" unicode="&#x2193;" horiz-adv-x="1536" 
d="M639 1444h258v-1223h41q5 60 20.5 113.5t52.5 109.5t92.5 96t145.5 65.5t205 25.5v-271q-133 0 -235 -36.5t-160.5 -91t-95 -128t-48.5 -137t-12 -129.5h-270q0 66 -12 129.5t-48.5 137t-95 128t-160.5 91t-235 36.5v271q115 0 205 -25.5t145.5 -65.5t92.5 -96
t52.5 -109.5t20.5 -113.5h41v1223z" />
    <glyph glyph-name="uni2196" unicode="&#x2196;" horiz-adv-x="1507" 
d="M1425 410l-182 -185l-866 867l-29 -31q40 -45 66.5 -94t40 -114.5t2 -132.5t-57 -148.5t-127.5 -163.5l-190 190q68 68 111.5 138.5t61 132.5t17 123.5t-15.5 112.5t-41 100t-53.5 85t-59.5 68l191 190q47 -46 100 -82.5t131.5 -62.5t158 -23.5t178 49t192.5 140.5
l190 -191q-82 -82 -163.5 -127.5t-148.5 -56.5t-132.5 2.5t-114.5 40t-94 66.5l-31 -29z" />
    <glyph glyph-name="uni2197" unicode="&#x2197;" horiz-adv-x="1507" 
d="M82 410l864 864l-28 29q-45 -40 -94 -66.5t-114.5 -40t-133 -2.5t-149 56.5t-163.5 127.5l191 191q68 -68 138 -111.5t131.5 -61t123.5 -16.5t112.5 15.5t99.5 40.5t84.5 53t67.5 59l193 -190q-32 -32 -59.5 -68t-53.5 -85t-41 -100t-15.5 -112.5t17 -123.5t61 -132.5
t111.5 -138.5l-192 -190q-81 82 -126.5 163.5t-56.5 148.5t2.5 132.5t40 114.5t66.5 94l-31 31l-864 -867z" />
    <glyph glyph-name="uni2198" unicode="&#x2198;" horiz-adv-x="1507" 
d="M82 987l182 182l864 -864l31 29q-40 45 -66.5 94t-40 114.5t-2.5 132.5t56.5 148.5t126.5 163.5l192 -190q-68 -68 -111.5 -138.5t-61 -132.5t-17 -123.5t15.5 -112.5t41 -100t53.5 -85t59.5 -68l-193 -191q-46 46 -99 83t-131 63t-157.5 24t-177.5 -49t-192 -141
l-191 192q82 81 163.5 126.5t149 56.5t133 -2.5t114.5 -40t94 -66.5l28 29z" />
    <glyph glyph-name="uni2199" unicode="&#x2199;" horiz-adv-x="1507" 
d="M1425 987l-866 -866l31 -29q45 40 94 66.5t114.5 40t132.5 2.5t148.5 -56.5t163.5 -126.5l-190 -192q-68 68 -138.5 111.5t-132.5 61t-123.5 17t-112.5 -15.5t-100 -41t-85 -53.5t-68 -59.5l-191 191q32 32 59.5 68t53.5 85t41 100t15.5 112.5t-17 123.5t-61 132.5
t-111.5 138.5l190 190q82 -82 127.5 -163.5t57 -148.5t-2 -132.5t-40 -114.5t-66.5 -94l29 -29l866 864z" />
    <glyph glyph-name="minus" unicode="&#x2212;" horiz-adv-x="901" 
d="M10 543v190h881v-190h-881z" />
    <glyph glyph-name="i.loclTRK" horiz-adv-x="509" 
d="M137 0v1061h256v-1061h-256zM135 1239v279h260v-279h-260z" />
    <glyph glyph-name="zero.ss01" 
d="M588 -27q-89 0 -175.5 31t-157.5 88.5t-115 151t-44 207.5v430q0 92 29 171t77.5 134.5t112 94.5t133 58t140.5 19t140.5 -19t133 -58t112 -94.5t77 -134.5t28.5 -171v-430q0 -114 -43.5 -207.5t-115 -151t-157.5 -88.5t-175 -31zM356 604l414 414q-66 88 -182 88
q-100 0 -166 -67t-66 -169v-266zM403 315q65 -90 185 -90q100 0 165.5 66.5t65.5 169.5v270z" />
    <glyph glyph-name="zero.tf" 
d="M588 -27q-89 0 -175.5 31t-157.5 88.5t-115 151t-44 207.5v430q0 92 29 171t77.5 134.5t112 94.5t133 58t140.5 19t140.5 -19t133 -58t112 -94.5t77 -134.5t28.5 -171v-430q0 -114 -43.5 -207.5t-115 -151t-157.5 -88.5t-175 -31zM356 461q0 -102 66 -169t166 -67
t165.5 66.5t65.5 169.5v409q0 102 -66 169t-165 67q-100 0 -166 -67t-66 -169v-409z" />
    <glyph glyph-name="one.tf" horiz-adv-x="1171" 
d="M166 0v250h338v819h-41q-9 -134 -96 -207.5t-217 -73.5v277q143 0 238 60t95 175v31h283v-1081h270v-250h-870z" />
    <glyph glyph-name="two.tf" horiz-adv-x="1171" 
d="M123 0v426l522 301q66 37 99.5 88t33.5 105q0 72 -54 130t-153 58q-98 0 -157 -62t-66 -145l-225 103q23 149 143.5 251.5t304.5 102.5q113 0 205 -37t149.5 -98t88 -136t30.5 -155q0 -137 -69.5 -239t-216.5 -177l-402 -229v-41h693v-246h-926z" />
    <glyph glyph-name="three.tf" horiz-adv-x="1171" 
d="M582 -25q-186 0 -315.5 95t-160.5 245l228 101q20 -79 82 -135t166 -56q106 0 163.5 51.5t57.5 133.5q0 69 -54.5 117t-150.5 48h-113v228h105q87 0 134.5 43.5t47.5 103.5q0 64 -51.5 111t-147.5 47q-94 0 -151.5 -60t-65.5 -143l-231 99q23 150 146.5 252t314.5 102
q107 0 194 -28.5t142 -76.5t84.5 -108t29.5 -125q0 -97 -65.5 -166t-171.5 -70v-41q116 -23 193 -117t77 -216q0 -89 -30 -166.5t-88 -138t-153 -95.5t-216 -35z" />
    <glyph glyph-name="four.tf" horiz-adv-x="1171" 
d="M670 0v246h-590v366l422 719h289v-35l-480 -776v-41h359v252h258v-252h162v-233h-162v-246h-258z" />
    <glyph glyph-name="five.tf" horiz-adv-x="1171" 
d="M571 -25q-184 0 -306 92.5t-159 235.5l228 98q18 -70 77.5 -123t157.5 -53q102 0 167 65.5t65 164.5q0 95 -66.5 161t-167.5 66q-74 0 -128 -39.5t-74 -89.5l-254 98l51 680h801v-233h-584l-29 -383l39 -13q29 89 101.5 144t177.5 55q117 0 208.5 -61t140 -162.5
t48.5 -222.5q0 -128 -57 -236t-171.5 -176t-265.5 -68z" />
    <glyph glyph-name="six.tf" horiz-adv-x="1171" 
d="M588 -27q-130 0 -242.5 58t-182 168t-69.5 247q0 146 92 287l385 598h271v-35l-346 -510l32 -24q26 41 74.5 71.5t114.5 30.5q152 0 256 -123t104 -295q0 -213 -137.5 -343t-351.5 -130zM342 446q0 -100 72 -167.5t174 -67.5q101 0 172 67.5t71 167.5t-71 169t-172 69
q-102 0 -174 -69t-72 -169z" />
    <glyph glyph-name="seven.tf" horiz-adv-x="1171" 
d="M272 0v35l547 1022v41h-469v-170h-231v403h944v-336l-524 -995h-267z" />
    <glyph glyph-name="eight.tf" horiz-adv-x="1171" 
d="M618 819q142 47 142 176q0 57 -46.5 99.5t-127.5 42.5q-72 0 -121 -39.5t-49 -102.5q0 -86 116 -139zM100 346q0 60 19 110.5t49.5 84t69.5 57.5t77.5 35t75.5 12v41l-10 4q-92 41 -153.5 119t-61.5 195q0 161 119 257.5t301 96.5q183 0 303.5 -90.5t120.5 -231.5
q0 -103 -70 -168.5t-182 -66.5v-41l18 -8q295 -128 295 -381q0 -178 -133 -288t-348 -110q-133 0 -242.5 42t-178.5 128t-69 203zM365 393q0 -82 63.5 -134t161.5 -52q99 0 158 51.5t59 126.5q0 109 -133 170l-113 51q-76 -12 -136 -67t-60 -146z" />
    <glyph glyph-name="nine.tf" horiz-adv-x="1171" 
d="M584 1358q97 0 186.5 -34.5t157.5 -95.5t108.5 -150.5t40.5 -192.5q0 -146 -92 -287l-385 -598h-270v35l346 510l-33 24q-25 -41 -73.5 -70.5t-114.5 -29.5q-152 0 -256.5 122t-104.5 294q0 211 140 342t350 131zM340 885q0 -101 71 -169.5t173 -68.5t173.5 68.5
t71.5 169.5t-71 168t-174 67t-173.5 -66.5t-70.5 -168.5z" />
    <glyph glyph-name="caron.Slovak" horiz-adv-x="403" 
d="M76 1022l33 412h219l-49 -412h-203z" />
    </font>
</defs>
</svg>
