<?xml version="1.0" standalone="no"?>
<!DOCTYPE svg PUBLIC "-//W3C//DTD SVG 1.1//EN" "http://www.w3.org/Graphics/SVG/1.1/DTD/svg11.dtd" >
<svg xmlns="http://www.w3.org/2000/svg" xmlns:xlink="http://www.w3.org/1999/xlink" version="1.1">
<metadata>
Created by FontForge 20201107 at Tue Feb 20 18:33:08 2024
 By 
Copyright (c) 2023 by atipo. All rights reserved.
</metadata>
<defs>
<font id="Borna-BoldItalic" horiz-adv-x="1298" >
  <font-face 
    font-family="Borna"
    font-weight="700"
    font-style="italic"
    font-stretch="normal"
    units-per-em="2048"
    panose-1="0 0 0 0 0 0 0 0 0 0"
    ascent="1638"
    descent="-410"
    x-height="1069"
    cap-height="1434"
    bbox="-160 -526 2484 1968"
    underline-thickness="102"
    underline-position="-255"
    unicode-range="U+000D-2212"
  />
<missing-glyph horiz-adv-x="1163" 
d="M70 0l278 1434h1024l-278 -1434h-1024zM209 195l450 522l-245 522zM254 102h696l-248 523zM492 1331l247 -522l449 522h-696zM782 717l246 -522l205 1044z" />
    <glyph glyph-name="ellipsis" unicode="&#x2e;&#x2e;&#x2e;" horiz-adv-x="1515" 
d="M82 0l65 336h328l-65 -336h-328zM594 0l65 336h328l-65 -336h-328zM1106 0l65 336h328l-65 -336h-328z" />
    <glyph glyph-name=".notdef" horiz-adv-x="1163" 
d="M70 0l278 1434h1024l-278 -1434h-1024zM209 195l450 522l-245 522zM254 102h696l-248 523zM492 1331l247 -522l449 522h-696zM782 717l246 -522l205 1044z" />
    <glyph glyph-name=".null" horiz-adv-x="0" 
 />
    <glyph glyph-name=".null" horiz-adv-x="0" 
 />
    <glyph glyph-name="nonmarkingreturn" horiz-adv-x="682" 
 />
    <glyph glyph-name="CR" unicode="&#xd;" horiz-adv-x="0" 
 />
    <glyph glyph-name="space" unicode=" " horiz-adv-x="366" 
 />
    <glyph glyph-name="space" unicode="&#xa0;" horiz-adv-x="366" 
 />
    <glyph glyph-name="exclam" unicode="!" horiz-adv-x="532" 
d="M227 461l45 407l109 566h313l-108 -566l-115 -407h-244zM102 0l66 336h328l-66 -336h-328z" />
    <glyph glyph-name="quotedbl" unicode="&#x22;" horiz-adv-x="655" 
d="M549 864l78 467h225l-102 -467h-201zM242 864l77 467h226l-103 -467h-200z" />
    <glyph glyph-name="numbersign" unicode="#" horiz-adv-x="1107" 
d="M512 143l104 271h-79l-105 -271h-227l104 271h-147l41 215h188l68 174h-221l41 215h262l104 272h227l-104 -272h80l104 272h228l-105 -272h148l-41 -215h-189l-67 -174h221l-41 -215h-262l-105 -271h-227zM618 629h80l68 174h-80z" />
    <glyph glyph-name="dollar" unicode="$" horiz-adv-x="1222" 
d="M479 -174l31 156q-174 25 -263 130t-87 255l282 79q-6 -83 56.5 -139.5t169.5 -56.5q117 0 187.5 43.5t70.5 114.5q0 44 -35.5 72t-106.5 48l-163 45q-127 35 -204 122.5t-77 211.5q0 183 125 308.5t326 142.5l28 149h209l-31 -164q148 -29 234 -114t80 -221l-285 -74
q2 62 -47.5 110t-144.5 48q-85 0 -138 -41t-53 -103q0 -37 25.5 -63.5t72.5 -38.5l168 -45q318 -85 318 -336q0 -198 -134 -330t-376 -158l-29 -151h-209z" />
    <glyph glyph-name="percent" unicode="%" horiz-adv-x="1789" 
d="M455 0l4 20l893 1311h247l-4 -20l-893 -1311h-247zM231 877l31 163q26 136 128.5 227t256.5 91q155 0 227.5 -92t45.5 -226l-33 -163q-14 -68 -43 -123.5t-74.5 -100t-113.5 -69.5t-152 -25q-154 0 -226.5 91t-46.5 227zM444 879q-10 -58 15 -90.5t78 -32.5q51 0 89 33
t48 90l31 159q10 56 -14.5 88.5t-76.5 32.5t-90.5 -32.5t-48.5 -88.5zM1128 291l31 164q26 136 128 226.5t257 90.5t227.5 -91.5t45.5 -225.5l-33 -164q-14 -68 -43 -123.5t-74.5 -100t-113.5 -69.5t-152 -25q-154 0 -226.5 91t-46.5 227zM1341 293q-10 -58 15 -90.5
t78 -32.5q51 0 89 33t48 90l31 160q10 56 -14.5 88t-76.5 32t-90.5 -32t-48.5 -88z" />
    <glyph glyph-name="ampersand" unicode="&#x26;" horiz-adv-x="1363" 
d="M604 -25q-211 0 -338 118.5t-127 287.5q0 160 111 282t266 144l8 41q-75 8 -128.5 68t-53.5 149q0 167 147 281t377 114q102 0 185.5 -31t134.5 -82t77 -114t23 -129l-276 -94q2 78 -44.5 135t-138.5 57q-77 0 -132.5 -45.5t-55.5 -109.5q0 -53 39.5 -83t95.5 -30h39
l-55 -287h-37q-109 0 -185.5 -65.5t-76.5 -159.5q0 -68 55.5 -110t147.5 -42q126 0 203 64t89 149l2 15h-120l53 276h586l-54 -276h-147l-2 -15q-21 -146 -114.5 -262t-238.5 -181t-315 -65z" />
    <glyph glyph-name="quotesingle" unicode="'" horiz-adv-x="348" 
d="M242 864l77 467h226l-103 -467h-200z" />
    <glyph glyph-name="parenleft" unicode="(" horiz-adv-x="1075" 
d="M694 -395q-208 113 -341.5 333.5t-133.5 489.5q0 263 106.5 498t293 410.5t434.5 287.5l127 -244q-306 -145 -482 -387.5t-176 -537.5q0 -201 89.5 -357.5t248.5 -249.5z" />
    <glyph glyph-name="parenright" unicode=")" horiz-adv-x="1075" 
d="M381 1624q208 -113 341.5 -333.5t133.5 -489.5q0 -263 -106.5 -498t-292.5 -410.5t-434 -287.5l-127 243q305 145 481 388t176 538q0 201 -89.5 357t-248.5 249z" />
    <glyph glyph-name="asterisk" unicode="*" horiz-adv-x="897" 
d="M432 727l-147 121l200 229l-221 86l103 189l223 -86l49 250h209l-49 -250l248 82l45 -185l-267 -86l115 -229l-176 -121l-123 236z" />
    <glyph glyph-name="plus" unicode="+" horiz-adv-x="901" 
d="M373 193l65 335h-325l43 220h325l64 333h229l-63 -333h325l-43 -220h-325l-66 -335h-229z" />
    <glyph glyph-name="comma" unicode="," horiz-adv-x="495" 
d="M88 -391h-41l-39 172q81 22 120.5 63t53.5 107l11 49h-107l66 336h327l-88 -424q-25 -120 -108 -198.5t-195 -104.5z" />
    <glyph glyph-name="hyphen" unicode="-" horiz-adv-x="849" 
d="M215 473l47 246h604l-47 -246h-604z" />
    <glyph glyph-name="period" unicode="." horiz-adv-x="491" 
d="M82 0l65 336h328l-65 -336h-328z" />
    <glyph glyph-name="slash" unicode="/" horiz-adv-x="995" 
d="M8 -221l8 41l934 1716h293l-8 -41l-934 -1716h-293z" />
    <glyph glyph-name="zero" unicode="0" horiz-adv-x="1175" 
d="M584 -27q-71 0 -138 19t-125.5 57.5t-97.5 97t-54.5 137t3.5 177.5l80 409q18 97 60 177.5t100 137t129.5 96t149.5 58.5t161 19q71 0 138 -19t125.5 -57.5t97.5 -97t54.5 -137t-3.5 -177.5l-80 -409q-46 -242 -203 -365t-397 -123zM483 471q-17 -86 28 -141.5t130 -55.5
t152 55.5t84 141.5l75 389q17 86 -27.5 141.5t-129.5 55.5t-152 -55.5t-84 -141.5z" />
    <glyph glyph-name="one" unicode="1" horiz-adv-x="841" 
d="M399 0l205 1055h-41q-26 -135 -128 -221t-228 -86l65 337q149 0 243.5 54t115.5 161l6 31h330l-258 -1331h-310z" />
    <glyph glyph-name="two" unicode="2" horiz-adv-x="1116" 
d="M82 0l96 506l572 248q69 31 109 79t40 101q0 49 -37.5 87t-113.5 38q-88 0 -144.5 -57.5t-73.5 -133.5l-256 121q31 101 98 182.5t176.5 134t242.5 52.5q103 0 187.5 -32.5t136.5 -85.5t80 -118t28 -133q0 -165 -103 -289.5t-299 -205.5l-395 -162l-6 -41h672l-58 -291
h-952z" />
    <glyph glyph-name="three" unicode="3" horiz-adv-x="1157" 
d="M588 -25q-181 0 -303.5 101t-134.5 268l280 117q-2 -32 8.5 -63.5t32.5 -60t63 -46t95 -17.5q94 0 155.5 48t61.5 120q0 46 -36.5 76.5t-102.5 30.5h-121l53 264h109q71 0 120.5 40t49.5 99q0 45 -37.5 76t-108.5 31q-86 0 -147 -55.5t-80 -129.5l-258 115
q47 155 189 262t341 107q204 0 318 -87.5t114 -211.5q0 -116 -84 -192t-211 -76l-8 -41q99 -17 158 -92t59 -175q0 -108 -37.5 -200t-108.5 -161t-181.5 -108t-247.5 -39z" />
    <glyph glyph-name="four" unicode="4" horiz-adv-x="1140" 
d="M645 0l43 225h-584l86 441l543 665h346l-8 -41l-625 -749l-8 -41h303l45 231h308l-45 -231h147l-53 -275h-148l-43 -225h-307z" />
    <glyph glyph-name="five" unicode="5" horiz-adv-x="1138" 
d="M563 -25q-172 0 -285.5 99t-132.5 250l285 116q0 -67 48 -116.5t138 -49.5q98 0 169 69t71 163q0 66 -45 109.5t-121 43.5q-64 0 -120 -35t-83 -87l-274 112l186 682h828l-53 -274h-574l-98 -340l37 -12q47 95 133 152.5t190 57.5q100 0 173.5 -50t108 -126t34.5 -166
q0 -124 -41.5 -232t-118 -190t-194 -129t-261.5 -47z" />
    <glyph glyph-name="six" unicode="6" horiz-adv-x="1175" 
d="M586 -27q-180 0 -302 108t-122 292q0 110 44 203.5t126 189.5l487 565h330l-8 -41l-455 -506l27 -24q32 43 86.5 74.5t120.5 31.5q123 0 197.5 -90.5t74.5 -226.5q0 -112 -42 -215.5t-118 -184t-192 -128.5t-254 -48zM459 416q0 -73 50.5 -118.5t129.5 -45.5
q104 0 182 74t78 172q0 72 -50.5 119t-129.5 47q-104 0 -182 -74.5t-78 -173.5z" />
    <glyph glyph-name="seven" unicode="7" horiz-adv-x="1105" 
d="M209 0l8 41l723 975l8 41h-393l-37 -185h-266l88 459h942l-78 -418l-665 -913h-330z" />
    <glyph glyph-name="eight" unicode="8" horiz-adv-x="1163" 
d="M141 293q0 135 101.5 223t253.5 102l8 41l2 -2l-10 7q-75 37 -121.5 109.5t-46.5 168.5q0 184 143.5 300t368.5 116q171 0 282 -78t111 -193q0 -120 -89 -198t-226 -78l-9 -39l17 -8q235 -110 235 -311q0 -139 -76.5 -249t-209 -170.5t-297.5 -60.5q-182 0 -309.5 88
t-127.5 232zM471 377q0 -55 43 -92t119 -37q86 0 150.5 50.5t64.5 119.5q0 72 -82 112l-92 45q-84 -23 -143.5 -78t-59.5 -120zM623 969q0 -62 71 -97l90 -43q66 28 105 75t39 97q0 41 -33 71t-98 30q-71 0 -122.5 -39t-51.5 -94z" />
    <glyph glyph-name="nine" unicode="9" horiz-adv-x="1175" 
d="M846 1358q117 0 213.5 -45.5t155.5 -135t59 -206.5q0 -203 -166 -400l-481 -571h-330l8 41l445 506l-27 24q-32 -43 -86 -74.5t-119 -31.5q-124 0 -199 90.5t-75 226.5q0 115 48 221.5t129 184t192.5 124t232.5 46.5zM537 834q0 -72 50.5 -119t129.5 -47q104 0 182 74.5
t78 172.5q0 73 -50 118.5t-130 45.5q-104 0 -182 -73.5t-78 -171.5z" />
    <glyph glyph-name="colon" unicode=":" horiz-adv-x="491" 
d="M82 0l65 336h328l-65 -336h-328zM82 733l65 336h328l-65 -336h-328z" />
    <glyph glyph-name="semicolon" unicode=";" horiz-adv-x="495" 
d="M88 -391h-41l-39 172q81 22 120.5 63t53.5 107l11 49h-107l66 336h327l-88 -424q-25 -120 -108 -198.5t-195 -104.5zM82 733l65 336h328l-65 -336h-328z" />
    <glyph glyph-name="less" unicode="&#x3c;" horiz-adv-x="899" 
d="M1137 1163l-45 -245l-740 -271l-8 -43l633 -270l-45 -221l-809 354l65 342z" />
    <glyph glyph-name="equal" unicode="=" horiz-adv-x="901" 
d="M154 737l43 219h880l-43 -219h-880zM68 291l43 219h880l-43 -219h-880z" />
    <glyph glyph-name="greater" unicode="&#x3e;" horiz-adv-x="899" 
d="M33 113l45 245l739 271l8 43l-632 270l45 221l809 -354l-66 -342z" />
    <glyph glyph-name="question" unicode="?" horiz-adv-x="1091" 
d="M465 514q33 164 170 268l162 121l13 9q14 9 20 14.5t20 17.5t22 23t17 26.5t13.5 33.5t4.5 38q0 53 -39 86t-104 33q-84 0 -143.5 -55t-59.5 -132q0 -24 10 -63l-41 -16l-245 69q-2 12 -2 25q0 88 37.5 169.5t103.5 143t164.5 98.5t212.5 37q100 0 181 -29.5t132 -78.5
t78 -109.5t27 -126.5q0 -87 -30 -159t-75.5 -121t-118.5 -103l-129 -96q-35 -26 -48.5 -38t-30.5 -37t-25 -56l-6 -25h-297zM350 0l66 336h327l-65 -336h-328z" />
    <glyph glyph-name="at" unicode="@" horiz-adv-x="1853" 
d="M940 -328q-210 0 -381.5 88.5t-272 252t-100.5 370.5q0 206 80.5 388.5t218 312t328 205t404.5 75.5q162 0 300 -49.5t232 -135.5t146.5 -204t52.5 -252q0 -259 -145 -427.5t-363 -168.5q-115 0 -174.5 47.5t-65.5 124.5h-41q-32 -74 -102 -123t-168 -49
q-123 0 -204 84.5t-81 226.5q0 130 61 245t163.5 183t218.5 68q94 0 145.5 -50t48.5 -110h41l29 148h227l-100 -510q-6 -35 9.5 -55.5t51.5 -20.5q48 0 92 51.5t70.5 136.5t26.5 178q0 186 -128.5 297t-371.5 111q-201 0 -368.5 -95.5t-264 -260t-96.5 -361.5
q0 -112 40.5 -203t110.5 -150t162.5 -90.5t198.5 -31.5q252 0 454 92l27 -235q-229 -103 -512 -103zM860 485q0 -71 46.5 -110t107.5 -39q94 0 162.5 70t68.5 167q0 71 -46 110.5t-109 39.5q-93 0 -161.5 -71t-68.5 -167z" />
    <glyph glyph-name="A" unicode="A" horiz-adv-x="1392" 
d="M20 0l9 41l684 1393h526l141 -1393l-8 -41h-317l-27 274h-536l-130 -274h-342zM631 573h368l-55 580h-43z" />
    <glyph glyph-name="B" unicode="B" horiz-adv-x="1406" 
d="M123 0l57 291h144l163 852h-143l57 291h713q190 0 293.5 -80t103.5 -211q0 -67 -26.5 -129t-67.5 -105.5t-88.5 -71.5t-91.5 -34l-8 -43q83 -20 139.5 -85t56.5 -177q0 -213 -160.5 -355.5t-408.5 -142.5h-733zM639 293h276q72 0 127.5 55.5t55.5 126.5q0 53 -34 87
t-89 34h-277zM750 862h247q65 0 115.5 51t50.5 117q0 47 -30 79t-82 32h-248z" />
    <glyph glyph-name="C" unicode="C" horiz-adv-x="1585" 
d="M795 -27q-188 0 -328 82.5t-210.5 220t-70.5 310.5q0 178 68 339.5t184 279t278 186.5t341 69q238 0 403.5 -116t218.5 -287l-297 -150q-41 120 -133.5 183t-222.5 63q-142 0 -258.5 -71t-182 -191t-65.5 -262q0 -172 89.5 -260t246.5 -88q144 0 274.5 81t196.5 218
l264 -134q-100 -212 -311 -342.5t-485 -130.5z" />
    <glyph glyph-name="D" unicode="D" horiz-adv-x="1572" 
d="M133 0l55 287h144l168 860h-144l56 287h661q276 0 435 -165t159 -425q0 -176 -65 -331.5t-178.5 -268.5t-277 -178.5t-351.5 -65.5h-662zM651 291h164q221 0 370.5 150.5t149.5 373.5q0 153 -97 240.5t-259 87.5h-164z" />
    <glyph glyph-name="E" unicode="E" horiz-adv-x="1177" 
d="M154 0l278 1434h920l-58 -295h-604l-51 -267h535l-56 -286h-534l-58 -291h627l-57 -295h-942z" />
    <glyph glyph-name="F" unicode="F" horiz-adv-x="1144" 
d="M154 0l278 1434h920l-58 -295h-604l-61 -318h534l-57 -293h-535l-102 -528h-315z" />
    <glyph glyph-name="G" unicode="G" horiz-adv-x="1644" 
d="M772 -27q-258 0 -422 172t-164 445q0 175 69.5 335.5t187 278t282 187t346.5 69.5q238 0 401.5 -109.5t223.5 -293.5l-297 -150q-26 115 -121 180.5t-234 65.5t-260 -72.5t-192.5 -195.5t-71.5 -264q0 -155 98 -247.5t252 -92.5q134 0 255.5 62t189.5 177h-383l53 277
h713l-156 -797h-328l35 178h-41q-68 -95 -178 -150t-258 -55z" />
    <glyph glyph-name="H" unicode="H" horiz-adv-x="1482" 
d="M1012 0l112 578h-540l-113 -578h-317l278 1434h318l-107 -553h541l106 553h318l-279 -1434h-317z" />
    <glyph glyph-name="I" unicode="I" horiz-adv-x="1110" 
d="M123 0l57 297h275l163 842h-274l57 295h865l-58 -295h-274l-164 -842h274l-57 -297h-864z" />
    <glyph glyph-name="J" unicode="J" horiz-adv-x="1228" 
d="M532 -27q-164 0 -282.5 90.5t-161.5 231.5l268 147q20 -74 75.5 -117.5t141.5 -43.5q115 0 202 67.5t108 179.5l118 611h-444l57 295h760l-176 -906q-51 -261 -220 -408t-446 -147z" />
    <glyph glyph-name="K" unicode="K" horiz-adv-x="1357" 
d="M154 0l278 1434h318l-113 -576h43l565 576h359l-9 -41l-534 -527l295 -825l-8 -41h-328l-213 616l-268 -264l-68 -352h-317z" />
    <glyph glyph-name="L" unicode="L" horiz-adv-x="1112" 
d="M154 0l278 1434h318l-222 -1139h611l-58 -295h-927z" />
    <glyph glyph-name="M" unicode="M" horiz-adv-x="1916" 
d="M659 0l72 1153h-41l-223 -1153h-313l278 1434h633l-72 -1153h37l379 1153h633l-279 -1434h-313l223 1153h-41l-375 -1153h-598z" />
    <glyph glyph-name="N" unicode="N" horiz-adv-x="1533" 
d="M154 0l278 1434h604l54 -1153h32l224 1153h313l-279 -1434h-606l-51 1153h-33l-223 -1153h-313z" />
    <glyph glyph-name="O" unicode="O" horiz-adv-x="1642" 
d="M815 -27q-190 0 -333.5 75.5t-219.5 208.5t-76 304q0 179 71 344t192 287t293 195t364 73q144 0 263 -45t199.5 -124t124.5 -188t44 -235q0 -178 -71 -342.5t-192 -286t-293.5 -194t-365.5 -72.5zM520 621q0 -155 100.5 -247.5t256.5 -92.5q139 0 260.5 72t193.5 194.5
t72 263.5q0 155 -100 248.5t-256 93.5q-104 0 -201.5 -43t-168.5 -115t-114 -170.5t-43 -203.5z" />
    <glyph glyph-name="P" unicode="P" horiz-adv-x="1239" 
d="M154 0l278 1434h565q187 0 297.5 -106.5t110.5 -272.5q0 -112 -45.5 -217t-123.5 -183.5t-188.5 -126t-234.5 -47.5h-250l-94 -481h-315zM621 776h231q92 0 159.5 65.5t67.5 153.5q0 65 -43.5 105.5t-113.5 40.5h-232z" />
    <glyph glyph-name="Q" unicode="Q" horiz-adv-x="1646" 
d="M528 31q-153 79 -247.5 217.5t-94.5 324.5q0 175 70 337.5t190.5 283.5t292.5 193.5t365 72.5t338.5 -73t222 -200.5t76.5 -291.5q0 -119 -33.5 -230.5t-97.5 -202.5t-151 -158t-200 -102.5t-239 -31.5l-23 -39l490 -244l-156 -276zM518 621q0 -155 100.5 -247.5
t255.5 -92.5q140 0 261.5 72t193.5 194.5t72 263.5q0 155 -100.5 248.5t-256.5 93.5q-139 0 -260.5 -73t-193.5 -196t-72 -263z" />
    <glyph glyph-name="R" unicode="R" horiz-adv-x="1341" 
d="M154 0l278 1434h627q184 0 282.5 -84t98.5 -222q0 -147 -81 -252t-224 -143l-9 -43q38 -13 69.5 -36.5t59.5 -66t34.5 -100t-5.5 -137.5l-67 -350h-318l57 299q14 77 -25 125.5t-130 48.5h-240l-92 -473h-315zM618 768h252q88 0 157 67.5t69 153.5q0 65 -43 107.5
t-111 42.5h-252z" />
    <glyph glyph-name="S" unicode="S" horiz-adv-x="1306" 
d="M684 -27q-237 0 -378 121t-146 301l301 86q-5 -90 62.5 -150.5t181.5 -60.5q126 0 201 44t75 120q0 50 -35 80t-100 49l-187 53q-136 38 -220.5 130t-84.5 235q0 214 159 346.5t405 132.5q203 0 337 -102.5t140 -274.5l-305 -79q2 64 -47.5 117t-149.5 53
q-98 0 -156.5 -43.5t-58.5 -110.5q0 -39 30 -68t83 -43l174 -47q165 -45 252.5 -142.5t87.5 -244.5q0 -226 -164.5 -364t-456.5 -138z" />
    <glyph glyph-name="T" unicode="T" horiz-adv-x="1308" 
d="M494 0l221 1139h-432l57 295h1186l-58 -295h-436l-221 -1139h-317z" />
    <glyph glyph-name="U" unicode="U" horiz-adv-x="1437" 
d="M721 -27q-264 0 -397.5 159.5t-85.5 406.5l174 895h319l-174 -893q-24 -123 28.5 -197t186.5 -74q121 0 209.5 76.5t112.5 196.5l174 891h315l-174 -893q-53 -273 -227.5 -420.5t-460.5 -147.5z" />
    <glyph glyph-name="V" unicode="V" horiz-adv-x="1413" 
d="M451 0l-160 1393l8 41h328l104 -1153h43l557 1153h340l-8 -41l-698 -1393h-514z" />
    <glyph glyph-name="W" unicode="W" horiz-adv-x="2023" 
d="M291 0l41 1393l8 41h330l-70 -1153h43l387 1153h561l-59 -1153h43l379 1153h327l-8 -41l-499 -1393h-553l57 1153h-43l-391 -1153h-553z" />
    <glyph glyph-name="X" unicode="X" horiz-adv-x="1302" 
d="M20 0l9 41l475 686l-197 666l8 41h326l160 -564h41l375 564h331l-8 -41l-438 -666l188 -686l-8 -41h-309l-164 590h-41l-399 -590h-349z" />
    <glyph glyph-name="Y" unicode="Y" horiz-adv-x="1363" 
d="M522 0l109 565h-51l-289 828l8 41h324l190 -588h41l412 588h356l-8 -41l-619 -828h-47l-108 -565h-318z" />
    <glyph glyph-name="Z" unicode="Z" horiz-adv-x="1390" 
d="M113 0l100 512l954 573l9 41h-818l60 308h1134l-100 -512l-954 -574l-9 -41h848l-59 -307h-1165z" />
    <glyph glyph-name="bracketleft" unicode="[" horiz-adv-x="821" 
d="M47 -391l391 2015h535l-51 -266h-238l-289 -1483h238l-51 -266h-535z" />
    <glyph glyph-name="backslash" unicode="\" horiz-adv-x="995" 
d="M188 1536h267l622 -1716l-8 -41h-262l-627 1716z" />
    <glyph glyph-name="bracketright" unicode="]" horiz-adv-x="821" 
d="M1018 1624l-391 -2015h-535l51 266h238l289 1483h-238l51 266h535z" />
    <glyph glyph-name="asciicircum" unicode="^" horiz-adv-x="1114" 
d="M223 672l8 41l447 721h315l168 -721l-8 -41h-250l-100 481h-43l-285 -481h-252z" />
    <glyph glyph-name="underscore" unicode="_" horiz-adv-x="716" 
d="M-70 -305l47 246h738l-47 -246h-738z" />
    <glyph glyph-name="grave" unicode="`" horiz-adv-x="505" 
d="M729 1188h-164l-264 313l8 41h244l184 -313z" />
    <glyph glyph-name="a" unicode="a" 
d="M508 -27q-174 0 -274.5 118t-100.5 304q0 184 77 345.5t210 258.5t287 97q126 0 202 -70t84 -174h41l43 217h303l-153 -780q-4 -26 6 -37.5t37 -11.5h33l-48 -240h-180q-77 0 -125 53t-35 129l7 35h-41q-52 -116 -147.5 -180t-225.5 -64zM451 469q0 -99 60.5 -159
t156.5 -60q127 0 226 105.5t99 240.5q0 101 -61 162t-154 61q-131 0 -229 -104.5t-98 -245.5z" />
    <glyph glyph-name="b" unicode="b" horiz-adv-x="1296" 
d="M795 -27q-132 0 -206.5 63t-78.5 181h-41l-43 -217h-303l299 1536h303l-133 -684h41q48 103 152 173.5t229 70.5q166 0 261 -115.5t95 -300.5q0 -137 -47.5 -267.5t-125.5 -226.5t-184 -154.5t-218 -58.5zM510 473q0 -100 60.5 -161.5t154.5 -61.5q131 0 229.5 104.5
t98.5 245.5q0 99 -60.5 159t-156.5 60q-129 0 -227.5 -105.5t-98.5 -240.5z" />
    <glyph glyph-name="c" unicode="c" horiz-adv-x="1189" 
d="M610 -27q-216 0 -346.5 130t-130.5 329q0 138 51.5 261.5t140 211.5t213 139.5t265.5 51.5q176 0 301 -92.5t160 -235.5l-275 -137q-9 83 -70.5 135.5t-150.5 52.5q-132 0 -228 -107.5t-96 -244.5q0 -99 60.5 -158t152.5 -59q85 0 164.5 56.5t110.5 125.5l246 -125
q-85 -152 -229.5 -243t-338.5 -91z" />
    <glyph glyph-name="d" unicode="d" horiz-adv-x="1284" 
d="M506 -27q-167 0 -270 124.5t-103 318.5q0 137 47.5 263t125.5 217t183.5 145.5t217.5 54.5q126 0 202 -70t84 -174h41l133 684h303l-243 -1247q-4 -26 6 -37.5t37 -11.5h33l-48 -240h-180q-85 0 -134 53t-36 129l6 35h-41q-30 -104 -132 -174t-232 -70zM451 469
q0 -99 60.5 -159t156.5 -60q127 0 226 105.5t99 240.5q0 101 -61 162t-154 61q-131 0 -229 -104.5t-98 -245.5z" />
    <glyph glyph-name="e" unicode="e" horiz-adv-x="1165" 
d="M598 -27q-204 0 -334.5 128.5t-130.5 330.5q0 184 84.5 336t235 240t335.5 88q121 0 217 -43.5t151 -119.5t75.5 -179t-8.5 -222l-23 -100h-774q6 -96 66.5 -146t156.5 -50q67 0 129.5 32.5t98.5 73.5l206 -149q-200 -220 -485 -220zM475 670h479q5 77 -47 128.5
t-151 51.5q-90 0 -164 -48t-117 -132z" />
    <glyph glyph-name="f" unicode="f" horiz-adv-x="880" 
d="M389 813h-221l49 256h227l17 84q37 191 160.5 287t308.5 96h135l-51 -262h-107q-56 0 -95.5 -31t-51.5 -86l-19 -88h289l-49 -256h-289l-168 -860q-39 -196 -160 -289.5t-309 -93.5h-102l51 262h84q114 0 137 117z" />
    <glyph glyph-name="g" unicode="g" horiz-adv-x="1284" 
d="M535 -6q-176 0 -280.5 117t-104.5 301q0 188 77 345.5t209 248t287 90.5q127 0 203 -70t84 -174h41l43 217h303l-205 -1010q-16 -80 -49 -153t-87.5 -140t-125 -116t-168 -78t-209.5 -29q-164 0 -278 85t-142 225l273 81q5 -50 50.5 -92.5t125.5 -42.5q240 0 315 260
l51 179h-41q-52 -116 -147 -180t-225 -64zM467 485q0 -100 56 -157.5t151 -57.5q130 0 233 97t103 229q0 101 -61 162t-154 61q-132 0 -230 -97.5t-98 -236.5z" />
    <glyph glyph-name="h" unicode="h" horiz-adv-x="1206" 
d="M123 0l299 1536h303l-133 -684h41q49 115 138.5 179.5t199.5 64.5t178 -51t87.5 -130.5t0.5 -177.5l-143 -737h-303l120 616q15 79 -25 132t-120 53q-83 0 -143.5 -52.5t-75.5 -132.5l-121 -616h-303z" />
    <glyph glyph-name="i" unicode="i" horiz-adv-x="487" 
d="M92 0l207 1069h303l-207 -1069h-303zM326 1223l61 313h311l-61 -313h-311z" />
    <glyph glyph-name="j" unicode="j" horiz-adv-x="487" 
d="M-150 -430l56 287h45q51 0 89 30.5t48 85.5l213 1096h303l-219 -1116q-37 -192 -154 -287.5t-294 -95.5h-87zM326 1223l61 313h311l-61 -313h-311z" />
    <glyph glyph-name="k" unicode="k" horiz-adv-x="1120" 
d="M123 0l299 1536h303l-158 -801h41l334 334h344l-6 -41l-387 -371l215 -616l-8 -41h-297l-150 430l-178 -172l-49 -258h-303z" />
    <glyph glyph-name="l" unicode="l" horiz-adv-x="561" 
d="M412 1536h303l-244 -1247q-4 -26 6 -37.5t37 -11.5h74l-47 -240h-174q-114 0 -172 60.5t-37 170.5z" />
    <glyph glyph-name="m" unicode="m" horiz-adv-x="1851" 
d="M123 0l207 1069h303l-41 -217h41q40 102 131.5 173t202.5 71q129 0 196.5 -67.5t73.5 -176.5h41q44 102 136 173t200 71q110 0 178.5 -52t88.5 -131.5t1 -175.5l-143 -737h-303l120 616q15 80 -23.5 132.5t-117.5 52.5q-77 0 -135.5 -53t-73.5 -132l-121 -616h-303
l121 616q15 80 -24.5 132.5t-118.5 52.5q-81 0 -139.5 -52.5t-73.5 -132.5l-121 -616h-303z" />
    <glyph glyph-name="n" unicode="n" horiz-adv-x="1206" 
d="M123 0l207 1069h303l-41 -217h41q45 105 134 174.5t206 69.5q106 0 173.5 -51.5t88.5 -131.5t2 -176l-143 -737h-303l120 616q15 79 -25 132t-120 53q-83 0 -143.5 -52.5t-75.5 -132.5l-121 -616h-303z" />
    <glyph glyph-name="o" unicode="o" horiz-adv-x="1249" 
d="M623 -27q-219 0 -354.5 124t-135.5 323q0 136 50.5 259.5t140 215.5t221.5 146.5t286 54.5q211 0 351.5 -128.5t140.5 -326.5q0 -130 -52.5 -251.5t-143 -213.5t-222.5 -147.5t-282 -55.5zM444 469q0 -100 64.5 -159.5t165.5 -59.5q136 0 237 103t101 243
q0 100 -64 161.5t-164 61.5q-137 0 -238.5 -104.5t-101.5 -245.5z" />
    <glyph glyph-name="p" unicode="p" 
d="M995 1096q178 0 277.5 -115t99.5 -301q0 -187 -82 -350.5t-219.5 -260t-294.5 -96.5q-119 0 -189 62.5t-77 181.5h-41l-125 -647h-303l291 1499h303l-41 -217h41q51 115 150 179.5t210 64.5zM512 473q0 -100 60.5 -161.5t154.5 -61.5q131 0 229.5 104.5t98.5 245.5
q0 99 -60.5 159t-156.5 60q-129 0 -227.5 -105.5t-98.5 -240.5z" />
    <glyph glyph-name="q" unicode="q" horiz-adv-x="1300" 
d="M727 1096q111 0 185.5 -64.5t80.5 -179.5h41l43 217h303l-290 -1499h-304l125 647h-41q-54 -119 -147 -181.5t-213 -62.5q-118 0 -205 61.5t-129.5 160.5t-42.5 221q0 183 81.5 340t218.5 248.5t294 91.5zM451 469q0 -99 60.5 -159t156.5 -60q127 0 226 105.5t99 240.5
q0 100 -61.5 161.5t-153.5 61.5q-139 0 -233 -103.5t-94 -246.5z" />
    <glyph glyph-name="r" unicode="r" horiz-adv-x="847" 
d="M123 0l207 1069h303l-43 -227h41q50 116 147 179.5t230 63.5l-62 -319l-178 -2q-96 -1 -154.5 -56t-74.5 -139l-113 -569h-303z" />
    <glyph glyph-name="s" unicode="s" horiz-adv-x="1069" 
d="M547 -27q-186 0 -304.5 86.5t-121.5 241.5l282 68q0 -70 47.5 -104t122.5 -34q88 0 138.5 28.5t50.5 78.5q0 53 -80 68l-182 36q-110 23 -181 93t-71 180q0 173 137.5 277t349.5 104q181 0 297 -86.5t119 -225.5l-277 -69q0 58 -44 96.5t-119 38.5q-70 0 -115 -30
t-45 -72q0 -49 80 -64l176 -33q134 -25 198 -97.5t64 -172.5q0 -188 -140 -298t-382 -110z" />
    <glyph glyph-name="t" unicode="t" horiz-adv-x="894" 
d="M565 0q-53 0 -97 10.5t-83 34.5t-60.5 63.5t-30 97.5t8.5 136l92 471h-196l47 246h98q120 0 141 106l29 142h274l-47 -238h289l-49 -256h-289l-88 -444q-18 -97 74 -97h172l-53 -272h-232z" />
    <glyph glyph-name="u" unicode="u" horiz-adv-x="1200" 
d="M430 -27q-110 0 -177.5 52t-86.5 131t0 176l143 737h303l-120 -616q-15 -80 25.5 -132.5t119.5 -52.5q83 0 143.5 52.5t75.5 132.5l121 616h303l-154 -788q-4 -21 8 -31t37 -10h33l-47 -240h-180q-93 0 -139.5 51.5t-32.5 130.5l6 35h-41q-43 -102 -137.5 -173
t-202.5 -71z" />
    <glyph glyph-name="v" unicode="v" horiz-adv-x="1120" 
d="M315 0l-94 1028l8 41h306l53 -788h43l352 788h326l-9 -41l-495 -1028h-490z" />
    <glyph glyph-name="w" unicode="w" horiz-adv-x="1669" 
d="M221 0l8 1028l7 41h309l-37 -788h43l258 788h473l-45 -788h43l272 788h306l-7 -41l-395 -1028h-493l53 788h-43l-258 -788h-494z" />
    <glyph glyph-name="x" unicode="x" horiz-adv-x="1064" 
d="M10 0l8 41l347 506l-123 481l6 41h313l84 -385h41l227 385h318l-6 -41l-312 -489l150 -498l-8 -41h-314l-108 403h-41l-256 -403h-326z" />
    <glyph glyph-name="y" unicode="y" horiz-adv-x="1193" 
d="M344 0l-123 1028l8 41h303l80 -788h43l404 788h323l-8 -41l-770 -1458h-338l6 41l213 389h-141z" />
    <glyph glyph-name="z" unicode="z" horiz-adv-x="1077" 
d="M61 0l93 453l698 319l8 41h-622l49 256h925l-86 -448l-702 -320l-8 -41h651l-51 -260h-955z" />
    <glyph glyph-name="braceleft" unicode="{" horiz-adv-x="972" 
d="M614 -391q-185 0 -279 109.5t-54 318.5l61 321q21 115 -94 115h-33l55 287h33q116 0 139 114l64 322q41 208 178.5 318t321.5 110h118l-51 -266h-72q-73 0 -128 -43.5t-74 -138.5l-70 -351q-36 -176 -197 -186l-10 -45q75 -5 110 -51t17 -135l-67 -351q-19 -94 20 -138
t111 -44h71l-51 -266h-119z" />
    <glyph glyph-name="bar" unicode="|" horiz-adv-x="655" 
d="M100 -430l396 2034h286l-395 -2034h-287z" />
    <glyph glyph-name="braceright" unicode="}" horiz-adv-x="972" 
d="M600 1620q185 0 279.5 -109.5t54.5 -318.5l-62 -322q-21 -114 95 -114h32l-55 -287h-33q-116 0 -139 -115l-63 -321q-41 -208 -178.5 -318t-321.5 -110h-119l51 266h72q73 0 128.5 43.5t74.5 138.5l69 350q18 90 69.5 136t127.5 51l10 45q-75 5 -110 51t-17 135l68 350
q19 94 -20 138.5t-111 44.5h-72l51 266h119z" />
    <glyph glyph-name="asciitilde" unicode="~" horiz-adv-x="1032" 
d="M141 516q31 136 119.5 215.5t206.5 77.5q56 -1 109 -23t87 -48t76.5 -48t79.5 -22q56 0 95.5 41t50.5 100h41l129 -76q-45 -149 -126 -221t-210 -72q-47 0 -88.5 14.5t-72 35.5t-58.5 42t-60.5 35.5t-66.5 14.5q-54 0 -92.5 -41.5t-49.5 -100.5h-41z" />
    <glyph glyph-name="exclamdown" unicode="&#xa1;" horiz-adv-x="532" 
d="M500 584l-45 -408l-109 -565h-313l108 565l115 408h244zM231 709l66 335h328l-66 -335h-328z" />
    <glyph glyph-name="cent" unicode="&#xa2;" horiz-adv-x="1103" 
d="M428 0l31 156q-151 32 -238.5 142t-87.5 263q0 224 144 390.5t374 203.5l37 178h230l-37 -182q125 -27 204 -105.5t93 -179.5l-285 -125q-10 70 -58 110t-118 40q-117 0 -199 -87t-82 -210q0 -86 53 -132t136 -46q67 0 131 40t100 105l244 -115q-61 -114 -169.5 -190.5
t-242.5 -101.5l-31 -154h-229z" />
    <glyph glyph-name="sterling" unicode="&#xa3;" horiz-adv-x="1323" 
d="M160 295q65 0 107.5 33.5t54.5 95.5l20 102h-119l56 287h118l13 57q48 238 206 363t369 125q96 0 183 -29.5t156 -94t95 -153.5l-297 -153q-14 59 -59.5 94t-112.5 35q-89 0 -152 -54.5t-81 -142.5l-8 -47h323l-55 -287h-326l-4 -24q-16 -81 -72 -123.5t-122 -42.5
l-9 -41h854l-57 -295h-1139z" />
    <glyph glyph-name="yen" unicode="&#xa5;" horiz-adv-x="1355" 
d="M565 0l35 184h-309l51 260h309l15 80h-310l52 260h131l-195 506l8 41h307l189 -547h41l393 547h332l-8 -41l-396 -506h136l-52 -260h-311l-14 -80h311l-51 -260h-311l-35 -184h-318z" />
    <glyph glyph-name="section" unicode="&#xa7;" horiz-adv-x="1042" 
d="M451 -340q-137 0 -234.5 66.5t-144.5 162.5l247 136q10 -45 55 -79t109 -34q77 0 131 40.5t54 100.5q0 34 -16 58.5t-60 54.5l-260 176q-123 81 -123 186q0 98 74.5 163t183.5 65l8 41q-131 111 -131 272q0 185 145.5 308.5t364.5 123.5q146 0 249.5 -66.5t129.5 -162.5
l-258 -135q-9 45 -46.5 78.5t-107.5 33.5q-76 0 -130 -45t-54 -108q0 -31 21 -55.5t69 -57.5l246 -164q123 -83 123 -186q0 -98 -73.5 -162.5t-184.5 -64.5l-9 -41q132 -114 132 -263q0 -191 -144 -316.5t-366 -125.5zM506 629q0 -33 53 -70l164 -117q40 19 58 40t18 50
q0 34 -51 70l-164 117q-78 -34 -78 -90z" />
    <glyph glyph-name="dieresis" unicode="&#xa8;" horiz-adv-x="831" 
d="M723 1229l59 303h287l-59 -303h-287zM301 1229l59 303h287l-59 -303h-287z" />
    <glyph glyph-name="copyright" unicode="&#xa9;" horiz-adv-x="1591" 
d="M791 -29q-182 0 -320.5 78.5t-211.5 214t-73 305.5q0 175 71 339t190 285t284 194t344 73q138 0 254 -46.5t193.5 -127.5t120.5 -191.5t43 -236.5q0 -118 -32 -232t-89 -211t-139.5 -180t-180.5 -141t-215 -90.5t-239 -32.5zM391 596q0 -191 120 -310.5t316 -119.5
q173 0 324 91.5t240.5 245t89.5 328.5q0 193 -121.5 314t-321.5 121q-126 0 -245 -55.5t-207 -146.5t-141.5 -214.5t-53.5 -253.5zM543 633q0 126 65 235.5t175 174.5t237 65q137 0 220.5 -78.5t86.5 -179.5l-180 -64q0 49 -46.5 91.5t-117.5 42.5q-95 0 -166.5 -75.5
t-71.5 -178.5q0 -74 46.5 -117t111.5 -43q142 0 213 139l174 -47q-35 -109 -154.5 -195t-269.5 -86q-145 0 -234 89t-89 227z" />
    <glyph glyph-name="ordfeminine" unicode="&#xaa;" horiz-adv-x="1126" 
d="M541 616q-132 0 -207.5 89t-75.5 229q0 139 58 260t158 193.5t216 72.5q94 0 151.5 -52.5t63.5 -129.5h31l33 162h227l-117 -586q-5 -37 33 -37h25l-35 -180h-135q-59 0 -95 39.5t-26 97.5l4 25h-31q-37 -86 -109 -134.5t-169 -48.5zM498 989q0 -74 45 -120t116 -46
q97 0 171.5 79.5t74.5 182.5q0 75 -46.5 120.5t-115.5 45.5q-98 0 -171.5 -78t-73.5 -184z" />
    <glyph glyph-name="guillemotleft" unicode="&#xab;" horiz-adv-x="1128" 
d="M1026 160l-377 274l53 273l488 299h41l-51 -267l-262 -159l-9 -41l207 -133l-49 -246h-41zM178 434l53 273l488 299h41l-51 -267l-263 -159l-8 -41l207 -133l-49 -246h-41z" />
    <glyph glyph-name="registered" unicode="&#xae;" horiz-adv-x="1071" 
d="M647 584q-176 0 -283.5 104.5t-107.5 267.5q0 109 46 213t122.5 181t182 123.5t218.5 46.5q181 0 289.5 -105t108.5 -268q0 -110 -46 -213t-123 -180t-184 -123.5t-223 -46.5zM393 977q0 -119 76 -193.5t203 -74.5q169 0 292 124t123 295q0 121 -77.5 193t-208.5 72
q-164 0 -286 -124.5t-122 -291.5zM520 840l86 442h217q59 0 92 -28t33 -70q0 -44 -31.5 -76t-78.5 -33l-7 -35q38 0 58 -25.5t14 -62.5l-20 -112h-125l12 69q10 60 -57 60h-47l-25 -129h-121zM686 1073h51q31 0 52.5 20t21.5 48q0 39 -53 39h-51z" />
    <glyph glyph-name="macron" unicode="&#xaf;" horiz-adv-x="700" 
d="M326 1249l47 238h536l-47 -238h-536z" />
    <glyph glyph-name="degree" unicode="&#xb0;" horiz-adv-x="851" 
d="M561 690q-129 0 -208 74.5t-79 191.5q0 103 58.5 196.5t155 149.5t202.5 56q127 0 206 -77t79 -194q0 -158 -124 -277.5t-290 -119.5zM483 991q0 -46 30 -76t85 -30q70 0 120 49.5t50 118.5q0 47 -31 77.5t-86 30.5q-69 0 -118.5 -50.5t-49.5 -119.5z" />
    <glyph glyph-name="uni00B2" unicode="&#xb2;" horiz-adv-x="638" 
d="M82 623l59 307l312 151q100 49 100 121q0 30 -21.5 50t-62.5 20q-45 0 -77.5 -27t-45.5 -67l-153 63q31 88 112 148.5t189 60.5q118 0 184.5 -62t66.5 -153q0 -188 -235 -295l-207 -94l-8 -41h383l-35 -182h-561z" />
    <glyph glyph-name="uni00B3" unicode="&#xb3;" horiz-adv-x="714" 
d="M391 606q-96 0 -163 53.5t-78 135.5l169 71q3 -38 30 -60t69 -22q54 0 91.5 28.5t37.5 70.5q0 29 -24 47t-66 18h-66l33 172h65q47 0 79 25.5t32 62.5q0 26 -23 45t-61 19q-44 0 -76.5 -26.5t-46.5 -67.5l-153 63q38 97 121.5 153t201.5 56q113 0 178.5 -51t65.5 -123
q0 -68 -41.5 -115t-118.5 -59l-8 -41q41 -14 69.5 -60t28.5 -104q0 -128 -97 -209.5t-249 -81.5z" />
    <glyph glyph-name="acute" unicode="&#xb4;" horiz-adv-x="505" 
d="M293 1188l8 41l184 313h260l-8 -41l-233 -313h-211z" />
    <glyph glyph-name="paragraph" unicode="&#xb6;" horiz-adv-x="1134" 
d="M578 686q-150 0 -234 82.5t-84 212.5q0 120 62.5 224.5t167.5 166.5t225 62h545l-297 -1526h-224l250 1282h-92l-250 -1282h-221z" />
    <glyph glyph-name="periodcentered" unicode="&#xb7;" horiz-adv-x="552" 
d="M209 498l65 336h328l-65 -336h-328z" />
    <glyph glyph-name="cedilla" unicode="&#xb8;" horiz-adv-x="563" 
d="M190 -461q-61 0 -111.5 32.5t-70.5 90.5l135 64q16 -37 58 -37q33 0 58.5 24t25.5 56q0 24 -17 38.5t-43 14.5q-37 0 -63 -33l-129 66l100 186h176l-90 -158h33q33 56 96 56q48 0 79.5 -38.5t31.5 -99.5q0 -113 -72 -187.5t-197 -74.5z" />
    <glyph glyph-name="uni00B9" unicode="&#xb9;" horiz-adv-x="575" 
d="M358 623l121 620h-41q-18 -92 -85 -147.5t-146 -55.5l41 207q102 0 174 55.5t82 116.5l2 15h194l-157 -811h-185z" />
    <glyph glyph-name="ordmasculine" unicode="&#xba;" horiz-adv-x="1062" 
d="M651 614q-166 0 -266 94t-100 244q0 100 43 194t114.5 162.5t169.5 110t203 41.5q158 0 261.5 -96.5t103.5 -245.5q0 -128 -74 -245t-197 -188t-258 -71zM520 989q0 -77 48 -121.5t124 -44.5q103 0 178.5 77.5t75.5 184.5q0 76 -48 122t-122 46q-104 0 -180 -79t-76 -185
z" />
    <glyph glyph-name="guillemotright" unicode="&#xbb;" horiz-adv-x="1128" 
d="M799 1006l377 -275l-54 -272l-487 -299h-41l51 266l262 160l8 41l-206 133l49 246h41zM123 160l51 266l262 160l8 41l-206 133l49 246h41l377 -275l-54 -272l-487 -299h-41z" />
    <glyph glyph-name="onequarter" unicode="&#xbc;" horiz-adv-x="1593" 
d="M313 -84l9 41l1050 1458h191l-9 -41l-1050 -1458h-191zM207 938l41 207q102 0 174 55.5t82 116.5l2 14h194l-157 -811h-185l121 621h-41q-18 -92 -85 -147.5t-146 -55.5zM967 139l53 273l309 399h189l-9 -41l-321 -412l-8 -41h196l31 160h184l-30 -160h88l-35 -178h-88
l-27 -139h-184l26 139h-374z" />
    <glyph glyph-name="onehalf" unicode="&#xbd;" horiz-adv-x="1603" 
d="M322 -84l8 41l1050 1458h191l-8 -41l-1051 -1458h-190zM207 938l41 207q102 0 174 55.5t82 116.5l2 14h194l-157 -811h-185l121 621h-41q-18 -92 -85 -147.5t-146 -55.5zM1047 0l59 307l311 152q101 49 101 121q0 30 -21.5 49.5t-62.5 19.5q-45 0 -77.5 -27t-45.5 -67
l-154 63q31 88 112 148.5t189 60.5q118 0 185 -62t67 -153q0 -188 -235 -295l-207 -94l-8 -41h382l-34 -182h-561z" />
    <glyph glyph-name="threequarters" unicode="&#xbe;" horiz-adv-x="1675" 
d="M356 -84l9 41l1050 1458h191l-9 -41l-1050 -1458h-191zM150 692l169 72q3 -38 30 -60t69 -22q55 0 92 28t37 70q0 29 -24 47.5t-66 18.5h-66l33 172h65q47 0 79 25.5t32 62.5q0 26 -23 44.5t-61 18.5q-44 0 -76.5 -26.5t-46.5 -67.5l-153 64q38 97 121.5 153t201.5 56
q113 0 178.5 -51t65.5 -123q0 -68 -41.5 -115.5t-118.5 -59.5l-8 -41q41 -14 69.5 -59.5t28.5 -103.5q0 -128 -97 -209.5t-249 -81.5q-96 0 -163 53t-78 135zM1049 139l53 273l309 399h188l-8 -41l-321 -412l-8 -41h196l31 160h184l-31 -160h89l-35 -178h-88l-27 -139h-184
l26 139h-374z" />
    <glyph glyph-name="questiondown" unicode="&#xbf;" horiz-adv-x="1091" 
d="M813 530q-33 -164 -170 -268l-162 -121q-1 -1 -13.5 -9.5t-19.5 -14t-20.5 -17t-21.5 -23t-17 -26.5t-13.5 -33t-4.5 -38q0 -53 39 -86t104 -33q84 0 143.5 54.5t59.5 131.5q0 25 -10 64l41 16l245 -70q2 -12 2 -24q0 -88 -37.5 -169.5t-103.5 -143.5t-164.5 -99
t-212.5 -37q-100 0 -181 29.5t-132 78.5t-78 109.5t-27 126.5q0 87 30 159t75.5 121t118.5 103l129 97q35 26 48.5 38t30.5 37t25 56l6 24h297zM535 709l65 335h328l-66 -335h-327z" />
    <glyph glyph-name="Agrave" unicode="&#xc0;" horiz-adv-x="1392" 
d="M20 0l9 41l684 1393h526l141 -1393l-8 -41h-317l-27 274h-536l-130 -274h-342zM631 573h368l-55 580h-43zM725 1825l8 41h244l184 -314l-8 -41h-164z" />
    <glyph glyph-name="Aacute" unicode="&#xc1;" horiz-adv-x="1392" 
d="M20 0l9 41l684 1393h526l141 -1393l-8 -41h-317l-27 274h-536l-130 -274h-342zM631 573h368l-55 580h-43zM874 1511l9 41l184 314h260l-8 -41l-234 -314h-211z" />
    <glyph glyph-name="Acircumflex" unicode="&#xc2;" horiz-adv-x="1392" 
d="M20 0l9 41l684 1393h526l141 -1393l-8 -41h-317l-27 274h-536l-130 -274h-342zM631 573h368l-55 580h-43zM678 1511l8 41l238 314h286l115 -314l-8 -41h-162l-104 142h-33l-156 -142h-184z" />
    <glyph glyph-name="Atilde" unicode="&#xc3;" horiz-adv-x="1392" 
d="M20 0l9 41l684 1393h526l141 -1393l-8 -41h-317l-27 274h-536l-130 -274h-342zM631 573h368l-55 580h-43zM647 1579q21 123 90 187.5t160 64.5q31 0 63.5 -10t44 -16.5t39.5 -22.5l43 -27q39 -26 68 -26q32 0 54.5 24t31.5 70h41l111 -60q-14 -119 -84 -185.5t-162 -66.5
q-81 0 -139 43l-43 31q-40 29 -72 29q-34 0 -59.5 -25.5t-34.5 -68.5h-41z" />
    <glyph glyph-name="Adieresis" unicode="&#xc4;" horiz-adv-x="1392" 
d="M20 0l9 41l684 1393h526l141 -1393l-8 -41h-317l-27 274h-536l-130 -274h-342zM631 573h368l-55 580h-43zM647 1552l60 303h286l-59 -303h-287zM1069 1552l59 303h287l-59 -303h-287z" />
    <glyph glyph-name="Aring" unicode="&#xc5;" horiz-adv-x="1392" 
d="M20 0l9 41l684 1393h526l141 -1393l-8 -41h-317l-27 274h-536l-130 -274h-342zM631 573h368l-55 580h-43zM797 1673q0 111 83 191t201 80q89 0 145 -55t56 -130q0 -113 -83.5 -193.5t-205.5 -80.5q-88 0 -142 53.5t-54 134.5zM954 1698q0 -31 18.5 -49.5t49.5 -18.5
q40 0 70 31t30 72q0 29 -18 47t-51 18q-39 0 -69 -30t-30 -70z" />
    <glyph glyph-name="AE" unicode="&#xc6;" horiz-adv-x="1873" 
d="M20 0l9 41l684 1393h1335l-57 -295h-721l26 -267h574l-55 -286h-490l29 -291h495l-57 -295h-739l-27 274h-553l-133 -274h-320zM616 573h379l-55 580h-43z" />
    <glyph glyph-name="Ccedilla" unicode="&#xc7;" horiz-adv-x="1585" 
d="M748 -461q-61 0 -112 32.5t-71 90.5l135 64q16 -37 58 -37q33 0 58.5 24t25.5 56q0 24 -17 38.5t-43 14.5q-37 0 -63 -33l-129 66l69 131q-148 27 -256 112.5t-162.5 211t-54.5 276.5q0 178 68 339.5t184 279t278 186.5t341 69q238 0 403.5 -116t218.5 -287l-297 -150
q-41 120 -133.5 183t-222.5 63q-142 0 -258.5 -71t-182 -191t-65.5 -262q0 -172 89.5 -260t246.5 -88q144 0 274.5 81t196.5 218l264 -134q-96 -205 -299 -334.5t-465 -138.5l-51 -90h33q33 56 96 56q48 0 79.5 -38.5t31.5 -99.5q0 -113 -71.5 -187.5t-196.5 -74.5z" />
    <glyph glyph-name="Egrave" unicode="&#xc8;" horiz-adv-x="1177" 
d="M154 0l278 1434h920l-58 -295h-604l-51 -267h535l-56 -286h-534l-58 -291h627l-57 -295h-942zM645 1825l8 41h244l184 -314l-8 -41h-164z" />
    <glyph glyph-name="Eacute" unicode="&#xc9;" horiz-adv-x="1177" 
d="M154 0l278 1434h920l-58 -295h-604l-51 -267h535l-56 -286h-534l-58 -291h627l-57 -295h-942zM795 1511l8 41l184 314h260l-8 -41l-233 -314h-211z" />
    <glyph glyph-name="Ecircumflex" unicode="&#xca;" horiz-adv-x="1177" 
d="M154 0l278 1434h920l-58 -295h-604l-51 -267h535l-56 -286h-534l-58 -291h627l-57 -295h-942zM598 1511l8 41l238 314h286l115 -314l-8 -41h-162l-104 142h-33l-156 -142h-184z" />
    <glyph glyph-name="Edieresis" unicode="&#xcb;" horiz-adv-x="1177" 
d="M154 0l278 1434h920l-58 -295h-604l-51 -267h535l-56 -286h-534l-58 -291h627l-57 -295h-942zM567 1552l60 303h286l-59 -303h-287zM989 1552l60 303h286l-59 -303h-287z" />
    <glyph glyph-name="Igrave" unicode="&#xcc;" horiz-adv-x="1110" 
d="M123 0l57 297h275l163 842h-274l57 295h865l-58 -295h-274l-164 -842h274l-57 -297h-864zM586 1825l8 41h244l184 -314l-8 -41h-164z" />
    <glyph glyph-name="Iacute" unicode="&#xcd;" horiz-adv-x="1110" 
d="M123 0l57 297h275l163 842h-274l57 295h865l-58 -295h-274l-164 -842h274l-57 -297h-864zM735 1511l8 41l185 314h260l-8 -41l-234 -314h-211z" />
    <glyph glyph-name="Icircumflex" unicode="&#xce;" horiz-adv-x="1110" 
d="M123 0l57 297h275l163 842h-274l57 295h865l-58 -295h-274l-164 -842h274l-57 -297h-864zM539 1511l8 41l237 314h287l115 -314l-8 -41h-162l-105 142h-32l-156 -142h-184z" />
    <glyph glyph-name="Idieresis" unicode="&#xcf;" horiz-adv-x="1110" 
d="M123 0l57 297h275l163 842h-274l57 295h865l-58 -295h-274l-164 -842h274l-57 -297h-864zM508 1552l59 303h287l-59 -303h-287zM930 1552l59 303h287l-59 -303h-287z" />
    <glyph glyph-name="Eth" unicode="&#xd0;" horiz-adv-x="1579" 
d="M240 596l49 256h160l57 295h-144l56 287h661q276 0 435 -165t159 -425q0 -176 -65 -331.5t-178.5 -268.5t-277 -178.5t-351.5 -65.5h-662l56 287h143l61 309h-159zM657 291h164q221 0 370.5 150.5t149.5 373.5q0 153 -97 240.5t-259 87.5h-164l-55 -291h268l-49 -256
h-268z" />
    <glyph glyph-name="Ntilde" unicode="&#xd1;" horiz-adv-x="1533" 
d="M154 0l278 1434h604l54 -1153h32l224 1153h313l-279 -1434h-606l-51 1153h-33l-223 -1153h-313zM756 1579q21 123 90 187.5t160 64.5q31 0 63.5 -10t44 -16.5t39.5 -22.5l43 -27q39 -26 68 -26q32 0 54.5 24t31.5 70h41l110 -60q-14 -119 -84 -185.5t-162 -66.5
q-81 0 -139 43l-43 31q-40 29 -72 29q-34 0 -59.5 -25.5t-34.5 -68.5h-41z" />
    <glyph glyph-name="Ograve" unicode="&#xd2;" horiz-adv-x="1642" 
d="M815 -27q-190 0 -333.5 75.5t-219.5 208.5t-76 304q0 179 71 344t192 287t293 195t364 73q144 0 263 -45t199.5 -124t124.5 -188t44 -235q0 -178 -71 -342.5t-192 -286t-293.5 -194t-365.5 -72.5zM520 621q0 -155 100.5 -247.5t256.5 -92.5q139 0 260.5 72t193.5 194.5
t72 263.5q0 155 -100 248.5t-256 93.5q-104 0 -201.5 -43t-168.5 -115t-114 -170.5t-43 -203.5zM850 1825l8 41h244l184 -314l-8 -41h-164z" />
    <glyph glyph-name="Oacute" unicode="&#xd3;" horiz-adv-x="1642" 
d="M815 -27q-190 0 -333.5 75.5t-219.5 208.5t-76 304q0 179 71 344t192 287t293 195t364 73q144 0 263 -45t199.5 -124t124.5 -188t44 -235q0 -178 -71 -342.5t-192 -286t-293.5 -194t-365.5 -72.5zM520 621q0 -155 100.5 -247.5t256.5 -92.5q139 0 260.5 72t193.5 194.5
t72 263.5q0 155 -100 248.5t-256 93.5q-104 0 -201.5 -43t-168.5 -115t-114 -170.5t-43 -203.5zM999 1511l9 41l184 314h260l-8 -41l-234 -314h-211z" />
    <glyph glyph-name="Ocircumflex" unicode="&#xd4;" horiz-adv-x="1642" 
d="M815 -27q-190 0 -333.5 75.5t-219.5 208.5t-76 304q0 179 71 344t192 287t293 195t364 73q144 0 263 -45t199.5 -124t124.5 -188t44 -235q0 -178 -71 -342.5t-192 -286t-293.5 -194t-365.5 -72.5zM520 621q0 -155 100.5 -247.5t256.5 -92.5q139 0 260.5 72t193.5 194.5
t72 263.5q0 155 -100 248.5t-256 93.5q-104 0 -201.5 -43t-168.5 -115t-114 -170.5t-43 -203.5zM803 1511l8 41l238 314h286l115 -314l-8 -41h-162l-104 142h-33l-156 -142h-184z" />
    <glyph glyph-name="Otilde" unicode="&#xd5;" horiz-adv-x="1642" 
d="M815 -27q-190 0 -333.5 75.5t-219.5 208.5t-76 304q0 179 71 344t192 287t293 195t364 73q144 0 263 -45t199.5 -124t124.5 -188t44 -235q0 -178 -71 -342.5t-192 -286t-293.5 -194t-365.5 -72.5zM520 621q0 -155 100.5 -247.5t256.5 -92.5q139 0 260.5 72t193.5 194.5
t72 263.5q0 155 -100 248.5t-256 93.5q-104 0 -201.5 -43t-168.5 -115t-114 -170.5t-43 -203.5zM772 1579q21 123 90 187.5t160 64.5q31 0 63.5 -10t44 -16.5t39.5 -22.5l43 -27q39 -26 68 -26q32 0 54.5 24t31.5 70h41l111 -60q-14 -119 -84 -185.5t-162 -66.5
q-81 0 -139 43l-43 31q-40 29 -72 29q-34 0 -59.5 -25.5t-34.5 -68.5h-41z" />
    <glyph glyph-name="Odieresis" unicode="&#xd6;" horiz-adv-x="1642" 
d="M815 -27q-190 0 -333.5 75.5t-219.5 208.5t-76 304q0 179 71 344t192 287t293 195t364 73q144 0 263 -45t199.5 -124t124.5 -188t44 -235q0 -178 -71 -342.5t-192 -286t-293.5 -194t-365.5 -72.5zM520 621q0 -155 100.5 -247.5t256.5 -92.5q139 0 260.5 72t193.5 194.5
t72 263.5q0 155 -100 248.5t-256 93.5q-104 0 -201.5 -43t-168.5 -115t-114 -170.5t-43 -203.5zM772 1552l59 303h287l-59 -303h-287zM1194 1552l59 303h287l-59 -303h-287z" />
    <glyph glyph-name="multiply" unicode="&#xd7;" horiz-adv-x="831" 
d="M213 227l-131 166l307 252l-205 258l166 137l207 -258l315 258l123 -166l-307 -253l203 -254l-170 -140l-201 254z" />
    <glyph glyph-name="Oslash" unicode="&#xd8;" horiz-adv-x="1671" 
d="M461 -102h-275l9 41l172 208q-78 77 -120 183.5t-42 230.5q0 179 70.5 344t191.5 287t293 195t364 73q154 0 281 -51l86 104h274l-8 -40l-160 -193q158 -164 158 -412q0 -178 -70.5 -342.5t-192 -286t-293.5 -194t-365 -72.5q-153 0 -271 47zM539 621q0 -114 55 -197
l588 713q-59 16 -117 16q-139 0 -260.5 -72.5t-193.5 -195.5t-72 -264zM786 293q52 -12 109 -12q139 0 260.5 72t193.5 194.5t72 263.5q0 108 -51 190z" />
    <glyph glyph-name="Ugrave" unicode="&#xd9;" horiz-adv-x="1437" 
d="M721 -27q-264 0 -397.5 159.5t-85.5 406.5l174 895h319l-174 -893q-24 -123 28.5 -197t186.5 -74q121 0 209.5 76.5t112.5 196.5l174 891h315l-174 -893q-53 -273 -227.5 -420.5t-460.5 -147.5zM731 1825l8 41h244l184 -314l-8 -41h-164z" />
    <glyph glyph-name="Uacute" unicode="&#xda;" horiz-adv-x="1437" 
d="M721 -27q-264 0 -397.5 159.5t-85.5 406.5l174 895h319l-174 -893q-24 -123 28.5 -197t186.5 -74q121 0 209.5 76.5t112.5 196.5l174 891h315l-174 -893q-53 -273 -227.5 -420.5t-460.5 -147.5zM881 1511l8 41l184 314h260l-8 -41l-233 -314h-211z" />
    <glyph glyph-name="Ucircumflex" unicode="&#xdb;" horiz-adv-x="1437" 
d="M721 -27q-264 0 -397.5 159.5t-85.5 406.5l174 895h319l-174 -893q-24 -123 28.5 -197t186.5 -74q121 0 209.5 76.5t112.5 196.5l174 891h315l-174 -893q-53 -273 -227.5 -420.5t-460.5 -147.5zM684 1511l8 41l238 314h287l114 -314l-8 -41h-162l-104 142h-33l-156 -142
h-184z" />
    <glyph glyph-name="Udieresis" unicode="&#xdc;" horiz-adv-x="1437" 
d="M721 -27q-264 0 -397.5 159.5t-85.5 406.5l174 895h319l-174 -893q-24 -123 28.5 -197t186.5 -74q121 0 209.5 76.5t112.5 196.5l174 891h315l-174 -893q-53 -273 -227.5 -420.5t-460.5 -147.5zM653 1552l60 303h286l-59 -303h-287zM1075 1552l60 303h286l-59 -303h-287z
" />
    <glyph glyph-name="Yacute" unicode="&#xdd;" horiz-adv-x="1363" 
d="M522 0l109 565h-51l-289 828l8 41h324l190 -588h41l412 588h356l-8 -41l-619 -828h-47l-108 -565h-318zM850 1511l8 41l184 314h261l-9 -41l-233 -314h-211z" />
    <glyph glyph-name="Thorn" unicode="&#xde;" horiz-adv-x="1249" 
d="M154 0l278 1434h316l-31 -164h250q187 0 296 -106t109 -273q0 -114 -41 -217.5t-115 -183t-187.5 -126.5t-248.5 -47h-250l-61 -317h-315zM588 612h231q92 0 160 65.5t68 153.5q0 65 -43 105.5t-113 40.5h-232z" />
    <glyph glyph-name="germandbls" unicode="&#xdf;" horiz-adv-x="1259" 
d="M752 -27q-108 0 -205 33l57 289q91 -27 154 -27q108 0 182 67.5t74 166.5q0 64 -43 104.5t-125 40.5h-113l58 293h18q83 0 139 53t56 131q0 55 -39 88t-107 33q-81 0 -145 -50t-82 -140l-215 -1102q-39 -195 -162 -289t-311 -94h-103l51 262h84q115 0 138 117l215 1106
q42 220 200 350.5t375 130.5q198 0 314 -85.5t116 -213.5q0 -121 -92 -212t-215 -91l-8 -41q132 0 220.5 -106t88.5 -250q0 -155 -68 -282t-200.5 -204.5t-306.5 -77.5z" />
    <glyph glyph-name="agrave" unicode="&#xe0;" 
d="M508 -27q-174 0 -274.5 118t-100.5 304q0 184 77 345.5t210 258.5t287 97q126 0 202 -70t84 -174h41l43 217h303l-153 -780q-4 -26 6 -37.5t37 -11.5h33l-48 -240h-180q-77 0 -125 53t-35 129l7 35h-41q-52 -116 -147.5 -180t-225.5 -64zM451 469q0 -99 60.5 -159
t156.5 -60q127 0 226 105.5t99 240.5q0 101 -61 162t-154 61q-131 0 -229 -104.5t-98 -245.5zM557 1501l8 41h244l184 -313l-8 -41h-164z" />
    <glyph glyph-name="aacute" unicode="&#xe1;" 
d="M508 -27q-174 0 -274.5 118t-100.5 304q0 184 77 345.5t210 258.5t287 97q126 0 202 -70t84 -174h41l43 217h303l-153 -780q-4 -26 6 -37.5t37 -11.5h33l-48 -240h-180q-77 0 -125 53t-35 129l7 35h-41q-52 -116 -147.5 -180t-225.5 -64zM451 469q0 -99 60.5 -159
t156.5 -60q127 0 226 105.5t99 240.5q0 101 -61 162t-154 61q-131 0 -229 -104.5t-98 -245.5zM707 1188l8 41l184 313h260l-8 -41l-233 -313h-211z" />
    <glyph glyph-name="acircumflex" unicode="&#xe2;" 
d="M508 -27q-174 0 -274.5 118t-100.5 304q0 184 77 345.5t210 258.5t287 97q126 0 202 -70t84 -174h41l43 217h303l-153 -780q-4 -26 6 -37.5t37 -11.5h33l-48 -240h-180q-77 0 -125 53t-35 129l7 35h-41q-52 -116 -147.5 -180t-225.5 -64zM451 469q0 -99 60.5 -159
t156.5 -60q127 0 226 105.5t99 240.5q0 101 -61 162t-154 61q-131 0 -229 -104.5t-98 -245.5zM510 1188l8 41l238 313h286l115 -313l-8 -41h-162l-104 141h-33l-156 -141h-184z" />
    <glyph glyph-name="atilde" unicode="&#xe3;" 
d="M508 -27q-174 0 -274.5 118t-100.5 304q0 184 77 345.5t210 258.5t287 97q126 0 202 -70t84 -174h41l43 217h303l-153 -780q-4 -26 6 -37.5t37 -11.5h33l-48 -240h-180q-77 0 -125 53t-35 129l7 35h-41q-52 -116 -147.5 -180t-225.5 -64zM451 469q0 -99 60.5 -159
t156.5 -60q127 0 226 105.5t99 240.5q0 101 -61 162t-154 61q-131 0 -229 -104.5t-98 -245.5zM479 1255q21 123 90 187.5t160 64.5q64 0 148 -49l43 -26q40 -27 67 -27q32 0 54.5 24t31.5 70h41l111 -59q-14 -119 -84 -185.5t-162 -66.5q-81 0 -139 43l-43 31q-39 28 -72 28
q-34 0 -59.5 -25.5t-34.5 -68.5h-41z" />
    <glyph glyph-name="adieresis" unicode="&#xe4;" 
d="M508 -27q-174 0 -274.5 118t-100.5 304q0 184 77 345.5t210 258.5t287 97q126 0 202 -70t84 -174h41l43 217h303l-153 -780q-4 -26 6 -37.5t37 -11.5h33l-48 -240h-180q-77 0 -125 53t-35 129l7 35h-41q-52 -116 -147.5 -180t-225.5 -64zM451 469q0 -99 60.5 -159
t156.5 -60q127 0 226 105.5t99 240.5q0 101 -61 162t-154 61q-131 0 -229 -104.5t-98 -245.5zM479 1229l60 303h286l-59 -303h-287zM901 1229l60 303h286l-59 -303h-287z" />
    <glyph glyph-name="aring" unicode="&#xe5;" 
d="M508 -27q-174 0 -274.5 118t-100.5 304q0 184 77 345.5t210 258.5t287 97q126 0 202 -70t84 -174h41l43 217h303l-153 -780q-4 -26 6 -37.5t37 -11.5h33l-48 -240h-180q-77 0 -125 53t-35 129l7 35h-41q-52 -116 -147.5 -180t-225.5 -64zM451 469q0 -99 60.5 -159
t156.5 -60q127 0 226 105.5t99 240.5q0 101 -61 162t-154 61q-131 0 -229 -104.5t-98 -245.5zM629 1350q0 111 83 190.5t201 79.5q89 0 145 -54.5t56 -129.5q0 -114 -83.5 -194.5t-205.5 -80.5q-88 0 -142 54t-54 135zM786 1374q0 -31 18.5 -49t49.5 -18q40 0 70 30.5
t30 71.5q0 29 -18 47.5t-51 18.5q-38 0 -68.5 -30.5t-30.5 -70.5z" />
    <glyph glyph-name="ae" unicode="&#xe6;" horiz-adv-x="1871" 
d="M1300 -27q-146 0 -238 79.5t-91 215.5h-41q-53 -141 -173.5 -218t-293.5 -77q-140 0 -235 75.5t-95 203.5q0 172 135 286.5t338 114.5h271l4 25q13 73 -26 117.5t-116 44.5q-76 0 -127 -36.5t-75 -92.5l-256 73q53 141 178 226.5t286 85.5q60 0 116 -17t103 -50.5
t73 -90.5t20 -129h41q61 133 185 210t269 77q78 0 142.5 -19.5t109.5 -54.5t77.5 -83t46.5 -104t17.5 -118.5t-10.5 -126.5l-30 -158h-775q6 -96 66.5 -146t155.5 -50q70 0 139 33.5t102 72.5l193 -149q-196 -220 -486 -220zM446 307q0 -39 31.5 -64.5t89.5 -25.5
q108 0 176.5 52.5t87.5 144.5l5 24h-230q-71 0 -115.5 -36.5t-44.5 -94.5zM1186 670h473q6 68 -47.5 124t-143.5 56q-91 0 -163.5 -46t-118.5 -134z" />
    <glyph glyph-name="ccedilla" unicode="&#xe7;" horiz-adv-x="1189" 
d="M567 -461q-61 0 -111.5 32.5t-70.5 90.5l135 64q16 -37 58 -37q33 0 58.5 24t25.5 56q0 24 -17 38.5t-43 14.5q-37 0 -63 -33l-129 66l71 133q-161 36 -254.5 157t-93.5 287q0 138 51.5 261.5t140 211.5t213 139.5t265.5 51.5q176 0 301 -92.5t160 -235.5l-275 -137
q-9 83 -70.5 135.5t-150.5 52.5q-132 0 -228 -107.5t-96 -244.5q0 -99 60.5 -158t152.5 -59q85 0 164.5 56.5t110.5 125.5l246 -125q-81 -145 -215 -234.5t-316 -99.5l-51 -90h33q33 56 96 56q48 0 79.5 -38.5t31.5 -99.5q0 -113 -72 -187.5t-197 -74.5z" />
    <glyph glyph-name="egrave" unicode="&#xe8;" horiz-adv-x="1165" 
d="M598 -27q-204 0 -334.5 128.5t-130.5 330.5q0 184 84.5 336t235 240t335.5 88q121 0 217 -43.5t151 -119.5t75.5 -179t-8.5 -222l-23 -100h-774q6 -96 66.5 -146t156.5 -50q67 0 129.5 32.5t98.5 73.5l206 -149q-200 -220 -485 -220zM475 670h479q5 77 -47 128.5
t-151 51.5q-90 0 -164 -48t-117 -132zM532 1477l9 41h243l185 -314l-8 -41h-164z" />
    <glyph glyph-name="eacute" unicode="&#xe9;" horiz-adv-x="1165" 
d="M598 -27q-204 0 -334.5 128.5t-130.5 330.5q0 184 84.5 336t235 240t335.5 88q121 0 217 -43.5t151 -119.5t75.5 -179t-8.5 -222l-23 -100h-774q6 -96 66.5 -146t156.5 -50q67 0 129.5 32.5t98.5 73.5l206 -149q-200 -220 -485 -220zM475 670h479q5 77 -47 128.5
t-151 51.5q-90 0 -164 -48t-117 -132zM682 1163l8 41l184 314h261l-9 -41l-233 -314h-211z" />
    <glyph glyph-name="ecircumflex" unicode="&#xea;" horiz-adv-x="1165" 
d="M598 -27q-204 0 -334.5 128.5t-130.5 330.5q0 184 84.5 336t235 240t335.5 88q121 0 217 -43.5t151 -119.5t75.5 -179t-8.5 -222l-23 -100h-774q6 -96 66.5 -146t156.5 -50q67 0 129.5 32.5t98.5 73.5l206 -149q-200 -220 -485 -220zM475 670h479q5 77 -47 128.5
t-151 51.5q-90 0 -164 -48t-117 -132zM485 1163l9 41l237 314h287l115 -314l-9 -41h-161l-105 142h-33l-155 -142h-185z" />
    <glyph glyph-name="edieresis" unicode="&#xeb;" horiz-adv-x="1165" 
d="M598 -27q-204 0 -334.5 128.5t-130.5 330.5q0 184 84.5 336t235 240t335.5 88q121 0 217 -43.5t151 -119.5t75.5 -179t-8.5 -222l-23 -100h-774q6 -96 66.5 -146t156.5 -50q67 0 129.5 32.5t98.5 73.5l206 -149q-200 -220 -485 -220zM455 1204l59 303h287l-60 -303h-286z
M475 670h479q5 77 -47 128.5t-151 51.5q-90 0 -164 -48t-117 -132zM877 1204l59 303h287l-60 -303h-286z" />
    <glyph glyph-name="igrave" unicode="&#xec;" horiz-adv-x="593" 
d="M123 0l207 1069h303l-207 -1069h-303zM227 1501l9 41h243l185 -313l-9 -41h-163z" />
    <glyph glyph-name="iacute" unicode="&#xed;" horiz-adv-x="593" 
d="M123 0l207 1069h303l-207 -1069h-303zM377 1188l8 41l184 313h260l-8 -41l-233 -313h-211z" />
    <glyph glyph-name="icircumflex" unicode="&#xee;" horiz-adv-x="593" 
d="M123 0l207 1069h303l-207 -1069h-303zM180 1188l8 41l238 313h287l114 -313l-8 -41h-162l-104 141h-33l-155 -141h-185z" />
    <glyph glyph-name="idieresis" unicode="&#xef;" horiz-adv-x="593" 
d="M123 0l207 1069h303l-207 -1069h-303zM150 1229l59 303h287l-60 -303h-286zM571 1229l60 303h287l-60 -303h-287z" />
    <glyph glyph-name="eth" unicode="&#xf0;" horiz-adv-x="1249" 
d="M600 -27q-208 0 -337.5 127t-129.5 322q0 162 79.5 303.5t211 224t278.5 82.5q82 0 144 -35.5t88 -99.5h41q-2 53 -39.5 130t-104.5 163l-370 -105l35 187l209 59q-114 103 -211 164l8 41h317q92 -60 166 -125l338 94l-37 -188l-166 -47q193 -240 193 -547
q0 -150 -40.5 -275.5t-108.5 -212t-160 -146.5t-194 -88t-210 -28zM446 459q0 -96 64.5 -152.5t155.5 -56.5q132 0 227.5 95.5t95.5 227.5q0 93 -62.5 148t-158.5 55q-128 0 -225 -95t-97 -222z" />
    <glyph glyph-name="ntilde" unicode="&#xf1;" horiz-adv-x="1206" 
d="M123 0l207 1069h303l-41 -217h41q45 105 134 174.5t206 69.5q106 0 173.5 -51.5t88.5 -131.5t2 -176l-143 -737h-303l120 616q15 79 -25 132t-120 53q-83 0 -143.5 -52.5t-75.5 -132.5l-121 -616h-303zM516 1255q21 123 90 187.5t160 64.5q31 0 63.5 -10t44 -16.5
t39.5 -22.5l43 -26q40 -27 68 -27q32 0 54.5 24t31.5 70h41l111 -59q-14 -119 -84 -185.5t-162 -66.5q-81 0 -139 43l-43 31q-39 28 -72 28q-34 0 -59.5 -25.5t-34.5 -68.5h-41z" />
    <glyph glyph-name="ograve" unicode="&#xf2;" horiz-adv-x="1249" 
d="M623 -27q-219 0 -354.5 124t-135.5 323q0 136 50.5 259.5t140 215.5t221.5 146.5t286 54.5q211 0 351.5 -128.5t140.5 -326.5q0 -130 -52.5 -251.5t-143 -213.5t-222.5 -147.5t-282 -55.5zM444 469q0 -100 64.5 -159.5t165.5 -59.5q136 0 237 103t101 243
q0 100 -64 161.5t-164 61.5q-137 0 -238.5 -104.5t-101.5 -245.5zM602 1501l8 41h244l184 -313l-8 -41h-164z" />
    <glyph glyph-name="oacute" unicode="&#xf3;" horiz-adv-x="1249" 
d="M623 -27q-219 0 -354.5 124t-135.5 323q0 136 50.5 259.5t140 215.5t221.5 146.5t286 54.5q211 0 351.5 -128.5t140.5 -326.5q0 -130 -52.5 -251.5t-143 -213.5t-222.5 -147.5t-282 -55.5zM444 469q0 -100 64.5 -159.5t165.5 -59.5q136 0 237 103t101 243
q0 100 -64 161.5t-164 61.5q-137 0 -238.5 -104.5t-101.5 -245.5zM752 1188l8 41l184 313h260l-8 -41l-233 -313h-211z" />
    <glyph glyph-name="ocircumflex" unicode="&#xf4;" horiz-adv-x="1249" 
d="M623 -27q-219 0 -354.5 124t-135.5 323q0 136 50.5 259.5t140 215.5t221.5 146.5t286 54.5q211 0 351.5 -128.5t140.5 -326.5q0 -130 -52.5 -251.5t-143 -213.5t-222.5 -147.5t-282 -55.5zM444 469q0 -100 64.5 -159.5t165.5 -59.5q136 0 237 103t101 243
q0 100 -64 161.5t-164 61.5q-137 0 -238.5 -104.5t-101.5 -245.5zM555 1188l8 41l238 313h286l115 -313l-8 -41h-162l-104 141h-33l-156 -141h-184z" />
    <glyph glyph-name="otilde" unicode="&#xf5;" horiz-adv-x="1249" 
d="M623 -27q-219 0 -354.5 124t-135.5 323q0 136 50.5 259.5t140 215.5t221.5 146.5t286 54.5q211 0 351.5 -128.5t140.5 -326.5q0 -130 -52.5 -251.5t-143 -213.5t-222.5 -147.5t-282 -55.5zM444 469q0 -100 64.5 -159.5t165.5 -59.5q136 0 237 103t101 243
q0 100 -64 161.5t-164 61.5q-137 0 -238.5 -104.5t-101.5 -245.5zM524 1255q21 123 90 187.5t160 64.5q64 0 148 -49l43 -26q40 -27 67 -27q32 0 54.5 24t31.5 70h41l111 -59q-14 -119 -84 -185.5t-162 -66.5q-81 0 -139 43l-43 31q-39 28 -72 28q-34 0 -59.5 -25.5
t-34.5 -68.5h-41z" />
    <glyph glyph-name="odieresis" unicode="&#xf6;" horiz-adv-x="1249" 
d="M623 -27q-219 0 -354.5 124t-135.5 323q0 136 50.5 259.5t140 215.5t221.5 146.5t286 54.5q211 0 351.5 -128.5t140.5 -326.5q0 -130 -52.5 -251.5t-143 -213.5t-222.5 -147.5t-282 -55.5zM444 469q0 -100 64.5 -159.5t165.5 -59.5q136 0 237 103t101 243
q0 100 -64 161.5t-164 61.5q-137 0 -238.5 -104.5t-101.5 -245.5zM524 1229l60 303h286l-59 -303h-287zM946 1229l60 303h286l-59 -303h-287z" />
    <glyph glyph-name="divide" unicode="&#xf7;" horiz-adv-x="901" 
d="M113 528l43 220h880l-43 -220h-880zM369 295q0 64 53 116t119 52q50 0 82 -32.5t32 -80.5q0 -66 -52 -117t-118 -51q-51 0 -83.5 31.5t-32.5 81.5zM492 926q0 64 53 116t119 52q50 0 82 -32.5t32 -80.5q0 -66 -52 -117t-118 -51q-51 0 -83.5 31.5t-32.5 81.5z" />
    <glyph glyph-name="oslash" unicode="&#xf8;" horiz-adv-x="1265" 
d="M379 -123h-246l8 41l135 180q-133 124 -133 322q0 136 51 259.5t140.5 215.5t221.5 146.5t286 54.5q87 0 170 -25l80 107h247l-6 -41l-133 -176q133 -127 133 -320q0 -130 -52.5 -251.5t-143 -213.5t-222.5 -147.5t-282 -55.5q-78 0 -164 21zM455 469q0 -58 22 -104
l344 452q-10 2 -26 2q-137 0 -238.5 -104.5t-101.5 -245.5zM662 250h22q136 0 237 103t101 243q0 48 -21 102z" />
    <glyph glyph-name="ugrave" unicode="&#xf9;" horiz-adv-x="1200" 
d="M430 -27q-110 0 -177.5 52t-86.5 131t0 176l143 737h303l-120 -616q-15 -80 25.5 -132.5t119.5 -52.5q83 0 143.5 52.5t75.5 132.5l121 616h303l-154 -788q-4 -21 8 -31t37 -10h33l-47 -240h-180q-93 0 -139.5 51.5t-32.5 130.5l6 35h-41q-43 -102 -137.5 -173
t-202.5 -71zM547 1501l8 41h244l184 -313l-8 -41h-164z" />
    <glyph glyph-name="uacute" unicode="&#xfa;" horiz-adv-x="1200" 
d="M430 -27q-110 0 -177.5 52t-86.5 131t0 176l143 737h303l-120 -616q-15 -80 25.5 -132.5t119.5 -52.5q83 0 143.5 52.5t75.5 132.5l121 616h303l-154 -788q-4 -21 8 -31t37 -10h33l-47 -240h-180q-93 0 -139.5 51.5t-32.5 130.5l6 35h-41q-43 -102 -137.5 -173
t-202.5 -71zM696 1188l9 41l184 313h260l-8 -41l-234 -313h-211z" />
    <glyph glyph-name="ucircumflex" unicode="&#xfb;" horiz-adv-x="1200" 
d="M430 -27q-110 0 -177.5 52t-86.5 131t0 176l143 737h303l-120 -616q-15 -80 25.5 -132.5t119.5 -52.5q83 0 143.5 52.5t75.5 132.5l121 616h303l-154 -788q-4 -21 8 -31t37 -10h33l-47 -240h-180q-93 0 -139.5 51.5t-32.5 130.5l6 35h-41q-43 -102 -137.5 -173
t-202.5 -71zM500 1188l8 41l237 313h287l115 -313l-8 -41h-162l-105 141h-32l-156 -141h-184z" />
    <glyph glyph-name="udieresis" unicode="&#xfc;" horiz-adv-x="1200" 
d="M430 -27q-110 0 -177.5 52t-86.5 131t0 176l143 737h303l-120 -616q-15 -80 25.5 -132.5t119.5 -52.5q83 0 143.5 52.5t75.5 132.5l121 616h303l-154 -788q-4 -21 8 -31t37 -10h33l-47 -240h-180q-93 0 -139.5 51.5t-32.5 130.5l6 35h-41q-43 -102 -137.5 -173
t-202.5 -71zM469 1229l59 303h287l-59 -303h-287zM891 1229l59 303h287l-59 -303h-287z" />
    <glyph glyph-name="yacute" unicode="&#xfd;" horiz-adv-x="1193" 
d="M344 0l-123 1028l8 41h303l80 -788h43l404 788h323l-8 -41l-770 -1458h-338l6 41l213 389h-141zM705 1163l8 41l184 314h260l-8 -41l-234 -314h-210z" />
    <glyph glyph-name="thorn" unicode="&#xfe;" 
d="M41 -430l383 1966h303l-133 -684h41q51 115 150 179.5t210 64.5q178 0 277.5 -115t99.5 -301q0 -187 -82 -350.5t-219.5 -260t-294.5 -96.5q-119 0 -189 62.5t-77 181.5h-41l-125 -647h-303zM512 473q0 -100 60.5 -161.5t154.5 -61.5q131 0 229.5 104.5t98.5 245.5
q0 99 -60.5 159t-156.5 60q-129 0 -227.5 -105.5t-98.5 -240.5z" />
    <glyph glyph-name="ydieresis" unicode="&#xff;" horiz-adv-x="1193" 
d="M344 0l-123 1028l8 41h303l80 -788h43l404 788h323l-8 -41l-770 -1458h-338l6 41l213 389h-141zM477 1204l60 303h286l-59 -303h-287zM899 1204l59 303h287l-59 -303h-287z" />
    <glyph glyph-name="Amacron" unicode="&#x100;" horiz-adv-x="1392" 
d="M20 0l9 41l684 1393h526l141 -1393l-8 -41h-317l-27 274h-536l-130 -274h-342zM631 573h368l-55 580h-43zM743 1573l48 237h536l-47 -237h-537z" />
    <glyph glyph-name="amacron" unicode="&#x101;" 
d="M508 -27q-174 0 -274.5 118t-100.5 304q0 184 77 345.5t210 258.5t287 97q126 0 202 -70t84 -174h41l43 217h303l-153 -780q-4 -26 6 -37.5t37 -11.5h33l-48 -240h-180q-77 0 -125 53t-35 129l7 35h-41q-52 -116 -147.5 -180t-225.5 -64zM451 469q0 -99 60.5 -159
t156.5 -60q127 0 226 105.5t99 240.5q0 101 -61 162t-154 61q-131 0 -229 -104.5t-98 -245.5zM575 1249l48 238h536l-47 -238h-537z" />
    <glyph glyph-name="Abreve" unicode="&#x102;" horiz-adv-x="1392" 
d="M20 0l9 41l684 1393h526l141 -1393l-8 -41h-317l-27 274h-536l-130 -274h-342zM631 573h368l-55 580h-43zM743 1794l11 55h192l-8 -41q-10 -49 13.5 -79.5t84.5 -30.5q57 0 93 28.5t47 81.5l8 41h192l-10 -55q-26 -135 -126 -210t-241 -75q-142 0 -212 74.5t-44 210.5z
" />
    <glyph glyph-name="abreve" unicode="&#x103;" 
d="M508 -27q-174 0 -274.5 118t-100.5 304q0 184 77 345.5t210 258.5t287 97q126 0 202 -70t84 -174h41l43 217h303l-153 -780q-4 -26 6 -37.5t37 -11.5h33l-48 -240h-180q-77 0 -125 53t-35 129l7 35h-41q-52 -116 -147.5 -180t-225.5 -64zM451 469q0 -99 60.5 -159
t156.5 -60q127 0 226 105.5t99 240.5q0 101 -61 162t-154 61q-131 0 -229 -104.5t-98 -245.5zM575 1470l11 56h192l-8 -41q-10 -49 13.5 -80t84.5 -31q57 0 93 29t47 82l8 41h192l-10 -56q-26 -135 -126 -209.5t-241 -74.5q-142 0 -212 74t-44 210z" />
    <glyph glyph-name="Aogonek" unicode="&#x104;" horiz-adv-x="1392" 
d="M20 0l9 41l684 1393h526l141 -1393l-8 -41l-158 -180q-32 -36 -32 -60q0 -17 12 -26.5t27 -9.5q29 0 49 16l20 -158q-81 -43 -192 -43q-70 0 -123 38t-53 110q0 33 14 65.5t29 52.5t41 48l133 147h-84l-27 274h-536l-130 -274h-342zM631 573h368l-55 580h-43z" />
    <glyph glyph-name="aogonek" unicode="&#x105;" 
d="M981 -461q-70 0 -123 38t-53 110q0 33 14 65.5t29 52.5t41 48l139 153q-60 15 -92.5 64t-20.5 112l7 35h-41q-52 -116 -147.5 -180t-225.5 -64q-174 0 -274.5 118t-100.5 304q0 184 77 345.5t210 258.5t287 97q126 0 202 -70t84 -174h41l43 217h303l-153 -780
q-4 -26 6 -37.5t37 -11.5h33l-48 -240l-157 -180q-33 -37 -33 -60q0 -17 12 -26.5t27 -9.5q29 0 49 16l21 -158q-81 -43 -193 -43zM451 469q0 -99 60.5 -159t156.5 -60q127 0 226 105.5t99 240.5q0 101 -61 162t-154 61q-131 0 -229 -104.5t-98 -245.5z" />
    <glyph glyph-name="Cacute" unicode="&#x106;" horiz-adv-x="1585" 
d="M795 -27q-188 0 -328 82.5t-210.5 220t-70.5 310.5q0 178 68 339.5t184 279t278 186.5t341 69q238 0 403.5 -116t218.5 -287l-297 -150q-41 120 -133.5 183t-222.5 63q-142 0 -258.5 -71t-182 -191t-65.5 -262q0 -172 89.5 -260t246.5 -88q144 0 274.5 81t196.5 218
l264 -134q-100 -212 -311 -342.5t-485 -130.5zM973 1511l8 41l184 314h260l-8 -41l-233 -314h-211z" />
    <glyph glyph-name="cacute" unicode="&#x107;" horiz-adv-x="1189" 
d="M610 -27q-216 0 -346.5 130t-130.5 329q0 138 51.5 261.5t140 211.5t213 139.5t265.5 51.5q176 0 301 -92.5t160 -235.5l-275 -137q-9 83 -70.5 135.5t-150.5 52.5q-132 0 -228 -107.5t-96 -244.5q0 -99 60.5 -158t152.5 -59q85 0 164.5 56.5t110.5 125.5l246 -125
q-85 -152 -229.5 -243t-338.5 -91zM711 1188l8 41l184 313h260l-8 -41l-233 -313h-211z" />
    <glyph glyph-name="Ccircumflex" unicode="&#x108;" horiz-adv-x="1585" 
d="M795 -27q-188 0 -328 82.5t-210.5 220t-70.5 310.5q0 178 68 339.5t184 279t278 186.5t341 69q238 0 403.5 -116t218.5 -287l-297 -150q-41 120 -133.5 183t-222.5 63q-142 0 -258.5 -71t-182 -191t-65.5 -262q0 -172 89.5 -260t246.5 -88q144 0 274.5 81t196.5 218
l264 -134q-100 -212 -311 -342.5t-485 -130.5zM776 1511l8 41l238 314h287l114 -314l-8 -41h-162l-104 142h-33l-155 -142h-185z" />
    <glyph glyph-name="ccircumflex" unicode="&#x109;" horiz-adv-x="1189" 
d="M610 -27q-216 0 -346.5 130t-130.5 329q0 138 51.5 261.5t140 211.5t213 139.5t265.5 51.5q176 0 301 -92.5t160 -235.5l-275 -137q-9 83 -70.5 135.5t-150.5 52.5q-132 0 -228 -107.5t-96 -244.5q0 -99 60.5 -158t152.5 -59q85 0 164.5 56.5t110.5 125.5l246 -125
q-85 -152 -229.5 -243t-338.5 -91zM514 1188l8 41l238 313h287l114 -313l-8 -41h-162l-104 141h-33l-156 -141h-184z" />
    <glyph glyph-name="Cdotaccent" unicode="&#x10a;" horiz-adv-x="1585" 
d="M795 -27q-188 0 -328 82.5t-210.5 220t-70.5 310.5q0 178 68 339.5t184 279t278 186.5t341 69q238 0 403.5 -116t218.5 -287l-297 -150q-41 120 -133.5 183t-222.5 63q-142 0 -258.5 -71t-182 -191t-65.5 -262q0 -172 89.5 -260t246.5 -88q144 0 274.5 81t196.5 218
l264 -134q-100 -212 -311 -342.5t-485 -130.5zM961 1546l61 314h311l-61 -314h-311z" />
    <glyph glyph-name="cdotaccent" unicode="&#x10b;" horiz-adv-x="1189" 
d="M610 -27q-216 0 -346.5 130t-130.5 329q0 138 51.5 261.5t140 211.5t213 139.5t265.5 51.5q176 0 301 -92.5t160 -235.5l-275 -137q-9 83 -70.5 135.5t-150.5 52.5q-132 0 -228 -107.5t-96 -244.5q0 -99 60.5 -158t152.5 -59q85 0 164.5 56.5t110.5 125.5l246 -125
q-85 -152 -229.5 -243t-338.5 -91zM698 1223l62 313h311l-61 -313h-312z" />
    <glyph glyph-name="Ccaron" unicode="&#x10c;" horiz-adv-x="1585" 
d="M795 -27q-188 0 -328 82.5t-210.5 220t-70.5 310.5q0 178 68 339.5t184 279t278 186.5t341 69q238 0 403.5 -116t218.5 -287l-297 -150q-41 120 -133.5 183t-222.5 63q-142 0 -258.5 -71t-182 -191t-65.5 -262q0 -172 89.5 -260t246.5 -88q144 0 274.5 81t196.5 218
l264 -134q-100 -212 -311 -342.5t-485 -130.5zM844 1825l8 41h162l104 -142h33l156 142h184l-8 -41l-238 -314h-287z" />
    <glyph glyph-name="ccaron" unicode="&#x10d;" horiz-adv-x="1189" 
d="M610 -27q-216 0 -346.5 130t-130.5 329q0 138 51.5 261.5t140 211.5t213 139.5t265.5 51.5q176 0 301 -92.5t160 -235.5l-275 -137q-9 83 -70.5 135.5t-150.5 52.5q-132 0 -228 -107.5t-96 -244.5q0 -99 60.5 -158t152.5 -59q85 0 164.5 56.5t110.5 125.5l246 -125
q-85 -152 -229.5 -243t-338.5 -91zM582 1501l8 41h162l104 -141h33l155 141h185l-8 -41l-238 -313h-287z" />
    <glyph glyph-name="Dcaron" unicode="&#x10e;" horiz-adv-x="1572" 
d="M133 0l55 287h144l168 860h-144l56 287h661q276 0 435 -165t159 -425q0 -176 -65 -331.5t-178.5 -268.5t-277 -178.5t-351.5 -65.5h-662zM651 291h164q221 0 370.5 150.5t149.5 373.5q0 153 -97 240.5t-259 87.5h-164zM743 1827l9 41h161l105 -142h33l155 142h185l-9 -41
l-237 -314h-287z" />
    <glyph glyph-name="dcaron" unicode="&#x10f;" horiz-adv-x="1306" 
d="M506 -27q-167 0 -270 124.5t-103 318.5q0 137 47.5 263t125.5 217t183.5 145.5t217.5 54.5q126 0 202 -70t84 -174h41l133 684h303l-243 -1247q-4 -26 6 -37.5t37 -11.5h33l-48 -240h-180q-85 0 -134 53t-36 129l6 35h-41q-30 -104 -132 -174t-232 -70zM451 469
q0 -99 60.5 -159t156.5 -60q127 0 226 105.5t99 240.5q0 101 -61 162t-154 61q-131 0 -229 -104.5t-98 -245.5zM1452 1104l117 432h254l-133 -432h-238z" />
    <glyph glyph-name="Dcroat" unicode="&#x110;" horiz-adv-x="1579" 
d="M240 596l49 256h160l57 295h-144l56 287h661q276 0 435 -165t159 -425q0 -176 -65 -331.5t-178.5 -268.5t-277 -178.5t-351.5 -65.5h-662l56 287h143l61 309h-159zM657 291h164q221 0 370.5 150.5t149.5 373.5q0 153 -97 240.5t-259 87.5h-164l-55 -291h268l-49 -256
h-268z" />
    <glyph glyph-name="dcroat" unicode="&#x111;" horiz-adv-x="1308" 
d="M870 1157l45 234h224l28 145h303l-28 -145h96l-45 -234h-96l-170 -868q-4 -26 6 -37.5t37 -11.5h33l-48 -240h-180q-85 0 -134 53t-36 129l6 35h-41q-30 -104 -132 -174t-232 -70q-167 0 -270 124.5t-103 318.5q0 137 47.5 263t125.5 217t183.5 145.5t217.5 54.5
q126 0 202 -70t84 -174h41l60 305h-224zM451 469q0 -99 60.5 -159t156.5 -60q127 0 226 105.5t99 240.5q0 101 -61 162t-154 61q-131 0 -229 -104.5t-98 -245.5z" />
    <glyph glyph-name="Emacron" unicode="&#x112;" horiz-adv-x="1177" 
d="M154 0l278 1434h920l-58 -295h-604l-51 -267h535l-56 -286h-534l-58 -291h627l-57 -295h-942zM664 1573l47 237h536l-47 -237h-536z" />
    <glyph glyph-name="emacron" unicode="&#x113;" horiz-adv-x="1165" 
d="M598 -27q-204 0 -334.5 128.5t-130.5 330.5q0 184 84.5 336t235 240t335.5 88q121 0 217 -43.5t151 -119.5t75.5 -179t-8.5 -222l-23 -100h-774q6 -96 66.5 -146t156.5 -50q67 0 129.5 32.5t98.5 73.5l206 -149q-200 -220 -485 -220zM475 670h479q5 77 -47 128.5
t-151 51.5q-90 0 -164 -48t-117 -132zM551 1225l47 237h537l-48 -237h-536z" />
    <glyph glyph-name="Ebreve" unicode="&#x114;" horiz-adv-x="1177" 
d="M154 0l278 1434h920l-58 -295h-604l-51 -267h535l-56 -286h-534l-58 -291h627l-57 -295h-942zM664 1794l10 55h192l-8 -41q-10 -49 13.5 -79.5t84.5 -30.5q57 0 93 28.5t47 81.5l8 41h192l-10 -55q-26 -135 -125.5 -210t-240.5 -75q-142 0 -212 74.5t-44 210.5z" />
    <glyph glyph-name="ebreve" unicode="&#x115;" horiz-adv-x="1165" 
d="M598 -27q-204 0 -334.5 128.5t-130.5 330.5q0 184 84.5 336t235 240t335.5 88q121 0 217 -43.5t151 -119.5t75.5 -179t-8.5 -222l-23 -100h-774q6 -96 66.5 -146t156.5 -50q67 0 129.5 32.5t98.5 73.5l206 -149q-200 -220 -485 -220zM475 670h479q5 77 -47 128.5
t-151 51.5q-90 0 -164 -48t-117 -132zM551 1446l10 55h193l-9 -41q-10 -49 14 -79.5t85 -30.5q57 0 92.5 28.5t46.5 81.5l8 41h193l-10 -55q-26 -135 -126 -210t-241 -75q-142 0 -212 74.5t-44 210.5z" />
    <glyph glyph-name="Edotaccent" unicode="&#x116;" horiz-adv-x="1177" 
d="M154 0l278 1434h920l-58 -295h-604l-51 -267h535l-56 -286h-534l-58 -291h627l-57 -295h-942zM782 1546l62 314h311l-61 -314h-312z" />
    <glyph glyph-name="edotaccent" unicode="&#x117;" horiz-adv-x="1165" 
d="M598 -27q-204 0 -334.5 128.5t-130.5 330.5q0 184 84.5 336t235 240t335.5 88q121 0 217 -43.5t151 -119.5t75.5 -179t-8.5 -222l-23 -100h-774q6 -96 66.5 -146t156.5 -50q67 0 129.5 32.5t98.5 73.5l206 -149q-200 -220 -485 -220zM475 670h479q5 77 -47 128.5
t-151 51.5q-90 0 -164 -48t-117 -132zM670 1198l61 313h311l-61 -313h-311z" />
    <glyph glyph-name="Eogonek" unicode="&#x118;" horiz-adv-x="1177" 
d="M154 0l278 1434h920l-58 -295h-604l-51 -267h535l-56 -286h-534l-58 -291h627l-57 -295l-158 -180q-33 -37 -33 -60q0 -17 12 -26.5t27 -9.5q29 0 49 16l21 -158q-81 -43 -193 -43q-70 0 -123 38t-53 110q0 33 14 65.5t29 52.5t41 48l133 147h-708z" />
    <glyph glyph-name="eogonek" unicode="&#x119;" horiz-adv-x="1165" 
d="M444 -461q-70 0 -123 38t-53 110q0 33 14 65.5t29 52.5t41 48l121 135q-155 35 -247.5 155t-92.5 289q0 184 84.5 336t235 240t335.5 88q121 0 217 -43.5t151 -119.5t75.5 -179t-8.5 -222l-23 -100h-774q6 -96 66.5 -146t156.5 -50q67 0 129.5 32.5t98.5 73.5l206 -149
q-158 -176 -381 -211l-141 -162q-33 -37 -33 -60q0 -17 12 -26.5t27 -9.5q29 0 49 16l21 -158q-81 -43 -193 -43zM475 670h479q5 77 -47 128.5t-151 51.5q-90 0 -164 -48t-117 -132z" />
    <glyph glyph-name="Ecaron" unicode="&#x11a;" horiz-adv-x="1177" 
d="M154 0l278 1434h920l-58 -295h-604l-51 -267h535l-56 -286h-534l-58 -291h627l-57 -295h-942zM666 1825l8 41h162l104 -142h33l155 142h185l-8 -41l-238 -314h-287z" />
    <glyph glyph-name="ecaron" unicode="&#x11b;" horiz-adv-x="1165" 
d="M598 -27q-204 0 -334.5 128.5t-130.5 330.5q0 184 84.5 336t235 240t335.5 88q121 0 217 -43.5t151 -119.5t75.5 -179t-8.5 -222l-23 -100h-774q6 -96 66.5 -146t156.5 -50q67 0 129.5 32.5t98.5 73.5l206 -149q-200 -220 -485 -220zM475 670h479q5 77 -47 128.5
t-151 51.5q-90 0 -164 -48t-117 -132zM553 1477l8 41h162l104 -142h33l156 142h184l-8 -41l-238 -314h-286z" />
    <glyph glyph-name="Gcircumflex" unicode="&#x11c;" horiz-adv-x="1644" 
d="M772 -27q-258 0 -422 172t-164 445q0 175 69.5 335.5t187 278t282 187t346.5 69.5q238 0 401.5 -109.5t223.5 -293.5l-297 -150q-26 115 -121 180.5t-234 65.5t-260 -72.5t-192.5 -195.5t-71.5 -264q0 -155 98 -247.5t252 -92.5q134 0 255.5 62t189.5 177h-383l53 277
h713l-156 -797h-328l35 178h-41q-68 -95 -178 -150t-258 -55zM793 1511l8 41l237 314h287l115 -314l-8 -41h-162l-105 142h-32l-156 -142h-184z" />
    <glyph glyph-name="gcircumflex" unicode="&#x11d;" horiz-adv-x="1284" 
d="M535 -6q-176 0 -280.5 117t-104.5 301q0 188 77 345.5t209 248t287 90.5q127 0 203 -70t84 -174h41l43 217h303l-205 -1010q-16 -80 -49 -153t-87.5 -140t-125 -116t-168 -78t-209.5 -29q-164 0 -278 85t-142 225l273 81q5 -50 50.5 -92.5t125.5 -42.5q240 0 315 260
l51 179h-41q-52 -116 -147 -180t-225 -64zM467 485q0 -100 56 -157.5t151 -57.5q130 0 233 97t103 229q0 101 -61 162t-154 61q-132 0 -230 -97.5t-98 -236.5zM532 1188l9 41l237 313h287l115 -313l-9 -41h-161l-105 141h-33l-155 -141h-185z" />
    <glyph glyph-name="Gbreve" unicode="&#x11e;" horiz-adv-x="1644" 
d="M772 -27q-258 0 -422 172t-164 445q0 175 69.5 335.5t187 278t282 187t346.5 69.5q238 0 401.5 -109.5t223.5 -293.5l-297 -150q-26 115 -121 180.5t-234 65.5t-260 -72.5t-192.5 -195.5t-71.5 -264q0 -155 98 -247.5t252 -92.5q134 0 255.5 62t189.5 177h-383l53 277
h713l-156 -797h-328l35 178h-41q-68 -95 -178 -150t-258 -55zM858 1794l10 55h193l-8 -41q-10 -49 13.5 -79.5t84.5 -30.5q57 0 92.5 28.5t46.5 81.5l8 41h193l-10 -55q-26 -135 -126 -210t-241 -75q-142 0 -212 74.5t-44 210.5z" />
    <glyph glyph-name="gbreve" unicode="&#x11f;" horiz-adv-x="1284" 
d="M535 -6q-176 0 -280.5 117t-104.5 301q0 188 77 345.5t209 248t287 90.5q127 0 203 -70t84 -174h41l43 217h303l-205 -1010q-16 -80 -49 -153t-87.5 -140t-125 -116t-168 -78t-209.5 -29q-164 0 -278 85t-142 225l273 81q5 -50 50.5 -92.5t125.5 -42.5q240 0 315 260
l51 179h-41q-52 -116 -147 -180t-225 -64zM467 485q0 -100 56 -157.5t151 -57.5q130 0 233 97t103 229q0 101 -61 162t-154 61q-132 0 -230 -97.5t-98 -236.5zM598 1470l10 56h193l-8 -41q-10 -49 13.5 -80t84.5 -31q57 0 92.5 29t46.5 82l8 41h193l-10 -56
q-26 -135 -126 -209.5t-241 -74.5q-142 0 -212 74t-44 210z" />
    <glyph glyph-name="Gdotaccent" unicode="&#x120;" horiz-adv-x="1644" 
d="M772 -27q-258 0 -422 172t-164 445q0 175 69.5 335.5t187 278t282 187t346.5 69.5q238 0 401.5 -109.5t223.5 -293.5l-297 -150q-26 115 -121 180.5t-234 65.5t-260 -72.5t-192.5 -195.5t-71.5 -264q0 -155 98 -247.5t252 -92.5q134 0 255.5 62t189.5 177h-383l53 277
h713l-156 -797h-328l35 178h-41q-68 -95 -178 -150t-258 -55zM977 1546l61 314h312l-62 -314h-311z" />
    <glyph glyph-name="gdotaccent" unicode="&#x121;" horiz-adv-x="1284" 
d="M535 -6q-176 0 -280.5 117t-104.5 301q0 188 77 345.5t209 248t287 90.5q127 0 203 -70t84 -174h41l43 217h303l-205 -1010q-16 -80 -49 -153t-87.5 -140t-125 -116t-168 -78t-209.5 -29q-164 0 -278 85t-142 225l273 81q5 -50 50.5 -92.5t125.5 -42.5q240 0 315 260
l51 179h-41q-52 -116 -147 -180t-225 -64zM467 485q0 -100 56 -157.5t151 -57.5q130 0 233 97t103 229q0 101 -61 162t-154 61q-132 0 -230 -97.5t-98 -236.5zM717 1223l61 313h312l-62 -313h-311z" />
    <glyph glyph-name="uni0122" unicode="&#x122;" horiz-adv-x="1644" 
d="M772 -27q-258 0 -422 172t-164 445q0 175 69.5 335.5t187 278t282 187t346.5 69.5q238 0 401.5 -109.5t223.5 -293.5l-297 -150q-26 115 -121 180.5t-234 65.5t-260 -72.5t-192.5 -195.5t-71.5 -264q0 -155 98 -247.5t252 -92.5q134 0 255.5 62t189.5 177h-383l53 277
h713l-156 -797h-328l35 178h-41q-68 -95 -178 -150t-258 -55zM623 -371q43 -2 68.5 13t33.5 55l2 6h-80l45 227h266l-51 -260q-33 -165 -213 -196h-37z" />
    <glyph glyph-name="uni0123" unicode="&#x123;" horiz-adv-x="1284" 
d="M535 -6q-176 0 -280.5 117t-104.5 301q0 188 77 345.5t209 248t287 90.5q127 0 203 -70t84 -174h41l43 217h303l-205 -1010q-16 -80 -49 -153t-87.5 -140t-125 -116t-168 -78t-209.5 -29q-164 0 -278 85t-142 225l273 81q5 -50 50.5 -92.5t125.5 -42.5q240 0 315 260
l51 179h-41q-52 -116 -147 -180t-225 -64zM467 485q0 -100 56 -157.5t151 -57.5q130 0 233 97t103 229q0 101 -61 162t-154 61q-132 0 -230 -97.5t-98 -236.5zM692 1157l51 260q33 166 213 197h37l35 -156q-43 2 -68.5 -12.5t-33.5 -54.5l-2 -7h80l-46 -227h-266z" />
    <glyph glyph-name="Hcircumflex" unicode="&#x124;" horiz-adv-x="1482" 
d="M1012 0l112 578h-540l-113 -578h-317l278 1434h318l-107 -553h541l106 553h318l-279 -1434h-317zM721 1511l8 41l238 314h286l115 -314l-8 -41h-162l-104 142h-33l-156 -142h-184z" />
    <glyph glyph-name="hcircumflex" unicode="&#x125;" horiz-adv-x="1206" 
d="M123 0l299 1536h303l-133 -684h41q49 115 138.5 179.5t199.5 64.5t178 -51t87.5 -130.5t0.5 -177.5l-143 -737h-303l120 616q15 79 -25 132t-120 53q-83 0 -143.5 -52.5t-75.5 -132.5l-121 -616h-303zM262 1614l8 41l238 313h287l114 -313l-8 -41h-162l-104 141h-33
l-156 -141h-184z" />
    <glyph glyph-name="Hbar" unicode="&#x126;" horiz-adv-x="1515" 
d="M260 1022l49 250h109l31 162h317l-31 -162h541l31 162h317l-31 -162h109l-49 -250h-109l-198 -1022h-318l113 578h-541l-113 -578h-317l199 1022h-109zM659 881h541l27 141h-541z" />
    <glyph glyph-name="hbar" unicode="&#x127;" horiz-adv-x="1206" 
d="M256 1157l45 234h92l29 145h303l-29 -145h228l-45 -234h-228l-59 -305h41q49 115 138.5 179.5t199.5 64.5t178 -51t87.5 -130.5t0.5 -177.5l-143 -737h-303l120 616q15 79 -25 132t-120 53q-83 0 -143.5 -52.5t-75.5 -132.5l-121 -616h-303l225 1157h-92z" />
    <glyph glyph-name="Itilde" unicode="&#x128;" horiz-adv-x="1110" 
d="M123 0l57 297h275l163 842h-274l57 295h865l-58 -295h-274l-164 -842h274l-57 -297h-864zM508 1579q21 123 90 187.5t160 64.5q31 0 63.5 -10t44 -16.5t39.5 -22.5l43 -27q39 -26 68 -26q32 0 54.5 24t31.5 70h41l110 -60q-14 -120 -83.5 -186t-161.5 -66q-82 0 -140 43
l-43 31q-40 29 -71 29q-34 0 -60 -25.5t-35 -68.5h-41z" />
    <glyph glyph-name="itilde" unicode="&#x129;" horiz-adv-x="593" 
d="M123 0l207 1069h303l-207 -1069h-303zM150 1255q21 124 89.5 188t159.5 64q64 0 148 -49l43 -26q40 -27 67 -27q32 0 54.5 24t31.5 70h41l111 -59q-14 -119 -84 -185.5t-162 -66.5q-81 0 -139 43l-43 31q-39 28 -72 28q-34 0 -59.5 -25.5t-34.5 -68.5h-41z" />
    <glyph glyph-name="Imacron" unicode="&#x12a;" horiz-adv-x="1110" 
d="M123 0l57 297h275l163 842h-274l57 295h865l-58 -295h-274l-164 -842h274l-57 -297h-864zM604 1573l47 237h537l-47 -237h-537z" />
    <glyph glyph-name="imacron" unicode="&#x12b;" horiz-adv-x="593" 
d="M123 0l207 1069h303l-207 -1069h-303zM246 1249l47 238h536l-47 -238h-536z" />
    <glyph glyph-name="Ibreve" unicode="&#x12c;" horiz-adv-x="1110" 
d="M123 0l57 297h275l163 842h-274l57 295h865l-58 -295h-274l-164 -842h274l-57 -297h-864zM604 1794l10 55h193l-8 -41q-10 -49 13.5 -79.5t84.5 -30.5q57 0 92.5 28.5t46.5 81.5l8 41h193l-10 -55q-26 -135 -126 -210t-241 -75q-142 0 -212 74.5t-44 210.5z" />
    <glyph glyph-name="ibreve" unicode="&#x12d;" horiz-adv-x="593" 
d="M123 0l207 1069h303l-207 -1069h-303zM246 1470l10 56h193l-9 -41q-10 -49 14 -80t85 -31q57 0 92.5 29t46.5 82l8 41h193l-11 -56q-26 -135 -125.5 -209.5t-240.5 -74.5q-142 0 -212 74t-44 210z" />
    <glyph glyph-name="Iogonek" unicode="&#x12e;" horiz-adv-x="1110" 
d="M123 0l57 297h275l163 842h-274l57 295h865l-58 -295h-274l-164 -842h274l-57 -297l-158 -180q-32 -36 -32 -60q0 -17 12 -26.5t27 -9.5q29 0 49 16l20 -158q-81 -43 -192 -43q-70 0 -123 38t-53 110q0 33 14 65.5t29 52.5t41 48l133 147h-631z" />
    <glyph glyph-name="iogonek" unicode="&#x12f;" horiz-adv-x="522" 
d="M147 -461q-70 0 -123 38t-53 110q0 33 14 65.5t29 52.5t41 48l133 147h-69l207 1069h303l-207 -1069l-158 -180q-33 -37 -33 -60q0 -17 12 -26.5t27 -9.5q29 0 49 16l21 -158q-81 -43 -193 -43zM360 1223l62 313h311l-61 -313h-312z" />
    <glyph glyph-name="Idotaccent" unicode="&#x130;" horiz-adv-x="1110" 
d="M123 0l57 297h275l163 842h-274l57 295h865l-58 -295h-274l-164 -842h274l-57 -297h-864zM723 1546l61 314h312l-62 -314h-311z" />
    <glyph glyph-name="dotlessi" unicode="&#x131;" horiz-adv-x="593" 
d="M123 0l207 1069h303l-207 -1069h-303z" />
    <glyph glyph-name="IJ" unicode="&#x132;" horiz-adv-x="2338" 
d="M123 0l57 297h275l163 842h-274l57 295h865l-58 -295h-274l-164 -842h274l-57 -297h-864zM1198 295l268 147q20 -74 75.5 -117.5t141.5 -43.5q115 0 202 67.5t108 179.5l118 611h-444l57 295h760l-176 -906q-51 -261 -220 -408t-446 -147q-164 0 -282.5 90.5
t-161.5 231.5z" />
    <glyph glyph-name="ij" unicode="&#x133;" horiz-adv-x="974" 
d="M92 0l207 1069h303l-207 -1069h-303zM326 1223l61 313h311l-61 -313h-311zM338 -430l55 287h45q51 0 89 30.5t48 85.5l213 1096h304l-220 -1116q-37 -192 -154 -287.5t-294 -95.5h-86zM813 1223l61 313h312l-62 -313h-311z" />
    <glyph glyph-name="Jcircumflex" unicode="&#x134;" horiz-adv-x="1228" 
d="M532 -27q-164 0 -282.5 90.5t-161.5 231.5l268 147q20 -74 75.5 -117.5t141.5 -43.5q115 0 202 67.5t108 179.5l118 611h-444l57 295h760l-176 -906q-51 -261 -220 -408t-446 -147zM692 1511l8 41l238 314h287l114 -314l-8 -41h-162l-104 142h-33l-155 -142h-185z" />
    <glyph glyph-name="jcircumflex" unicode="&#x135;" horiz-adv-x="501" 
d="M-150 -430l56 287h45q51 0 89 30.5t48 85.5l213 1094h303l-217 -1114q-37 -189 -159 -286t-291 -97h-87zM156 1184l8 41l237 313h287l115 -313l-8 -41h-162l-105 141h-32l-156 -141h-184z" />
    <glyph glyph-name="uni0136" unicode="&#x136;" horiz-adv-x="1357" 
d="M154 0l278 1434h318l-113 -576h43l565 576h359l-9 -41l-534 -527l295 -825l-8 -41h-328l-213 616l-268 -264l-68 -352h-317zM535 -371q43 -2 68.5 13t33.5 55l2 6h-80l45 227h266l-51 -260q-33 -165 -213 -196h-37z" />
    <glyph glyph-name="uni0137" unicode="&#x137;" horiz-adv-x="1120" 
d="M123 0l299 1536h303l-158 -801h41l334 334h344l-6 -41l-387 -371l215 -616l-8 -41h-297l-150 430l-178 -172l-49 -258h-303zM399 -371q43 -2 69 13t34 55l2 6h-80l45 227h266l-51 -260q-33 -165 -213 -196h-37z" />
    <glyph glyph-name="kgreenlandic" unicode="&#x138;" horiz-adv-x="1120" 
d="M123 0l207 1069h303l-66 -334h41l334 334h344l-6 -41l-387 -371l215 -616l-8 -41h-297l-150 430l-178 -172l-49 -258h-303z" />
    <glyph glyph-name="Lacute" unicode="&#x139;" horiz-adv-x="1112" 
d="M154 0l278 1434h318l-222 -1139h611l-58 -295h-927zM471 1511l8 41l185 314h260l-9 -41l-233 -314h-211z" />
    <glyph glyph-name="lacute" unicode="&#x13a;" horiz-adv-x="561" 
d="M412 1536h303l-244 -1247q-4 -26 6 -37.5t37 -11.5h74l-47 -240h-174q-114 0 -172 60.5t-37 170.5zM457 1614l8 41l184 313h260l-8 -41l-233 -313h-211z" />
    <glyph glyph-name="uni013B" unicode="&#x13b;" horiz-adv-x="1112" 
d="M154 0l278 1434h318l-222 -1139h611l-58 -295h-927zM434 -371q43 -2 69 13t34 55l2 6h-80l45 227h266l-51 -260q-33 -165 -213 -196h-37z" />
    <glyph glyph-name="uni013C" unicode="&#x13c;" horiz-adv-x="561" 
d="M412 1536h303l-244 -1247q-4 -26 6 -37.5t37 -11.5h74l-47 -240h-174q-114 0 -172 60.5t-37 170.5zM119 -371q43 -2 68.5 13t33.5 55l2 6h-80l45 227h267l-52 -260q-33 -165 -213 -196h-36z" />
    <glyph glyph-name="Lcaron" unicode="&#x13d;" horiz-adv-x="1161" 
d="M154 0l278 1434h318l-222 -1139h611l-58 -295h-927zM944 1001l117 433h254l-133 -433h-238z" />
    <glyph glyph-name="lcaron" unicode="&#x13e;" horiz-adv-x="722" 
d="M412 1536h303l-244 -1247q-4 -26 6 -37.5t37 -11.5h74l-47 -240h-174q-114 0 -172 60.5t-37 170.5zM705 1104l116 432h254l-133 -432h-237z" />
    <glyph glyph-name="Ldot" unicode="&#x13f;" horiz-adv-x="1159" 
d="M154 0l278 1434h318l-222 -1139h611l-58 -295h-927zM793 647l65 336h328l-66 -336h-327z" />
    <glyph glyph-name="ldot" unicode="&#x140;" horiz-adv-x="878" 
d="M412 1536h303l-244 -1247q-4 -26 6 -37.5t37 -11.5h74l-47 -240h-174q-114 0 -172 60.5t-37 170.5zM627 682l65 336h328l-66 -336h-327z" />
    <glyph glyph-name="Lslash" unicode="&#x141;" horiz-adv-x="1167" 
d="M186 430l52 266l159 68l131 670h318l-103 -525l387 162h41l-51 -266l-432 -180l-63 -330h610l-57 -295h-928l92 479l-115 -49h-41z" />
    <glyph glyph-name="lslash" unicode="&#x142;" horiz-adv-x="663" 
d="M127 549l49 254l154 76l127 657h303l-96 -487l157 77h41l-49 -254l-203 -102l-94 -481q-4 -26 6 -37.5t37 -11.5h74l-47 -240h-174q-114 0 -172 60.5t-37 170.5l71 371l-106 -53h-41z" />
    <glyph glyph-name="Nacute" unicode="&#x143;" horiz-adv-x="1533" 
d="M154 0l278 1434h604l54 -1153h32l224 1153h313l-279 -1434h-606l-51 1153h-33l-223 -1153h-313zM983 1511l8 41l185 314h260l-9 -41l-233 -314h-211z" />
    <glyph glyph-name="nacute" unicode="&#x144;" horiz-adv-x="1206" 
d="M123 0l207 1069h303l-41 -217h41q45 105 134 174.5t206 69.5q106 0 173.5 -51.5t88.5 -131.5t2 -176l-143 -737h-303l120 616q15 79 -25 132t-120 53q-83 0 -143.5 -52.5t-75.5 -132.5l-121 -616h-303zM743 1188l9 41l184 313h260l-8 -41l-234 -313h-211z" />
    <glyph glyph-name="uni0145" unicode="&#x145;" horiz-adv-x="1533" 
d="M154 0l278 1434h604l54 -1153h32l224 1153h313l-279 -1434h-606l-51 1153h-33l-223 -1153h-313zM528 -371q43 -2 69 13t34 55l2 6h-80l45 227h266l-51 -260q-33 -165 -213 -196h-37z" />
    <glyph glyph-name="uni0146" unicode="&#x146;" horiz-adv-x="1206" 
d="M123 0l207 1069h303l-41 -217h41q45 105 134 174.5t206 69.5q106 0 173.5 -51.5t88.5 -131.5t2 -176l-143 -737h-303l120 616q15 79 -25 132t-120 53q-83 0 -143.5 -52.5t-75.5 -132.5l-121 -616h-303zM399 -371q43 -2 69 13t34 55l2 6h-80l45 227h266l-51 -260
q-33 -165 -213 -196h-37z" />
    <glyph glyph-name="Ncaron" unicode="&#x147;" horiz-adv-x="1533" 
d="M154 0l278 1434h604l54 -1153h32l224 1153h313l-279 -1434h-606l-51 1153h-33l-223 -1153h-313zM854 1825l8 41h162l104 -142h33l156 142h184l-8 -41l-238 -314h-286z" />
    <glyph glyph-name="ncaron" unicode="&#x148;" horiz-adv-x="1206" 
d="M123 0l207 1069h303l-41 -217h41q45 105 134 174.5t206 69.5q106 0 173.5 -51.5t88.5 -131.5t2 -176l-143 -737h-303l120 616q15 79 -25 132t-120 53q-83 0 -143.5 -52.5t-75.5 -132.5l-121 -616h-303zM614 1501l9 41h161l105 -141h33l155 141h185l-9 -41l-237 -313h-287
z" />
    <glyph glyph-name="napostrophe" unicode="&#x149;" horiz-adv-x="1206" 
d="M123 0l207 1069h303l-41 -217h41q45 105 134 174.5t206 69.5q106 0 173.5 -51.5t88.5 -131.5t2 -176l-143 -737h-303l120 616q15 79 -25 132t-120 53q-83 0 -143.5 -52.5t-75.5 -132.5l-121 -616h-303zM51 1176q44 -2 69.5 12.5t33.5 54.5l2 6h-80l45 228h266l-51 -260
q-33 -166 -213 -197h-37z" />
    <glyph glyph-name="Eng" unicode="&#x14a;" horiz-adv-x="1533" 
d="M862 -471h-41l51 266h41q143 0 170 139l13 66h-322l-51 1153h-33l-223 -1153h-313l278 1434h604l54 -1153h32l224 1153h313l-279 -1434l-14 -68q-36 -184 -168.5 -293.5t-335.5 -109.5z" />
    <glyph glyph-name="eng" unicode="&#x14b;" horiz-adv-x="1204" 
d="M549 -471l53 270h57q44 0 73.5 27t37.5 70l21 104l120 616q15 79 -25 132t-120 53q-83 0 -143.5 -52.5t-75.5 -132.5l-121 -616h-303l207 1069h303l-41 -217h41q45 105 134 174.5t206 69.5q106 0 173.5 -51.5t88.5 -131.5t2 -176l-135 -696l-29 -147
q-37 -192 -156.5 -278.5t-312.5 -86.5h-55z" />
    <glyph glyph-name="Omacron" unicode="&#x14c;" horiz-adv-x="1642" 
d="M815 -27q-190 0 -333.5 75.5t-219.5 208.5t-76 304q0 179 71 344t192 287t293 195t364 73q144 0 263 -45t199.5 -124t124.5 -188t44 -235q0 -178 -71 -342.5t-192 -286t-293.5 -194t-365.5 -72.5zM520 621q0 -155 100.5 -247.5t256.5 -92.5q139 0 260.5 72t193.5 194.5
t72 263.5q0 155 -100 248.5t-256 93.5q-104 0 -201.5 -43t-168.5 -115t-114 -170.5t-43 -203.5zM868 1573l47 237h537l-47 -237h-537z" />
    <glyph glyph-name="omacron" unicode="&#x14d;" horiz-adv-x="1249" 
d="M623 -27q-219 0 -354.5 124t-135.5 323q0 136 50.5 259.5t140 215.5t221.5 146.5t286 54.5q211 0 351.5 -128.5t140.5 -326.5q0 -130 -52.5 -251.5t-143 -213.5t-222.5 -147.5t-282 -55.5zM444 469q0 -100 64.5 -159.5t165.5 -59.5q136 0 237 103t101 243
q0 100 -64 161.5t-164 61.5q-137 0 -238.5 -104.5t-101.5 -245.5zM621 1249l47 238h536l-47 -238h-536z" />
    <glyph glyph-name="Obreve" unicode="&#x14e;" horiz-adv-x="1642" 
d="M815 -27q-190 0 -333.5 75.5t-219.5 208.5t-76 304q0 179 71 344t192 287t293 195t364 73q144 0 263 -45t199.5 -124t124.5 -188t44 -235q0 -178 -71 -342.5t-192 -286t-293.5 -194t-365.5 -72.5zM520 621q0 -155 100.5 -247.5t256.5 -92.5q139 0 260.5 72t193.5 194.5
t72 263.5q0 155 -100 248.5t-256 93.5q-104 0 -201.5 -43t-168.5 -115t-114 -170.5t-43 -203.5zM868 1794l11 55h192l-8 -41q-10 -49 13.5 -79.5t84.5 -30.5q57 0 92.5 28.5t46.5 81.5l9 41h192l-10 -55q-26 -135 -126 -210t-241 -75q-142 0 -212 74.5t-44 210.5z" />
    <glyph glyph-name="obreve" unicode="&#x14f;" horiz-adv-x="1249" 
d="M623 -27q-219 0 -354.5 124t-135.5 323q0 136 50.5 259.5t140 215.5t221.5 146.5t286 54.5q211 0 351.5 -128.5t140.5 -326.5q0 -130 -52.5 -251.5t-143 -213.5t-222.5 -147.5t-282 -55.5zM444 469q0 -100 64.5 -159.5t165.5 -59.5q136 0 237 103t101 243
q0 100 -64 161.5t-164 61.5q-137 0 -238.5 -104.5t-101.5 -245.5zM621 1470l10 56h192l-8 -41q-10 -49 13.5 -80t84.5 -31q57 0 93 29t47 82l8 41h192l-10 -56q-26 -135 -125.5 -209.5t-240.5 -74.5q-142 0 -212 74t-44 210z" />
    <glyph glyph-name="Ohungarumlaut" unicode="&#x150;" horiz-adv-x="1642" 
d="M815 -27q-190 0 -333.5 75.5t-219.5 208.5t-76 304q0 179 71 344t192 287t293 195t364 73q144 0 263 -45t199.5 -124t124.5 -188t44 -235q0 -178 -71 -342.5t-192 -286t-293.5 -194t-365.5 -72.5zM520 621q0 -155 100.5 -247.5t256.5 -92.5q139 0 260.5 72t193.5 194.5
t72 263.5q0 155 -100 248.5t-256 93.5q-104 0 -201.5 -43t-168.5 -115t-114 -170.5t-43 -203.5zM866 1511l8 41l164 314h242l-8 -41l-213 -314h-193zM1194 1511l8 41l164 314h242l-9 -41l-213 -314h-192z" />
    <glyph glyph-name="ohungarumlaut" unicode="&#x151;" horiz-adv-x="1249" 
d="M623 -27q-219 0 -354.5 124t-135.5 323q0 136 50.5 259.5t140 215.5t221.5 146.5t286 54.5q211 0 351.5 -128.5t140.5 -326.5q0 -130 -52.5 -251.5t-143 -213.5t-222.5 -147.5t-282 -55.5zM444 469q0 -100 64.5 -159.5t165.5 -59.5q136 0 237 103t101 243
q0 100 -64 161.5t-164 61.5q-137 0 -238.5 -104.5t-101.5 -245.5zM618 1188l9 41l164 313h241l-8 -41l-213 -313h-193zM946 1188l8 41l164 313h242l-8 -41l-213 -313h-193z" />
    <glyph glyph-name="OE" unicode="&#x152;" horiz-adv-x="2263" 
d="M815 -27q-190 0 -333.5 75.5t-219.5 208.5t-76 304q0 179 71 344t192 287t293 195t364 73q105 0 207 -26h1124l-57 -295h-703q60 -123 60 -267h522l-55 -286h-514q-58 -165 -166 -291h714l-57 -295h-1139q-125 -27 -227 -27zM520 621q0 -155 100.5 -247.5t256.5 -92.5
q139 0 260.5 72t193.5 194.5t72 263.5q0 155 -100 248.5t-256 93.5q-104 0 -201.5 -43t-168.5 -115t-114 -170.5t-43 -203.5z" />
    <glyph glyph-name="oe" unicode="&#x153;" horiz-adv-x="2045" 
d="M598 -27q-205 0 -335 125t-130 322q0 134 48.5 256t135 215.5t217 149t283.5 55.5q159 0 268 -89.5t109 -199.5h41q81 137 208 213t269 76q77 0 142.5 -21t111.5 -57t81 -85t50.5 -105t20.5 -117t-9 -121l-30 -158h-774q6 -96 66 -146t155 -50q69 0 139 33.5t102 72.5
l193 -149q-196 -220 -481 -220q-143 0 -246 81.5t-109 183.5h-41q-69 -122 -202.5 -193.5t-282.5 -71.5zM444 469q0 -100 64.5 -159.5t165.5 -59.5q136 0 237 103t101 243q0 100 -64 161.5t-164 61.5q-137 0 -238.5 -104.5t-101.5 -245.5zM1358 670h473q8 68 -45.5 124
t-143.5 56q-88 0 -162 -45t-122 -135z" />
    <glyph glyph-name="Racute" unicode="&#x154;" horiz-adv-x="1341" 
d="M154 0l278 1434h627q184 0 282.5 -84t98.5 -222q0 -147 -81 -252t-224 -143l-9 -43q38 -13 69.5 -36.5t59.5 -66t34.5 -100t-5.5 -137.5l-67 -350h-318l57 299q14 77 -25 125.5t-130 48.5h-240l-92 -473h-315zM618 768h252q88 0 157 67.5t69 153.5q0 65 -43 107.5
t-111 42.5h-252zM788 1511l9 41l184 314h260l-8 -41l-234 -314h-211z" />
    <glyph glyph-name="racute" unicode="&#x155;" horiz-adv-x="847" 
d="M123 0l207 1069h303l-43 -227h41q50 116 147 179.5t230 63.5l-62 -319l-178 -2q-96 -1 -154.5 -56t-74.5 -139l-113 -569h-303zM559 1163l8 41l185 314h260l-8 -41l-234 -314h-211z" />
    <glyph glyph-name="uni0156" unicode="&#x156;" horiz-adv-x="1341" 
d="M154 0l278 1434h627q184 0 282.5 -84t98.5 -222q0 -147 -81 -252t-224 -143l-9 -43q38 -13 69.5 -36.5t59.5 -66t34.5 -100t-5.5 -137.5l-67 -350h-318l57 299q14 77 -25 125.5t-130 48.5h-240l-92 -473h-315zM469 -371q43 -2 68.5 13t33.5 55l2 6h-79l45 227h266
l-51 -260q-33 -165 -213 -196h-37zM618 768h252q88 0 157 67.5t69 153.5q0 65 -43 107.5t-111 42.5h-252z" />
    <glyph glyph-name="uni0157" unicode="&#x157;" horiz-adv-x="847" 
d="M123 0l207 1069h303l-43 -227h41q50 116 147 179.5t230 63.5l-62 -319l-178 -2q-96 -1 -154.5 -56t-74.5 -139l-113 -569h-303zM119 -371q43 -2 68.5 13t33.5 55l2 6h-80l45 227h267l-52 -260q-33 -165 -213 -196h-36z" />
    <glyph glyph-name="Rcaron" unicode="&#x158;" horiz-adv-x="1341" 
d="M154 0l278 1434h627q184 0 282.5 -84t98.5 -222q0 -147 -81 -252t-224 -143l-9 -43q38 -13 69.5 -36.5t59.5 -66t34.5 -100t-5.5 -137.5l-67 -350h-318l57 299q14 77 -25 125.5t-130 48.5h-240l-92 -473h-315zM618 768h252q88 0 157 67.5t69 153.5q0 65 -43 107.5
t-111 42.5h-252zM659 1825l9 41h161l105 -142h33l155 142h185l-9 -41l-237 -314h-287z" />
    <glyph glyph-name="rcaron" unicode="&#x159;" horiz-adv-x="847" 
d="M123 0l207 1069h303l-43 -227h41q50 116 147 179.5t230 63.5l-62 -319l-178 -2q-96 -1 -154.5 -56t-74.5 -139l-113 -569h-303zM430 1477l8 41h162l105 -142h32l156 142h184l-8 -41l-238 -314h-286z" />
    <glyph glyph-name="Sacute" unicode="&#x15a;" horiz-adv-x="1306" 
d="M684 -27q-237 0 -378 121t-146 301l301 86q-5 -90 62.5 -150.5t181.5 -60.5q126 0 201 44t75 120q0 50 -35 80t-100 49l-187 53q-136 38 -220.5 130t-84.5 235q0 214 159 346.5t405 132.5q203 0 337 -102.5t140 -274.5l-305 -79q2 64 -47.5 117t-149.5 53
q-98 0 -156.5 -43.5t-58.5 -110.5q0 -39 30 -68t83 -43l174 -47q165 -45 252.5 -142.5t87.5 -244.5q0 -226 -164.5 -364t-456.5 -138zM825 1511l9 41l184 314h260l-8 -41l-234 -314h-211z" />
    <glyph glyph-name="sacute" unicode="&#x15b;" horiz-adv-x="1069" 
d="M547 -27q-186 0 -304.5 86.5t-121.5 241.5l282 68q0 -70 47.5 -104t122.5 -34q88 0 138.5 28.5t50.5 78.5q0 53 -80 68l-182 36q-110 23 -181 93t-71 180q0 173 137.5 277t349.5 104q181 0 297 -86.5t119 -225.5l-277 -69q0 58 -44 96.5t-119 38.5q-70 0 -115 -30
t-45 -72q0 -49 80 -64l176 -33q134 -25 198 -97.5t64 -172.5q0 -188 -140 -298t-382 -110zM662 1188l8 41l184 313h260l-8 -41l-234 -313h-210z" />
    <glyph glyph-name="Scircumflex" unicode="&#x15c;" horiz-adv-x="1306" 
d="M684 -27q-237 0 -378 121t-146 301l301 86q-5 -90 62.5 -150.5t181.5 -60.5q126 0 201 44t75 120q0 50 -35 80t-100 49l-187 53q-136 38 -220.5 130t-84.5 235q0 214 159 346.5t405 132.5q203 0 337 -102.5t140 -274.5l-305 -79q2 64 -47.5 117t-149.5 53
q-98 0 -156.5 -43.5t-58.5 -110.5q0 -39 30 -68t83 -43l174 -47q165 -45 252.5 -142.5t87.5 -244.5q0 -226 -164.5 -364t-456.5 -138zM629 1511l8 41l237 314h287l115 -314l-8 -41h-162l-105 142h-32l-156 -142h-184z" />
    <glyph glyph-name="scircumflex" unicode="&#x15d;" horiz-adv-x="1069" 
d="M547 -27q-186 0 -304.5 86.5t-121.5 241.5l282 68q0 -70 47.5 -104t122.5 -34q88 0 138.5 28.5t50.5 78.5q0 53 -80 68l-182 36q-110 23 -181 93t-71 180q0 173 137.5 277t349.5 104q181 0 297 -86.5t119 -225.5l-277 -69q0 58 -44 96.5t-119 38.5q-70 0 -115 -30
t-45 -72q0 -49 80 -64l176 -33q134 -25 198 -97.5t64 -172.5q0 -188 -140 -298t-382 -110zM465 1188l8 41l238 313h286l115 -313l-8 -41h-162l-104 141h-33l-156 -141h-184z" />
    <glyph glyph-name="Scedilla" unicode="&#x15e;" horiz-adv-x="1306" 
d="M623 -461q-61 0 -112 32.5t-71 90.5l135 64q16 -37 58 -37q33 0 58.5 24t25.5 56q0 24 -17 38.5t-43 14.5q-37 0 -63 -33l-129 66l72 133q-173 36 -272.5 146.5t-104.5 260.5l301 86q-5 -90 62.5 -150.5t181.5 -60.5q126 0 201 44t75 120q0 50 -35 80t-100 49l-187 53
q-136 38 -220.5 130t-84.5 235q0 214 159 346.5t405 132.5q203 0 337 -102.5t140 -274.5l-305 -79q2 64 -47.5 117t-149.5 53q-98 0 -156.5 -43.5t-58.5 -110.5q0 -39 30 -68t83 -43l174 -47q165 -45 252.5 -142.5t87.5 -244.5q0 -146 -69.5 -257.5t-207 -176.5t-326.5 -68
l-51 -90h33q33 56 96 56q48 0 79.5 -38.5t31.5 -99.5q0 -113 -71.5 -187.5t-196.5 -74.5z" />
    <glyph glyph-name="scedilla" unicode="&#x15f;" horiz-adv-x="1069" 
d="M502 -461q-61 0 -112 32.5t-71 90.5l136 64q16 -37 57 -37q33 0 58.5 24t25.5 56q0 24 -17 38.5t-42 14.5q-38 0 -64 -33l-129 66l72 131q-133 27 -212.5 108t-82.5 207l282 68q0 -70 47.5 -104t122.5 -34q88 0 138.5 28.5t50.5 78.5q0 53 -80 68l-182 36
q-110 23 -181 93t-71 180q0 173 137.5 277t349.5 104q181 0 297 -86.5t119 -225.5l-277 -69q0 58 -44 96.5t-119 38.5q-70 0 -115 -30t-45 -72q0 -49 80 -64l176 -33q134 -25 198 -97.5t64 -172.5q0 -180 -130 -289.5t-357 -118.5l-52 -90h33q33 56 96 56q48 0 79.5 -38.5
t31.5 -99.5q0 -113 -71.5 -187.5t-196.5 -74.5z" />
    <glyph glyph-name="Scaron" unicode="&#x160;" horiz-adv-x="1306" 
d="M684 -27q-237 0 -378 121t-146 301l301 86q-5 -90 62.5 -150.5t181.5 -60.5q126 0 201 44t75 120q0 50 -35 80t-100 49l-187 53q-136 38 -220.5 130t-84.5 235q0 214 159 346.5t405 132.5q203 0 337 -102.5t140 -274.5l-305 -79q2 64 -47.5 117t-149.5 53
q-98 0 -156.5 -43.5t-58.5 -110.5q0 -39 30 -68t83 -43l174 -47q165 -45 252.5 -142.5t87.5 -244.5q0 -226 -164.5 -364t-456.5 -138zM696 1825l9 41h161l105 -142h33l155 142h184l-8 -41l-237 -314h-287z" />
    <glyph glyph-name="scaron" unicode="&#x161;" horiz-adv-x="1069" 
d="M547 -27q-186 0 -304.5 86.5t-121.5 241.5l282 68q0 -70 47.5 -104t122.5 -34q88 0 138.5 28.5t50.5 78.5q0 53 -80 68l-182 36q-110 23 -181 93t-71 180q0 173 137.5 277t349.5 104q181 0 297 -86.5t119 -225.5l-277 -69q0 58 -44 96.5t-119 38.5q-70 0 -115 -30
t-45 -72q0 -49 80 -64l176 -33q134 -25 198 -97.5t64 -172.5q0 -188 -140 -298t-382 -110zM532 1501l9 41h161l105 -141h33l155 141h185l-9 -41l-237 -313h-287z" />
    <glyph glyph-name="uni0162" unicode="&#x162;" horiz-adv-x="1308" 
d="M494 0l221 1139h-432l57 295h1186l-58 -295h-436l-221 -1139h-78l-67 -117h32q33 56 97 56q48 0 79 -38.5t31 -99.5q0 -113 -71.5 -187.5t-196.5 -74.5q-61 0 -111.5 32.5t-70.5 90.5l135 64q16 -37 57 -37q33 0 58.5 24t25.5 56q0 24 -17 38.5t-42 14.5q-38 0 -64 -33
l-129 66l78 145h-63z" />
    <glyph glyph-name="uni0163" unicode="&#x163;" horiz-adv-x="894" 
d="M530 -461q-61 0 -111.5 32.5t-70.5 90.5l135 64q16 -37 58 -37q33 0 58.5 24t25.5 56q0 24 -17 38.5t-43 14.5q-37 0 -63 -33l-129 66l86 157q-208 59 -156 330l92 471h-196l47 246h98q120 0 141 106l29 142h274l-47 -238h289l-49 -256h-289l-88 -444q-18 -97 74 -97h172
l-53 -272h-170l-68 -117h33q33 56 96 56q48 0 79.5 -38.5t31.5 -99.5q0 -113 -72 -187.5t-197 -74.5z" />
    <glyph glyph-name="Tcaron" unicode="&#x164;" horiz-adv-x="1308" 
d="M494 0l221 1139h-432l57 295h1186l-58 -295h-436l-221 -1139h-317zM696 1866l9 41h161l105 -142h33l155 142h184l-8 -41l-237 -314h-287z" />
    <glyph glyph-name="tcaron" unicode="&#x165;" horiz-adv-x="899" 
d="M565 0q-53 0 -97 10.5t-83 34.5t-60.5 63.5t-30 97.5t8.5 136l92 471h-196l47 246h98q120 0 141 106l29 142h274l-47 -238h289l-49 -256h-289l-88 -444q-18 -97 74 -97h172l-53 -272h-232zM840 1171l116 433h254l-133 -433h-237z" />
    <glyph glyph-name="Tbar" unicode="&#x166;" horiz-adv-x="1308" 
d="M332 625l51 266h283l49 248h-432l57 295h1186l-58 -295h-436l-49 -248h287l-51 -266h-287l-121 -625h-317l120 625h-282z" />
    <glyph glyph-name="tbar" unicode="&#x167;" horiz-adv-x="954" 
d="M199 483l47 240h190l19 90h-197l47 246h98q121 0 142 106l28 142h275l-47 -238h289l-50 -256h-288l-19 -90h268l-47 -240h-268l-22 -114q-18 -97 73 -97h172l-53 -272h-231q-53 0 -97.5 10.5t-83.5 34.5t-60.5 63.5t-30 97.5t8.5 136l29 141h-192z" />
    <glyph glyph-name="Utilde" unicode="&#x168;" horiz-adv-x="1437" 
d="M721 -27q-264 0 -397.5 159.5t-85.5 406.5l174 895h319l-174 -893q-24 -123 28.5 -197t186.5 -74q121 0 209.5 76.5t112.5 196.5l174 891h315l-174 -893q-53 -273 -227.5 -420.5t-460.5 -147.5zM653 1579q21 123 90 187.5t160 64.5q64 0 148 -49l43 -27q39 -26 67 -26
q32 0 54.5 24t31.5 70h41l111 -60q-14 -119 -84 -185.5t-162 -66.5q-81 0 -139 43l-43 31q-40 29 -72 29q-34 0 -59.5 -25.5t-34.5 -68.5h-41z" />
    <glyph glyph-name="utilde" unicode="&#x169;" horiz-adv-x="1200" 
d="M430 -27q-110 0 -177.5 52t-86.5 131t0 176l143 737h303l-120 -616q-15 -80 25.5 -132.5t119.5 -52.5q83 0 143.5 52.5t75.5 132.5l121 616h303l-154 -788q-4 -21 8 -31t37 -10h33l-47 -240h-180q-93 0 -139.5 51.5t-32.5 130.5l6 35h-41q-43 -102 -137.5 -173
t-202.5 -71zM469 1255q21 123 90 187.5t160 64.5q31 0 63.5 -10t44 -16.5t39.5 -22.5l43 -26q41 -27 68 -27q32 0 54.5 24t31.5 70h41l110 -59q-14 -120 -83.5 -186t-161.5 -66q-82 0 -140 43l-43 31q-39 28 -71 28q-34 0 -59.5 -25.5t-34.5 -68.5h-41z" />
    <glyph glyph-name="Umacron" unicode="&#x16a;" horiz-adv-x="1437" 
d="M721 -27q-264 0 -397.5 159.5t-85.5 406.5l174 895h319l-174 -893q-24 -123 28.5 -197t186.5 -74q121 0 209.5 76.5t112.5 196.5l174 891h315l-174 -893q-53 -273 -227.5 -420.5t-460.5 -147.5zM750 1573l47 237h536l-47 -237h-536z" />
    <glyph glyph-name="umacron" unicode="&#x16b;" horiz-adv-x="1200" 
d="M430 -27q-110 0 -177.5 52t-86.5 131t0 176l143 737h303l-120 -616q-15 -80 25.5 -132.5t119.5 -52.5q83 0 143.5 52.5t75.5 132.5l121 616h303l-154 -788q-4 -21 8 -31t37 -10h33l-47 -240h-180q-93 0 -139.5 51.5t-32.5 130.5l6 35h-41q-43 -102 -137.5 -173
t-202.5 -71zM565 1249l47 238h537l-47 -238h-537z" />
    <glyph glyph-name="Ubreve" unicode="&#x16c;" horiz-adv-x="1437" 
d="M721 -27q-264 0 -397.5 159.5t-85.5 406.5l174 895h319l-174 -893q-24 -123 28.5 -197t186.5 -74q121 0 209.5 76.5t112.5 196.5l174 891h315l-174 -893q-53 -273 -227.5 -420.5t-460.5 -147.5zM750 1794l10 55h192l-8 -41q-10 -49 13.5 -79.5t84.5 -30.5q57 0 93 28.5
t47 81.5l8 41h192l-10 -55q-26 -135 -125.5 -210t-240.5 -75q-142 0 -212 74.5t-44 210.5z" />
    <glyph glyph-name="ubreve" unicode="&#x16d;" horiz-adv-x="1200" 
d="M430 -27q-110 0 -177.5 52t-86.5 131t0 176l143 737h303l-120 -616q-15 -80 25.5 -132.5t119.5 -52.5q83 0 143.5 52.5t75.5 132.5l121 616h303l-154 -788q-4 -21 8 -31t37 -10h33l-47 -240h-180q-93 0 -139.5 51.5t-32.5 130.5l6 35h-41q-43 -102 -137.5 -173
t-202.5 -71zM565 1470l10 56h193l-8 -41q-10 -49 13.5 -80t84.5 -31q57 0 92.5 29t46.5 82l9 41h192l-10 -56q-26 -135 -126 -209.5t-241 -74.5q-142 0 -212 74t-44 210z" />
    <glyph glyph-name="Uring" unicode="&#x16e;" horiz-adv-x="1437" 
d="M721 -27q-264 0 -397.5 159.5t-85.5 406.5l174 895h319l-174 -893q-24 -123 28.5 -197t186.5 -74q121 0 209.5 76.5t112.5 196.5l174 891h315l-174 -893q-53 -273 -227.5 -420.5t-460.5 -147.5zM803 1673q0 111 83 191t201 80q89 0 145 -55t56 -130q0 -113 -83.5 -193.5
t-205.5 -80.5q-88 0 -142 53.5t-54 134.5zM961 1698q0 -31 18 -49.5t49 -18.5q40 0 70 31t30 72q0 29 -18 47t-51 18q-38 0 -68 -30t-30 -70z" />
    <glyph glyph-name="uring" unicode="&#x16f;" horiz-adv-x="1200" 
d="M430 -27q-110 0 -177.5 52t-86.5 131t0 176l143 737h303l-120 -616q-15 -80 25.5 -132.5t119.5 -52.5q83 0 143.5 52.5t75.5 132.5l121 616h303l-154 -788q-4 -21 8 -31t37 -10h33l-47 -240h-180q-93 0 -139.5 51.5t-32.5 130.5l6 35h-41q-43 -102 -137.5 -173
t-202.5 -71zM618 1350q0 111 83.5 190.5t201.5 79.5q89 0 145 -54.5t56 -129.5q0 -114 -83.5 -194.5t-205.5 -80.5q-88 0 -142.5 54t-54.5 135zM776 1374q0 -31 18.5 -49t49.5 -18q40 0 70 30.5t30 71.5q0 29 -18.5 47.5t-51.5 18.5q-38 0 -68 -30.5t-30 -70.5z" />
    <glyph glyph-name="Uhungarumlaut" unicode="&#x170;" horiz-adv-x="1437" 
d="M721 -27q-264 0 -397.5 159.5t-85.5 406.5l174 895h319l-174 -893q-24 -123 28.5 -197t186.5 -74q121 0 209.5 76.5t112.5 196.5l174 891h315l-174 -893q-53 -273 -227.5 -420.5t-460.5 -147.5zM748 1511l8 41l164 314h241l-8 -41l-213 -314h-192zM1075 1511l8 41
l164 314h242l-8 -41l-213 -314h-193z" />
    <glyph glyph-name="uhungarumlaut" unicode="&#x171;" horiz-adv-x="1200" 
d="M430 -27q-110 0 -177.5 52t-86.5 131t0 176l143 737h303l-120 -616q-15 -80 25.5 -132.5t119.5 -52.5q83 0 143.5 52.5t75.5 132.5l121 616h303l-154 -788q-4 -21 8 -31t37 -10h33l-47 -240h-180q-93 0 -139.5 51.5t-32.5 130.5l6 35h-41q-43 -102 -137.5 -173
t-202.5 -71zM563 1188l8 41l164 313h242l-8 -41l-213 -313h-193zM891 1188l8 41l164 313h242l-9 -41l-213 -313h-192z" />
    <glyph glyph-name="Uogonek" unicode="&#x172;" horiz-adv-x="1437" 
d="M627 -461q-70 0 -123 38t-53 110q0 33 14 65.5t29 52.5t41 48l112 124q-230 23 -342 178t-67 384l174 895h319l-174 -893q-24 -123 28.5 -197t186.5 -74q121 0 209.5 76.5t112.5 196.5l174 891h315l-174 -893q-45 -229 -175.5 -370.5t-342.5 -182.5l-148 -168
q-32 -36 -32 -60q0 -17 12 -26.5t27 -9.5q29 0 49 16l20 -158q-81 -43 -192 -43z" />
    <glyph glyph-name="uogonek" unicode="&#x173;" horiz-adv-x="1200" 
d="M883 -461q-70 0 -123 38t-53 110q0 33 14 65.5t29 52.5t41 48l137 151q-70 13 -102.5 62t-20.5 116l6 35h-41q-43 -102 -137.5 -173t-202.5 -71q-110 0 -177.5 52t-86.5 131t0 176l143 737h303l-120 -616q-15 -80 25.5 -132.5t119.5 -52.5q83 0 143.5 52.5t75.5 132.5
l121 616h303l-154 -788q-4 -21 8 -31t37 -10h33l-47 -240l-158 -180q-32 -36 -32 -60q0 -17 12 -26.5t27 -9.5q29 0 49 16l20 -158q-81 -43 -192 -43z" />
    <glyph glyph-name="Wcircumflex" unicode="&#x174;" horiz-adv-x="2023" 
d="M291 0l41 1393l8 41h330l-70 -1153h43l387 1153h561l-59 -1153h43l379 1153h327l-8 -41l-499 -1393h-553l57 1153h-43l-391 -1153h-553zM1008 1511l8 41l237 314h287l115 -314l-8 -41h-162l-105 142h-32l-156 -142h-184z" />
    <glyph glyph-name="wcircumflex" unicode="&#x175;" horiz-adv-x="1669" 
d="M221 0l8 1028l7 41h309l-37 -788h43l258 788h473l-45 -788h43l272 788h306l-7 -41l-395 -1028h-493l53 788h-43l-258 -788h-494zM754 1188l8 41l237 313h287l115 -313l-8 -41h-162l-105 141h-32l-156 -141h-184z" />
    <glyph glyph-name="Ycircumflex" unicode="&#x176;" horiz-adv-x="1363" 
d="M522 0l109 565h-51l-289 828l8 41h324l190 -588h41l412 588h356l-8 -41l-619 -828h-47l-108 -565h-318zM653 1511l9 41l237 314h287l114 -314l-8 -41h-162l-104 142h-33l-155 -142h-185z" />
    <glyph glyph-name="ycircumflex" unicode="&#x177;" horiz-adv-x="1193" 
d="M344 0l-123 1028l8 41h303l80 -788h43l404 788h323l-8 -41l-770 -1458h-338l6 41l213 389h-141zM508 1163l8 41l238 314h286l115 -314l-8 -41h-162l-104 142h-33l-156 -142h-184z" />
    <glyph glyph-name="Ydieresis" unicode="&#x178;" horiz-adv-x="1363" 
d="M522 0l109 565h-51l-289 828l8 41h324l190 -588h41l412 588h356l-8 -41l-619 -828h-47l-108 -565h-318zM623 1552l59 303h287l-60 -303h-286zM1044 1552l60 303h287l-60 -303h-287z" />
    <glyph glyph-name="Zacute" unicode="&#x179;" horiz-adv-x="1390" 
d="M113 0l100 512l954 573l9 41h-818l60 308h1134l-100 -512l-954 -574l-9 -41h848l-59 -307h-1165zM877 1511l8 41l184 314h260l-8 -41l-234 -314h-210z" />
    <glyph glyph-name="zacute" unicode="&#x17a;" horiz-adv-x="1077" 
d="M61 0l93 453l698 319l8 41h-622l49 256h925l-86 -448l-702 -320l-8 -41h651l-51 -260h-955zM639 1188l8 41l184 313h261l-9 -41l-233 -313h-211z" />
    <glyph glyph-name="Zdotaccent" unicode="&#x17b;" horiz-adv-x="1390" 
d="M113 0l100 512l954 573l9 41h-818l60 308h1134l-100 -512l-954 -574l-9 -41h848l-59 -307h-1165zM864 1546l62 314h311l-61 -314h-312z" />
    <glyph glyph-name="zdotaccent" unicode="&#x17c;" horiz-adv-x="1077" 
d="M61 0l93 453l698 319l8 41h-622l49 256h925l-86 -448l-702 -320l-8 -41h651l-51 -260h-955zM627 1223l61 313h311l-61 -313h-311z" />
    <glyph glyph-name="Zcaron" unicode="&#x17d;" horiz-adv-x="1390" 
d="M113 0l100 512l954 573l9 41h-818l60 308h1134l-100 -512l-954 -574l-9 -41h848l-59 -307h-1165zM748 1825l8 41h162l104 -142h33l155 142h185l-9 -41l-237 -314h-287z" />
    <glyph glyph-name="zcaron" unicode="&#x17e;" horiz-adv-x="1077" 
d="M61 0l93 453l698 319l8 41h-622l49 256h925l-86 -448l-702 -320l-8 -41h651l-51 -260h-955zM510 1501l8 41h162l104 -141h33l156 141h184l-8 -41l-238 -313h-286z" />
    <glyph glyph-name="uni01CD" unicode="&#x1cd;" horiz-adv-x="1392" 
d="M20 0l9 41l684 1393h526l141 -1393l-8 -41h-317l-27 274h-536l-130 -274h-342zM631 573h368l-55 580h-43zM745 1825l9 41h161l105 -142h33l155 142h185l-9 -41l-237 -314h-287z" />
    <glyph glyph-name="uni01CE" unicode="&#x1ce;" 
d="M508 -27q-174 0 -274.5 118t-100.5 304q0 184 77 345.5t210 258.5t287 97q126 0 202 -70t84 -174h41l43 217h303l-153 -780q-4 -26 6 -37.5t37 -11.5h33l-48 -240h-180q-77 0 -125 53t-35 129l7 35h-41q-52 -116 -147.5 -180t-225.5 -64zM451 469q0 -99 60.5 -159
t156.5 -60q127 0 226 105.5t99 240.5q0 101 -61 162t-154 61q-131 0 -229 -104.5t-98 -245.5zM578 1501l8 41h162l104 -141h33l155 141h185l-8 -41l-238 -313h-287z" />
    <glyph glyph-name="uni01CF" unicode="&#x1cf;" horiz-adv-x="1110" 
d="M123 0l57 297h275l163 842h-274l57 295h865l-58 -295h-274l-164 -842h274l-57 -297h-864zM606 1825l8 41h162l105 -142h32l156 142h184l-8 -41l-237 -314h-287z" />
    <glyph glyph-name="uni01D0" unicode="&#x1d0;" horiz-adv-x="593" 
d="M123 0l207 1069h303l-207 -1069h-303zM248 1501l8 41h162l104 -141h33l156 141h184l-8 -41l-238 -313h-287z" />
    <glyph glyph-name="uni01D1" unicode="&#x1d1;" horiz-adv-x="1642" 
d="M815 -27q-190 0 -333.5 75.5t-219.5 208.5t-76 304q0 179 71 344t192 287t293 195t364 73q144 0 263 -45t199.5 -124t124.5 -188t44 -235q0 -178 -71 -342.5t-192 -286t-293.5 -194t-365.5 -72.5zM520 621q0 -155 100.5 -247.5t256.5 -92.5q139 0 260.5 72t193.5 194.5
t72 263.5q0 155 -100 248.5t-256 93.5q-104 0 -201.5 -43t-168.5 -115t-114 -170.5t-43 -203.5zM870 1825l9 41h161l105 -142h33l155 142h185l-9 -41l-237 -314h-287z" />
    <glyph glyph-name="uni01D2" unicode="&#x1d2;" horiz-adv-x="1249" 
d="M623 -27q-219 0 -354.5 124t-135.5 323q0 136 50.5 259.5t140 215.5t221.5 146.5t286 54.5q211 0 351.5 -128.5t140.5 -326.5q0 -130 -52.5 -251.5t-143 -213.5t-222.5 -147.5t-282 -55.5zM444 469q0 -100 64.5 -159.5t165.5 -59.5q136 0 237 103t101 243
q0 100 -64 161.5t-164 61.5q-137 0 -238.5 -104.5t-101.5 -245.5zM623 1501l8 41h162l104 -141h33l155 141h185l-8 -41l-238 -313h-287z" />
    <glyph glyph-name="Gcaron" unicode="&#x1e6;" horiz-adv-x="1644" 
d="M772 -27q-258 0 -422 172t-164 445q0 175 69.5 335.5t187 278t282 187t346.5 69.5q238 0 401.5 -109.5t223.5 -293.5l-297 -150q-26 115 -121 180.5t-234 65.5t-260 -72.5t-192.5 -195.5t-71.5 -264q0 -155 98 -247.5t252 -92.5q134 0 255.5 62t189.5 177h-383l53 277
h713l-156 -797h-328l35 178h-41q-68 -95 -178 -150t-258 -55zM860 1825l8 41h162l105 -142h32l156 142h184l-8 -41l-237 -314h-287z" />
    <glyph glyph-name="gcaron" unicode="&#x1e7;" horiz-adv-x="1284" 
d="M535 -6q-176 0 -280.5 117t-104.5 301q0 188 77 345.5t209 248t287 90.5q127 0 203 -70t84 -174h41l43 217h303l-205 -1010q-16 -80 -49 -153t-87.5 -140t-125 -116t-168 -78t-209.5 -29q-164 0 -278 85t-142 225l273 81q5 -50 50.5 -92.5t125.5 -42.5q240 0 315 260
l51 179h-41q-52 -116 -147 -180t-225 -64zM467 485q0 -100 56 -157.5t151 -57.5q130 0 233 97t103 229q0 101 -61 162t-154 61q-132 0 -230 -97.5t-98 -236.5zM600 1501l8 41h162l104 -141h33l156 141h184l-8 -41l-238 -313h-286z" />
    <glyph glyph-name="uni0218" unicode="&#x218;" horiz-adv-x="1306" 
d="M684 -27q-237 0 -378 121t-146 301l301 86q-5 -90 62.5 -150.5t181.5 -60.5q126 0 201 44t75 120q0 50 -35 80t-100 49l-187 53q-136 38 -220.5 130t-84.5 235q0 214 159 346.5t405 132.5q203 0 337 -102.5t140 -274.5l-305 -79q2 64 -47.5 117t-149.5 53
q-98 0 -156.5 -43.5t-58.5 -110.5q0 -39 30 -68t83 -43l174 -47q165 -45 252.5 -142.5t87.5 -244.5q0 -226 -164.5 -364t-456.5 -138zM420 -371q43 -2 68.5 13t33.5 55l2 6h-80l45 227h267l-51 -260q-33 -165 -213 -196h-37z" />
    <glyph glyph-name="uni0219" unicode="&#x219;" horiz-adv-x="1069" 
d="M547 -27q-186 0 -304.5 86.5t-121.5 241.5l282 68q0 -70 47.5 -104t122.5 -34q88 0 138.5 28.5t50.5 78.5q0 53 -80 68l-182 36q-110 23 -181 93t-71 180q0 173 137.5 277t349.5 104q181 0 297 -86.5t119 -225.5l-277 -69q0 58 -44 96.5t-119 38.5q-70 0 -115 -30
t-45 -72q0 -49 80 -64l176 -33q134 -25 198 -97.5t64 -172.5q0 -188 -140 -298t-382 -110zM299 -371q43 -2 68.5 13t33.5 55l2 6h-79l45 227h266l-51 -260q-33 -165 -213 -196h-37z" />
    <glyph glyph-name="uni021A" unicode="&#x21a;" horiz-adv-x="1308" 
d="M494 0l221 1139h-432l57 295h1186l-58 -295h-436l-221 -1139h-317zM434 -371q43 -2 69 13t34 55l2 6h-80l45 227h266l-51 -260q-33 -165 -213 -196h-37z" />
    <glyph glyph-name="uni021B" unicode="&#x21b;" horiz-adv-x="894" 
d="M565 0q-53 0 -97 10.5t-83 34.5t-60.5 63.5t-30 97.5t8.5 136l92 471h-196l47 246h98q120 0 141 106l29 142h274l-47 -238h289l-49 -256h-289l-88 -444q-18 -97 74 -97h172l-53 -272h-232zM328 -371q43 -2 68.5 13t33.5 55l2 6h-80l45 227h267l-52 -260
q-33 -165 -213 -196h-37z" />
    <glyph glyph-name="uni0237" unicode="&#x237;" horiz-adv-x="501" 
d="M-150 -430l56 287h45q51 0 89 30.5t48 85.5l213 1094h303l-217 -1114q-37 -189 -159 -286t-291 -97h-87z" />
    <glyph glyph-name="circumflex" unicode="&#x2c6;" horiz-adv-x="761" 
d="M539 1542h286l115 -313l-8 -41h-162l-104 141h-33l-156 -141h-184l8 41z" />
    <glyph glyph-name="caron" unicode="&#x2c7;" horiz-adv-x="761" 
d="M758 1188h-287l-115 313l9 41h161l105 -141h33l155 141h185l-9 -41z" />
    <glyph glyph-name="breve" unicode="&#x2d8;" horiz-adv-x="724" 
d="M594 1186q-142 0 -212 74t-44 210l10 56h193l-9 -41q-10 -49 14 -80t85 -31q57 0 92.5 29t46.5 82l8 41h193l-10 -56q-26 -135 -126 -209.5t-241 -74.5z" />
    <glyph glyph-name="dotaccent" unicode="&#x2d9;" horiz-adv-x="434" 
d="M299 1223l61 313h312l-62 -313h-311z" />
    <glyph glyph-name="ring" unicode="&#x2da;" horiz-adv-x="573" 
d="M512 1161q-88 0 -142.5 54t-54.5 135q0 111 83.5 190.5t201.5 79.5q89 0 145 -54.5t56 -129.5q0 -114 -83.5 -194.5t-205.5 -80.5zM473 1374q0 -31 18.5 -49t49.5 -18q40 0 70 30.5t30 71.5q0 29 -18.5 47.5t-51.5 18.5q-38 0 -68 -30.5t-30 -70.5z" />
    <glyph glyph-name="ogonek" unicode="&#x2db;" horiz-adv-x="514" 
d="M178 -461q-70 0 -123 38t-53 110q0 33 14 65.5t29 52.5t41 48l133 147h234l-158 -180q-33 -37 -33 -60q0 -17 12 -26.5t27 -9.5q29 0 49 16l21 -158q-81 -43 -193 -43z" />
    <glyph glyph-name="tilde" unicode="&#x2dc;" horiz-adv-x="833" 
d="M805 1188q-81 0 -139 43l-43 31q-39 28 -72 28q-34 0 -59.5 -25.5t-34.5 -68.5h-41l-111 59q21 123 90 187.5t160 64.5q31 0 63.5 -10t44 -16.5t39.5 -22.5l43 -26q40 -27 68 -27q32 0 54.5 24t31.5 70h41l111 -59q-14 -119 -84 -185.5t-162 -66.5z" />
    <glyph glyph-name="hungarumlaut" unicode="&#x2dd;" horiz-adv-x="804" 
d="M641 1188l8 41l164 313h242l-8 -41l-213 -313h-193zM313 1188l9 41l163 313h242l-8 -41l-213 -313h-193z" />
    <glyph glyph-name="uni0326" unicode="&#x326;" horiz-adv-x="0" 
d="M61 -526h-36l-35 155q43 -2 68.5 13t33.5 55l2 6h-80l45 227h267l-52 -260q-33 -165 -213 -196z" />
    <glyph glyph-name="Wgrave" unicode="&#x1e80;" horiz-adv-x="2023" 
d="M291 0l41 1393l8 41h330l-70 -1153h43l387 1153h561l-59 -1153h43l379 1153h327l-8 -41l-499 -1393h-553l57 1153h-43l-391 -1153h-553zM1055 1825l8 41h244l184 -314l-8 -41h-164z" />
    <glyph glyph-name="wgrave" unicode="&#x1e81;" horiz-adv-x="1669" 
d="M221 0l8 1028l7 41h309l-37 -788h43l258 788h473l-45 -788h43l272 788h306l-7 -41l-395 -1028h-493l53 788h-43l-258 -788h-494zM801 1501l8 41h244l184 -313l-8 -41h-164z" />
    <glyph glyph-name="Wacute" unicode="&#x1e82;" horiz-adv-x="2023" 
d="M291 0l41 1393l8 41h330l-70 -1153h43l387 1153h561l-59 -1153h43l379 1153h327l-8 -41l-499 -1393h-553l57 1153h-43l-391 -1153h-553zM1204 1511l8 41l185 314h260l-8 -41l-234 -314h-211z" />
    <glyph glyph-name="wacute" unicode="&#x1e83;" horiz-adv-x="1669" 
d="M221 0l8 1028l7 41h309l-37 -788h43l258 788h473l-45 -788h43l272 788h306l-7 -41l-395 -1028h-493l53 788h-43l-258 -788h-494zM950 1188l8 41l185 313h260l-8 -41l-234 -313h-211z" />
    <glyph glyph-name="Wdieresis" unicode="&#x1e84;" horiz-adv-x="2023" 
d="M291 0l41 1393l8 41h330l-70 -1153h43l387 1153h561l-59 -1153h43l379 1153h327l-8 -41l-499 -1393h-553l57 1153h-43l-391 -1153h-553zM977 1552l59 303h287l-59 -303h-287zM1399 1552l59 303h287l-59 -303h-287z" />
    <glyph glyph-name="wdieresis" unicode="&#x1e85;" horiz-adv-x="1669" 
d="M221 0l8 1028l7 41h309l-37 -788h43l258 788h473l-45 -788h43l272 788h306l-7 -41l-395 -1028h-493l53 788h-43l-258 -788h-494zM723 1229l59 303h287l-59 -303h-287zM1145 1229l59 303h287l-59 -303h-287z" />
    <glyph glyph-name="uni1E9E" unicode="&#x1e9e;" horiz-adv-x="1505" 
d="M954 -25q-118 0 -219 50t-153 137l227 209q25 -43 77.5 -72t108.5 -29q87 0 142 43.5t55 106.5q0 42 -37.5 69t-110.5 27h-268l80 414l326 170l8 41h-340q-76 0 -130.5 -47t-68.5 -119l-190 -975h-307l188 971q19 100 60 181.5t106.5 146t163.5 100t221 35.5h700
l-88 -457l-334 -168l-8 -41h35q154 0 233.5 -86t79.5 -211q0 -214 -155 -355t-402 -141z" />
    <glyph glyph-name="uni1EBC" unicode="&#x1ebc;" horiz-adv-x="1177" 
d="M154 0l278 1434h920l-58 -295h-604l-51 -267h535l-56 -286h-534l-58 -291h627l-57 -295h-942zM567 1579q21 123 90 187.5t160 64.5q64 0 148 -49l43 -27q39 -26 67 -26q32 0 54.5 24t31.5 70h41l111 -60q-14 -119 -84 -185.5t-162 -66.5q-81 0 -139 43l-43 31
q-40 29 -72 29q-34 0 -59.5 -25.5t-34.5 -68.5h-41z" />
    <glyph glyph-name="uni1EBD" unicode="&#x1ebd;" horiz-adv-x="1165" 
d="M598 -27q-204 0 -334.5 128.5t-130.5 330.5q0 184 84.5 336t235 240t335.5 88q121 0 217 -43.5t151 -119.5t75.5 -179t-8.5 -222l-23 -100h-774q6 -96 66.5 -146t156.5 -50q67 0 129.5 32.5t98.5 73.5l206 -149q-200 -220 -485 -220zM455 1231q21 123 90 187.5t160 64.5
q31 0 63.5 -10t44 -16.5t39.5 -22.5l43 -27q40 -27 68 -27q67 0 86 95h41l110 -60q-14 -119 -84 -185.5t-162 -66.5q-81 0 -139 43l-43 31q-40 29 -72 29q-34 0 -59.5 -26t-34.5 -69h-41zM475 670h479q5 77 -47 128.5t-151 51.5q-90 0 -164 -48t-117 -132z" />
    <glyph glyph-name="Ygrave" unicode="&#x1ef2;" horiz-adv-x="1363" 
d="M522 0l109 565h-51l-289 828l8 41h324l190 -588h41l412 588h356l-8 -41l-619 -828h-47l-108 -565h-318zM700 1825l9 41h243l185 -314l-9 -41h-163z" />
    <glyph glyph-name="ygrave" unicode="&#x1ef3;" horiz-adv-x="1193" 
d="M344 0l-123 1028l8 41h303l80 -788h43l404 788h323l-8 -41l-770 -1458h-338l6 41l213 389h-141zM555 1477l8 41h244l184 -314l-8 -41h-164z" />
    <glyph glyph-name="endash" unicode="&#x2013;" horiz-adv-x="1347" 
d="M215 473l47 246h1102l-47 -246h-1102z" />
    <glyph glyph-name="emdash" unicode="&#x2014;" horiz-adv-x="1890" 
d="M215 473l47 246h1645l-47 -246h-1645z" />
    <glyph glyph-name="quoteleft" unicode="&#x2018;" horiz-adv-x="495" 
d="M571 1436h41l39 -172q-81 -22 -120.5 -63t-53.5 -107l-10 -50h106l-65 -335h-328l88 424q25 120 108 198.5t195 104.5z" />
    <glyph glyph-name="quoteright" unicode="&#x2019;" horiz-adv-x="495" 
d="M301 707h-41l-39 172q81 22 120.5 63t53.5 107l11 49h-107l66 336h327l-88 -424q-25 -120 -108 -198.5t-195 -104.5z" />
    <glyph glyph-name="quotesinglbase" unicode="&#x201a;" horiz-adv-x="489" 
d="M88 -391h-41l-39 172q81 22 120.5 63t53.5 107l11 49h-107l66 336h327l-88 -424q-25 -120 -108 -198.5t-195 -104.5z" />
    <glyph glyph-name="quotedblleft" unicode="&#x201c;" horiz-adv-x="915" 
d="M573 1434h41l39 -172q-81 -22 -120.5 -63t-53.5 -107l-10 -50h106l-65 -335h-328l88 423q25 120 108 199t195 105zM602 707l88 423q25 120 108 199t195 105h41l39 -172q-81 -22 -120.5 -63t-53.5 -107l-10 -50h106l-65 -335h-328z" />
    <glyph glyph-name="quotedblright" unicode="&#x201d;" horiz-adv-x="915" 
d="M725 707h-41l-39 172q81 22 120.5 63t53.5 107l10 49h-106l65 336h328l-88 -424q-25 -120 -108 -198.5t-195 -104.5zM225 879q81 22 120.5 63t53.5 107l11 49h-107l66 336h327l-88 -424q-25 -120 -108 -198.5t-195 -104.5h-41z" />
    <glyph glyph-name="quotedblbase" unicode="&#x201e;" horiz-adv-x="915" 
d="M500 -391h-41l-39 172q81 22 120.5 63t53.5 107l10 49h-106l65 336h328l-88 -424q-25 -120 -108 -198.5t-195 -104.5zM0 -219q81 22 120.5 63t53.5 107l10 49h-106l65 336h328l-88 -424q-25 -120 -108 -198.5t-195 -104.5h-41z" />
    <glyph glyph-name="dagger" unicode="&#x2020;" horiz-adv-x="841" 
d="M416 563l86 443h-215l37 194h215l47 234h223l-47 -234h219l-37 -194h-219l-86 -443h-223z" />
    <glyph glyph-name="daggerdbl" unicode="&#x2021;" horiz-adv-x="841" 
d="M371 330l45 233h-215l37 195h215l49 248h-215l37 194h215l47 234h223l-47 -234h219l-37 -194h-219l-49 -248h219l-37 -195h-219l-45 -233h-223z" />
    <glyph glyph-name="bullet" unicode="&#x2022;" horiz-adv-x="950" 
d="M530 283q-130 0 -210 79.5t-80 202.5q0 108 59.5 206t159 157t209.5 59q130 0 210 -79.5t80 -202.5q0 -108 -59.5 -206t-159 -157t-209.5 -59z" />
    <glyph glyph-name="perthousand" unicode="&#x2030;" horiz-adv-x="2295" 
d="M455 0l4 20l893 1311h247l-4 -20l-893 -1311h-247zM231 877l31 163q26 136 128.5 227t256.5 91q155 0 227.5 -92t45.5 -226l-33 -163q-14 -68 -43 -123.5t-74.5 -100t-113.5 -69.5t-152 -25q-154 0 -226.5 91t-46.5 227zM444 879q-10 -58 15 -90.5t78 -32.5q51 0 89 33
t48 90l31 159q10 56 -14.5 88.5t-76.5 32.5t-90.5 -32.5t-48.5 -88.5zM1137 295l30 154q29 143 122 233t233 90q89 0 149.5 -43.5t63.5 -116.5h82q30 74 100.5 117t157.5 43q145 0 210 -93t37 -228l-30 -156q-28 -142 -122.5 -232t-242.5 -90q-88 0 -145 43t-60 117h-82
q-30 -74 -104 -117t-162 -43q-141 0 -203.5 90.5t-33.5 231.5zM1350 297q-11 -58 14 -91.5t80 -33.5q53 0 93 34.5t50 90.5l29 152q10 57 -15.5 90.5t-78.5 33.5q-56 0 -94.5 -34t-49.5 -90zM1841 297q-10 -57 15.5 -91t78.5 -34q54 0 93 32.5t51 92.5l28 152
q11 57 -14 90.5t-80 33.5q-54 0 -93 -34t-50 -90z" />
    <glyph glyph-name="guilsinglleft" unicode="&#x2039;" horiz-adv-x="657" 
d="M555 160l-377 274l53 273l488 299h41l-51 -267l-263 -159l-8 -41l207 -133l-49 -246h-41z" />
    <glyph glyph-name="guilsinglright" unicode="&#x203a;" horiz-adv-x="657" 
d="M328 1006l377 -275l-54 -272l-487 -299h-41l51 266l262 160l8 41l-206 133l49 246h41z" />
    <glyph glyph-name="fraction" unicode="&#x2044;" horiz-adv-x="987" 
d="M-41 -104l8 41l1022 1478h293l-8 -41l-1022 -1478h-293z" />
    <glyph glyph-name="Euro" unicode="&#x20ac;" horiz-adv-x="1236" 
d="M684 -27q-68 0 -132.5 17t-121 53t-96.5 87.5t-59 125t-9 160.5h-104l43 219h102l10 55h-102l43 219h102q28 110 87 197.5t136 141.5t164.5 82t178.5 28t178 -29.5t159 -94t99 -153.5l-293 -153q-9 57 -57.5 93t-116.5 36q-71 0 -131 -40.5t-90 -107.5h252l-43 -219h-256
l-11 -55h256l-43 -219h-249q5 -64 49 -103t114 -39q67 0 126.5 38.5t88.5 101.5l252 -148q-58 -95 -148.5 -162.5t-186.5 -99t-191 -31.5z" />
    <glyph glyph-name="trademark" unicode="&#x2122;" horiz-adv-x="1789" 
d="M438 696l109 561h-201l35 177h586l-35 -177h-201l-108 -561h-185zM942 696l143 738h373l-61 -555h41l157 555h371l-143 -738h-181l109 557h-41l-166 -557h-323l51 557h-41l-109 -557h-180z" />
    <glyph glyph-name="arrowleft" unicode="&#x2190;" horiz-adv-x="1748" 
d="M1677 735v-307h-1202v-41q49 -4 93 -15t94 -32.5t89.5 -59.5t72.5 -90.5t51 -130.5t18 -174h-320q0 96 -18 175.5t-47.5 133.5t-71.5 95.5t-85.5 65.5t-95 38.5t-94.5 19.5t-89 5v327q46 0 89 5t94.5 19.5t95 38.5t85.5 65.5t71.5 95.5t47.5 133.5t18 175.5h320
q0 -96 -18 -174t-51 -130.5t-72.5 -90.5t-89.5 -59.5t-94 -32.5t-93 -15v-41h1202z" />
    <glyph glyph-name="arrowup" unicode="&#x2191;" horiz-adv-x="1536" 
d="M614 0v1202h-41q-5 -60 -19 -112.5t-49 -111t-88 -99.5t-141.5 -68t-203.5 -27v320q96 0 175.5 18t133.5 47.5t95.5 71.5t65 86t38 95.5t19.5 94.5t5 89h328q0 -46 5 -89t19.5 -94.5t38 -95.5t65 -86t95.5 -71.5t133.5 -47.5t175.5 -18v-320q-115 0 -203.5 27t-141.5 68
t-88 99.5t-49 111t-19 112.5h-41v-1202h-308z" />
    <glyph glyph-name="arrowright" unicode="&#x2192;" horiz-adv-x="1748" 
d="M72 735h1202v41q-49 4 -93 15t-94 32.5t-89.5 59.5t-72.5 90.5t-51 130.5t-18 174h320q0 -96 18 -175.5t47.5 -133.5t71.5 -95.5t85.5 -65.5t95 -38.5t94.5 -19.5t89 -5v-327q-46 0 -89 -5t-94.5 -19.5t-95 -38.5t-85.5 -65.5t-71.5 -95.5t-47.5 -133.5t-18 -175.5h-320
q0 96 18 174t51 130.5t72.5 90.5t89.5 59.5t94 32.5t93 15v41h-1202v307z" />
    <glyph glyph-name="arrowdown" unicode="&#x2193;" horiz-adv-x="1536" 
d="M614 1434h308v-1203h41q5 60 19 112.5t49 111t88 99.5t141.5 68t203.5 27v-319q-96 0 -175.5 -18t-133.5 -47.5t-95.5 -71.5t-65 -86t-38 -95.5t-19.5 -94.5t-5 -89h-328q0 46 -5 89t-19.5 94.5t-38 95.5t-65 86t-95.5 71.5t-133.5 47.5t-175.5 18v319q115 0 203.5 -27
t141.5 -68t88 -99.5t49 -111t19 -112.5h41v1203z" />
    <glyph glyph-name="uni2196" unicode="&#x2196;" horiz-adv-x="1525" 
d="M1454 408l-217 -218l-850 850l-29 -28q39 -46 66 -93.5t43 -113.5t8 -132.5t-51.5 -149t-124.5 -163.5l-227 228q68 68 111.5 136.5t61 127.5t16.5 118t-15 106.5t-40 95t-53 81t-59 66.5l232 231q38 -38 79 -68.5t97 -59.5t118 -36t131 3.5t148 56.5t158 125l225 -225
q-81 -81 -162.5 -125t-148 -52.5t-132.5 8t-113.5 43.5t-92.5 66l-29 -29z" />
    <glyph glyph-name="uni2197" unicode="&#x2197;" horiz-adv-x="1525" 
d="M72 408l850 849l-29 29q-45 -39 -92.5 -66t-113.5 -43.5t-132.5 -8t-148 52.5t-162.5 125l225 225q79 -79 158 -125t148 -56.5t131 -3.5t118 36t97 59.5t79 68.5l232 -231q-32 -33 -59 -66.5t-53 -81t-40 -95t-15 -106.5t16.5 -118t61 -127.5t111.5 -136.5l-227 -228
q-81 81 -124.5 163.5t-52 149t7.5 132.5t43 113.5t66 93.5l-28 28l-850 -850z" />
    <glyph glyph-name="uni2198" unicode="&#x2198;" horiz-adv-x="1525" 
d="M72 969l217 217l850 -850l28 29q-39 46 -66 93t-43 113.5t-7.5 133t52 148.5t124.5 163l227 -228q-68 -68 -111.5 -136.5t-61 -127.5t-16.5 -118t15 -106.5t40 -95t53 -81t59 -66.5l-232 -231q-38 38 -79 68.5t-97 59.5t-118 36t-131 -3.5t-148 -56.5t-158 -125l-225 226
q81 81 162.5 125t148 52t132.5 -8.5t113.5 -43.5t92.5 -66l29 29z" />
    <glyph glyph-name="uni2199" unicode="&#x2199;" horiz-adv-x="1525" 
d="M1454 969l-850 -850l29 -29q45 39 92.5 66t113.5 43.5t132.5 8.5t148 -52t162.5 -125l-225 -226q-79 79 -158 125t-148 56.5t-131 3.5t-118 -36t-97 -59.5t-79 -68.5l-232 231q32 33 59 66.5t53 81t40 95t15 106.5t-16.5 118t-61 127.5t-111.5 136.5l227 228
q81 -81 124.5 -163t51.5 -148.5t-8 -133t-43 -113.5t-66 -93l29 -29l850 850z" />
    <glyph glyph-name="minus" unicode="&#x2212;" horiz-adv-x="901" 
d="M113 528l43 220h880l-43 -220h-880z" />
    <glyph glyph-name="i.loclTRK" horiz-adv-x="518" 
d="M123 0l207 1069h303l-207 -1069h-303zM356 1223l62 313h311l-61 -313h-312z" />
    <glyph glyph-name="zero.ss01" horiz-adv-x="1175" 
d="M584 -27q-71 0 -138 19t-125.5 57.5t-97.5 97t-54.5 137t3.5 177.5l80 409q18 97 60 177.5t100 137t129.5 96t149.5 58.5t161 19q71 0 138 -19t125.5 -57.5t97.5 -97t54.5 -137t-3.5 -177.5l-80 -409q-46 -242 -203 -365t-397 -123zM512 330q43 -56 129 -56
q85 0 152 55.5t84 141.5l38 197zM522 666l402 338q-47 53 -129 53q-85 0 -152 -55.5t-84 -141.5z" />
    <glyph glyph-name="zero.tf" horiz-adv-x="1175" 
d="M584 -27q-71 0 -138 19t-125.5 57.5t-97.5 97t-54.5 137t3.5 177.5l80 409q18 97 60 177.5t100 137t129.5 96t149.5 58.5t161 19q71 0 138 -19t125.5 -57.5t97.5 -97t54.5 -137t-3.5 -177.5l-80 -409q-46 -242 -203 -365t-397 -123zM483 471q-17 -86 28 -141.5t130 -55.5
t152 55.5t84 141.5l75 389q17 86 -27.5 141.5t-129.5 55.5t-152 -55.5t-84 -141.5z" />
    <glyph glyph-name="one.tf" horiz-adv-x="1171" 
d="M166 0l57 299h307l148 756h-41q-26 -135 -128 -221t-228 -86l65 337q149 0 243.5 54t115.5 161l6 31h329l-200 -1032h254l-58 -299h-870z" />
    <glyph glyph-name="two.tf" horiz-adv-x="1171" 
d="M109 0l96 506l571 248q69 31 109.5 79.5t40.5 100.5q0 48 -38 86.5t-114 38.5q-88 0 -144 -57.5t-73 -133.5l-256 121q48 157 184 263t332 106q103 0 187.5 -32.5t136.5 -85.5t80 -118t28 -133q0 -330 -401 -495l-395 -162l-7 -41h672l-57 -291h-952z" />
    <glyph glyph-name="three.tf" horiz-adv-x="1171" 
d="M600 -25q-181 0 -303.5 101t-134.5 268l280 117q-2 -32 8.5 -63.5t32.5 -60t63 -46t95 -17.5q94 0 155.5 48t61.5 120q0 46 -36.5 76.5t-102.5 30.5h-121l53 264h109q71 0 120.5 40t49.5 99q0 45 -37.5 76t-108.5 31q-86 0 -147 -55.5t-80 -129.5l-258 115
q47 155 189 262t341 107q204 0 318.5 -87.5t114.5 -211.5q0 -116 -84 -192t-211 -76l-9 -41q99 -17 158.5 -92t59.5 -175q0 -108 -38 -200t-109 -161t-181.5 -108t-247.5 -39z" />
    <glyph glyph-name="four.tf" horiz-adv-x="1171" 
d="M649 0l43 225h-583l86 441l542 665h346l-8 -41l-624 -749l-9 -41h303l46 231h307l-45 -231h147l-53 -275h-148l-43 -225h-307z" />
    <glyph glyph-name="five.tf" horiz-adv-x="1171" 
d="M580 -25q-172 0 -285.5 99t-132.5 250l284 116q0 -67 48.5 -116.5t138.5 -49.5q98 0 168.5 69t70.5 163q0 66 -44.5 109.5t-120.5 43.5q-64 0 -120 -35t-83 -87l-275 112l187 682h827l-53 -274h-574l-98 -340l37 -12q47 95 133.5 152.5t190.5 57.5q100 0 173.5 -50
t107.5 -126t34 -166q0 -124 -41.5 -232t-117.5 -190t-193.5 -129t-261.5 -47z" />
    <glyph glyph-name="six.tf" horiz-adv-x="1171" 
d="M584 -27q-180 0 -302 108t-122 292q0 110 44 203.5t126 189.5l487 565h330l-8 -41l-455 -506l27 -24q32 43 86.5 74.5t120.5 31.5q123 0 197.5 -90.5t74.5 -226.5q0 -112 -42 -215.5t-118 -184t-192 -128.5t-254 -48zM457 416q0 -73 50.5 -118.5t129.5 -45.5
q104 0 182 74t78 172q0 72 -50.5 119t-129.5 47q-104 0 -182 -74.5t-78 -173.5z" />
    <glyph glyph-name="seven.tf" horiz-adv-x="1171" 
d="M242 0l8 41l723 975l8 41h-393l-37 -185h-266l88 459h942l-78 -418l-666 -913h-329z" />
    <glyph glyph-name="eight.tf" horiz-adv-x="1171" 
d="M145 293q0 135 101.5 223t253.5 102l8 41l2 -2l-10 7q-75 37 -121.5 109.5t-46.5 168.5q0 184 143.5 300t368.5 116q171 0 282 -78t111 -193q0 -120 -89 -198t-226 -78l-9 -39l17 -8q235 -110 235 -311q0 -139 -76.5 -249t-209 -170.5t-297.5 -60.5q-182 0 -309.5 88
t-127.5 232zM475 377q0 -55 43 -92t119 -37q86 0 150.5 50.5t64.5 119.5q0 72 -82 112l-92 45q-84 -23 -143.5 -78t-59.5 -120zM627 969q0 -62 71 -97l90 -43q66 28 105 75t39 97q0 41 -33 71t-98 30q-71 0 -122.5 -39t-51.5 -94z" />
    <glyph glyph-name="nine.tf" horiz-adv-x="1171" 
d="M844 1358q117 0 213.5 -45.5t155.5 -135t59 -206.5q0 -203 -166 -400l-481 -571h-330l8 41l445 506l-27 24q-32 -43 -86 -74.5t-119 -31.5q-124 0 -199 90.5t-75 226.5q0 115 48 221.5t129 184t192.5 124t232.5 46.5zM535 834q0 -72 50.5 -119t129.5 -47q104 0 182 74.5
t78 172.5q0 73 -50 118.5t-130 45.5q-104 0 -182 -73.5t-78 -171.5z" />
    <glyph glyph-name="caron.Slovak" horiz-adv-x="409" 
d="M256 1001l117 433h254l-133 -433h-238z" />
    </font>
</defs>
</svg>
